<svg width="135" height="135" viewBox="0 0 135 135" fill="none" xmlns="http://www.w3.org/2000/svg">
<rect x="135" y="135" width="135" height="135" transform="rotate(180 135 135)" fill="black"/>
<rect x="14.5" y="15.5" width="7.5" height="7.5" fill="#D7D7D7"/>
<rect x="22" y="15.5" width="7.5" height="7.5" fill="#D7D7D7"/>
<rect x="29.5" y="15.5" width="7.5" height="7.5" fill="#D7D7D7"/>
<rect x="37" y="15.5" width="7.5" height="7.5" fill="#D7D7D7"/>
<rect x="44.5" y="15.5" width="7.5" height="7.5" fill="#D7D7D7"/>
<rect x="52" y="15.5" width="7.5" height="7.5" fill="#D7D7D7"/>
<rect x="59.5" y="15.5" width="7.5" height="7.5" fill="#D7D7D7"/>
<rect x="67" y="15.5" width="7.5" height="7.5" fill="#D7D7D7"/>
<rect x="74.5" y="15.5" width="7.5" height="7.5" fill="#D7D7D7"/>
<rect x="82" y="15.5" width="7.5" height="7.5" fill="#D7D7D7"/>
<rect x="89.5" y="15.5" width="7.5" height="7.5" fill="#D7D7D7"/>
<rect x="97" y="15.5" width="7.5" height="7.5" fill="#D7D7D7"/>
<rect x="104.5" y="15.5" width="7.5" height="7.5" fill="#D7D7D7"/>
<rect x="112" y="15.5" width="7.5" height="7.5" fill="#D7D7D7"/>
<rect x="119.5" y="15.5" width="7.5" height="7.5" fill="#D7D7D7"/>
<rect x="14.5" y="23" width="7.5" height="7.5" fill="#D7D7D7"/>
<rect x="22" y="23" width="7.5" height="7.5" fill="#D7D7D7"/>
<rect x="29.5" y="23" width="7.5" height="7.5" fill="#D7D7D7"/>
<rect x="37" y="23" width="7.5" height="7.5" fill="#D7D7D7"/>
<rect x="44.5" y="23" width="7.5" height="7.5" fill="#D7D7D7"/>
<rect x="52" y="23" width="7.5" height="7.5" fill="#D7D7D7"/>
<rect x="59.5" y="23" width="7.5" height="7.5" fill="#D7D7D7"/>
<rect x="67" y="23" width="7.5" height="7.5" fill="#D7D7D7"/>
<rect x="74.5" y="23" width="7.5" height="7.5" fill="#D7D7D7"/>
<rect x="82" y="23" width="7.5" height="7.5" fill="#D7D7D7"/>
<rect x="89.5" y="23" width="7.5" height="7.5" fill="#D7D7D7"/>
<rect x="97" y="23" width="7.5" height="7.5" fill="#D7D7D7"/>
<rect x="104.5" y="23" width="7.5" height="7.5" fill="#D7D7D7"/>
<rect x="112" y="23" width="7.5" height="7.5" fill="#D7D7D7"/>
<rect x="119.5" y="23" width="7.5" height="7.5" fill="#D7D7D7"/>
<rect x="14.5" y="30.5" width="7.5" height="7.5" fill="#D7D7D7"/>
<rect x="22" y="30.5" width="7.5" height="7.5" fill="#D7D7D7"/>
<rect x="29.5" y="30.5" width="7.5" height="7.5" fill="#D7D7D7"/>
<rect x="37" y="30.5" width="7.5" height="7.5" fill="#D7D7D7"/>
<rect x="44.5" y="30.5" width="7.5" height="7.5" fill="#D7D7D7"/>
<rect x="52" y="30.5" width="7.5" height="7.5" fill="#D7D7D7"/>
<rect x="59.5" y="30.5" width="7.5" height="7.5" fill="#D7D7D7"/>
<rect x="67" y="30.5" width="7.5" height="7.5" fill="#D7D7D7"/>
<rect x="74.5" y="30.5" width="7.5" height="7.5" fill="#D7D7D7"/>
<rect x="82" y="30.5" width="7.5" height="7.5" fill="#D7D7D7"/>
<rect x="89.5" y="30.5" width="7.5" height="7.5" fill="#D7D7D7"/>
<rect x="97" y="30.5" width="7.5" height="7.5" fill="#D7D7D7"/>
<rect x="104.5" y="30.5" width="7.5" height="7.5" fill="#D7D7D7"/>
<rect x="112" y="30.5" width="7.5" height="7.5" fill="#D7D7D7"/>
<rect x="119.5" y="30.5" width="7.5" height="7.5" fill="#D7D7D7"/>
<rect x="14.5" y="38" width="7.5" height="7.5" fill="#D7D7D7"/>
<rect x="22" y="38" width="7.5" height="7.5" fill="#D7D7D7"/>
<rect x="29.5" y="38" width="7.5" height="7.5" fill="#D7D7D7"/>
<rect x="37" y="38" width="7.5" height="7.5" fill="#D7D7D7"/>
<rect x="44.5" y="38" width="7.5" height="7.5" fill="#D7D7D7"/>
<rect x="52" y="38" width="7.5" height="7.5" fill="#D7D7D7"/>
<rect x="59.5" y="38" width="7.5" height="7.5" fill="#D7D7D7"/>
<rect x="67" y="38" width="7.5" height="7.5" fill="#D7D7D7"/>
<rect x="74.5" y="38" width="7.5" height="7.5" fill="#D7D7D7"/>
<rect x="82" y="38" width="7.5" height="7.5" fill="#D7D7D7"/>
<rect x="89.5" y="38" width="7.5" height="7.5" fill="#D7D7D7"/>
<rect x="97" y="38" width="7.5" height="7.5" fill="#D7D7D7"/>
<rect x="104.5" y="38" width="7.5" height="7.5" fill="#D7D7D7"/>
<rect x="112" y="38" width="7.5" height="7.5" fill="#D7D7D7"/>
<rect x="119.5" y="38" width="7.5" height="7.5" fill="#D7D7D7"/>
<rect x="14.5" y="15.5" width="7.5" height="7.5" fill="#D7D7D7"/>
<rect x="22" y="15.5" width="7.5" height="7.5" fill="#D7D7D7"/>
<rect x="29.5" y="15.5" width="7.5" height="7.5" fill="#D7D7D7"/>
<rect x="37" y="15.5" width="7.5" height="7.5" fill="#D7D7D7"/>
<rect x="44.5" y="15.5" width="7.5" height="7.5" fill="#D7D7D7"/>
<rect x="52" y="15.5" width="7.5" height="7.5" fill="#D7D7D7"/>
<rect x="59.5" y="15.5" width="7.5" height="7.5" fill="#D7D7D7"/>
<rect x="67" y="15.5" width="7.5" height="7.5" fill="#D7D7D7"/>
<rect x="74.5" y="15.5" width="7.5" height="7.5" fill="#D7D7D7"/>
<rect x="82" y="15.5" width="7.5" height="7.5" fill="#D7D7D7"/>
<rect x="89.5" y="15.5" width="7.5" height="7.5" fill="#D7D7D7"/>
<rect x="97" y="15.5" width="7.5" height="7.5" fill="#D7D7D7"/>
<rect x="104.5" y="15.5" width="7.5" height="7.5" fill="#D7D7D7"/>
<rect x="112" y="15.5" width="7.5" height="7.5" fill="#D7D7D7"/>
<rect x="119.5" y="15.5" width="7.5" height="7.5" fill="#404343"/>
<rect x="14.5" y="23" width="7.5" height="7.5" fill="#D7D7D7"/>
<rect x="22" y="23" width="7.5" height="7.5" fill="#999999"/>
<rect x="29.5" y="23" width="7.5" height="7.5" fill="#FAFAFA"/>
<rect x="37" y="23" width="7.5" height="7.5" fill="#D7D7D7"/>
<rect x="44.5" y="23" width="7.5" height="7.5" fill="#D7D7D7"/>
<rect x="52" y="23" width="7.5" height="7.5" fill="#D7D7D7"/>
<rect x="59.5" y="23" width="7.5" height="7.5" fill="#D7D7D7"/>
<rect x="67" y="23" width="7.5" height="7.5" fill="#D7D7D7"/>
<rect x="74.5" y="23" width="7.5" height="7.5" fill="#D7D7D7"/>
<rect x="82" y="23" width="7.5" height="7.5" fill="#D7D7D7"/>
<rect x="89.5" y="23" width="7.5" height="7.5" fill="#D7D7D7"/>
<rect x="97" y="23" width="7.5" height="7.5" fill="#D7D7D7"/>
<rect x="104.5" y="23" width="7.5" height="7.5" fill="#999999"/>
<rect x="112" y="23" width="7.5" height="7.5" fill="#D7D7D7"/>
<rect x="119.5" y="23" width="7.5" height="7.5" fill="#404343"/>
<rect x="14.5" y="30.5" width="7.5" height="7.5" fill="#D7D7D7"/>
<rect x="22" y="30.5" width="7.5" height="7.5" fill="white"/>
<rect x="29.5" y="30.5" width="7.5" height="7.5" fill="#D7D7D7"/>
<rect x="37" y="30.5" width="7.5" height="7.5" fill="#D7D7D7"/>
<rect x="44.5" y="30.5" width="7.5" height="7.5" fill="#D7D7D7"/>
<rect x="52" y="30.5" width="7.5" height="7.5" fill="#D7D7D7"/>
<rect x="59.5" y="30.5" width="7.5" height="7.5" fill="#D7D7D7"/>
<rect x="67" y="30.5" width="7.5" height="7.5" fill="#D7D7D7"/>
<rect x="74.5" y="30.5" width="7.5" height="7.5" fill="#D7D7D7"/>
<rect x="82" y="30.5" width="7.5" height="7.5" fill="#D7D7D7"/>
<rect x="89.5" y="30.5" width="7.5" height="7.5" fill="#D7D7D7"/>
<rect x="97" y="30.5" width="7.5" height="7.5" fill="black"/>
<rect x="104.5" y="30.5" width="7.5" height="7.5" fill="#D7D7D7"/>
<rect x="112" y="30.5" width="7.5" height="7.5" fill="#D7D7D7"/>
<rect x="119.5" y="30.5" width="7.5" height="7.5" fill="#404343"/>
<rect x="14.5" y="38" width="7.5" height="7.5" fill="#D7D7D7"/>
<rect x="22" y="38" width="7.5" height="7.5" fill="white"/>
<rect x="29.5" y="38" width="7.5" height="7.5" fill="#D7D7D7"/>
<rect x="37" y="38" width="7.5" height="7.5" fill="#D7D7D7"/>
<rect x="44.5" y="38" width="7.5" height="7.5" fill="#D7D7D7"/>
<rect x="52" y="38" width="7.5" height="7.5" fill="#D7D7D7"/>
<rect x="59.5" y="38" width="7.5" height="7.5" fill="#D7D7D7"/>
<rect x="67" y="38" width="7.5" height="7.5" fill="#D7D7D7"/>
<rect x="74.5" y="38" width="7.5" height="7.5" fill="#D7D7D7"/>
<rect x="82" y="38" width="7.5" height="7.5" fill="#D7D7D7"/>
<rect x="89.5" y="38" width="7.5" height="7.5" fill="black"/>
<rect x="97" y="38" width="7.5" height="7.5" fill="#D7D7D7"/>
<rect x="104.5" y="38" width="7.5" height="7.5" fill="#D7D7D7"/>
<rect x="112" y="38" width="7.5" height="7.5" fill="#D7D7D7"/>
<rect x="119.5" y="38" width="7.5" height="7.5" fill="#404343"/>
<rect x="14.5" y="45.5" width="7.5" height="7.5" fill="#D7D7D7"/>
<rect x="22" y="45.5" width="7.5" height="7.5" fill="#D7D7D7"/>
<rect x="29.5" y="45.5" width="7.5" height="7.5" fill="#D7D7D7"/>
<rect x="37" y="45.5" width="7.5" height="7.5" fill="#D7D7D7"/>
<rect x="44.5" y="45.5" width="7.5" height="7.5" fill="#D7D7D7"/>
<rect x="52" y="45.5" width="7.5" height="7.5" fill="#D7D7D7"/>
<rect x="59.5" y="45.5" width="7.5" height="7.5" fill="#D7D7D7"/>
<rect x="67" y="45.5" width="7.5" height="7.5" fill="#D7D7D7"/>
<rect x="74.5" y="45.5" width="7.5" height="7.5" fill="#D7D7D7"/>
<rect x="82" y="45.5" width="7.5" height="7.5" fill="#D7D7D7"/>
<rect x="89.5" y="45.5" width="7.5" height="7.5" fill="#D7D7D7"/>
<rect x="97" y="45.5" width="7.5" height="7.5" fill="#D7D7D7"/>
<rect x="104.5" y="45.5" width="7.5" height="7.5" fill="#D7D7D7"/>
<rect x="112" y="45.5" width="7.5" height="7.5" fill="#D7D7D7"/>
<rect x="119.5" y="45.5" width="7.5" height="7.5" fill="#D7D7D7"/>
<rect x="14.5" y="53" width="7.5" height="7.5" fill="#D7D7D7"/>
<rect x="22" y="53" width="7.5" height="7.5" fill="#D7D7D7"/>
<rect x="29.5" y="53" width="7.5" height="7.5" fill="#D7D7D7"/>
<rect x="37" y="53" width="7.5" height="7.5" fill="#D7D7D7"/>
<rect x="44.5" y="53" width="7.5" height="7.5" fill="#D7D7D7"/>
<rect x="52" y="53" width="7.5" height="7.5" fill="#D7D7D7"/>
<rect x="59.5" y="53" width="7.5" height="7.5" fill="#D7D7D7"/>
<rect x="67" y="53" width="7.5" height="7.5" fill="#D7D7D7"/>
<rect x="74.5" y="53" width="7.5" height="7.5" fill="#D7D7D7"/>
<rect x="82" y="53" width="7.5" height="7.5" fill="#D7D7D7"/>
<rect x="89.5" y="53" width="7.5" height="7.5" fill="#D7D7D7"/>
<rect x="97" y="53" width="7.5" height="7.5" fill="#D7D7D7"/>
<rect x="104.5" y="53" width="7.5" height="7.5" fill="#D7D7D7"/>
<rect x="112" y="53" width="7.5" height="7.5" fill="#D7D7D7"/>
<rect x="119.5" y="53" width="7.5" height="7.5" fill="#D7D7D7"/>
<rect x="14.5" y="60.5" width="7.5" height="7.5" fill="#D7D7D7"/>
<rect x="22" y="60.5" width="7.5" height="7.5" fill="#D7D7D7"/>
<rect x="29.5" y="60.5" width="7.5" height="7.5" fill="#D7D7D7"/>
<rect x="37" y="60.5" width="7.5" height="7.5" fill="#D7D7D7"/>
<rect x="44.5" y="60.5" width="7.5" height="7.5" fill="#D7D7D7"/>
<rect x="52" y="60.5" width="7.5" height="7.5" fill="#D7D7D7"/>
<rect x="59.5" y="60.5" width="7.5" height="7.5" fill="#D7D7D7"/>
<rect x="67" y="60.5" width="7.5" height="7.5" fill="#D7D7D7"/>
<rect x="74.5" y="60.5" width="7.5" height="7.5" fill="#D7D7D7"/>
<rect x="82" y="60.5" width="7.5" height="7.5" fill="#D7D7D7"/>
<rect x="89.5" y="60.5" width="7.5" height="7.5" fill="#D7D7D7"/>
<rect x="97" y="60.5" width="7.5" height="7.5" fill="#D7D7D7"/>
<rect x="104.5" y="60.5" width="7.5" height="7.5" fill="#D7D7D7"/>
<rect x="112" y="60.5" width="7.5" height="7.5" fill="#D7D7D7"/>
<rect x="119.5" y="60.5" width="7.5" height="7.5" fill="#D7D7D7"/>
<rect x="14.5" y="68" width="7.5" height="7.5" fill="#D7D7D7"/>
<rect x="22" y="68" width="7.5" height="7.5" fill="#D7D7D7"/>
<rect x="29.5" y="68" width="7.5" height="7.5" fill="#D7D7D7"/>
<rect x="37" y="68" width="7.5" height="7.5" fill="#D7D7D7"/>
<rect x="44.5" y="68" width="7.5" height="7.5" fill="#D7D7D7"/>
<rect x="52" y="68" width="7.5" height="7.5" fill="#D7D7D7"/>
<rect x="59.5" y="68" width="7.5" height="7.5" fill="#D7D7D7"/>
<rect x="67" y="68" width="7.5" height="7.5" fill="#D7D7D7"/>
<rect x="74.5" y="68" width="7.5" height="7.5" fill="#D7D7D7"/>
<rect x="82" y="68" width="7.5" height="7.5" fill="#D7D7D7"/>
<rect x="89.5" y="68" width="7.5" height="7.5" fill="#D7D7D7"/>
<rect x="97" y="68" width="7.5" height="7.5" fill="#D7D7D7"/>
<rect x="104.5" y="68" width="7.5" height="7.5" fill="#D7D7D7"/>
<rect x="112" y="68" width="7.5" height="7.5" fill="#D7D7D7"/>
<rect x="119.5" y="68" width="7.5" height="7.5" fill="#D7D7D7"/>
<rect x="14.5" y="75.5" width="7.5" height="7.5" fill="#D7D7D7"/>
<rect x="22" y="75.5" width="7.5" height="7.5" fill="#D7D7D7"/>
<rect x="29.5" y="75.5" width="7.5" height="7.5" fill="#D7D7D7"/>
<rect x="37" y="75.5" width="7.5" height="7.5" fill="#D7D7D7"/>
<rect x="44.5" y="75.5" width="7.5" height="7.5" fill="#D7D7D7"/>
<rect x="52" y="75.5" width="7.5" height="7.5" fill="#D7D7D7"/>
<rect x="59.5" y="75.5" width="7.5" height="7.5" fill="#D7D7D7"/>
<rect x="67" y="75.5" width="7.5" height="7.5" fill="#D7D7D7"/>
<rect x="74.5" y="75.5" width="7.5" height="7.5" fill="#D7D7D7"/>
<rect x="82" y="75.5" width="7.5" height="7.5" fill="#D7D7D7"/>
<rect x="89.5" y="75.5" width="7.5" height="7.5" fill="#D7D7D7"/>
<rect x="97" y="75.5" width="7.5" height="7.5" fill="#D7D7D7"/>
<rect x="104.5" y="75.5" width="7.5" height="7.5" fill="#D7D7D7"/>
<rect x="112" y="75.5" width="7.5" height="7.5" fill="#D7D7D7"/>
<rect x="119.5" y="75.5" width="7.5" height="7.5" fill="#D7D7D7"/>
<rect x="14.5" y="45.5" width="7.5" height="7.5" fill="#D7D7D7"/>
<rect x="22" y="45.5" width="7.5" height="7.5" fill="#D7D7D7"/>
<rect x="29.5" y="45.5" width="7.5" height="7.5" fill="#D7D7D7"/>
<rect x="37" y="45.5" width="7.5" height="7.5" fill="#D7D7D7"/>
<rect x="44.5" y="45.5" width="7.5" height="7.5" fill="#D7D7D7"/>
<rect x="52" y="45.5" width="7.5" height="7.5" fill="#D7D7D7"/>
<rect x="59.5" y="45.5" width="7.5" height="7.5" fill="#D7D7D7"/>
<rect x="67" y="45.5" width="7.5" height="7.5" fill="#D7D7D7"/>
<rect x="74.5" y="45.5" width="7.5" height="7.5" fill="#D7D7D7"/>
<rect x="82" y="45.5" width="7.5" height="7.5" fill="black"/>
<rect x="89.5" y="45.5" width="7.5" height="7.5" fill="#D7D7D7"/>
<rect x="97" y="45.5" width="7.5" height="7.5" fill="#D7D7D7"/>
<rect x="104.5" y="45.5" width="7.5" height="7.5" fill="#D7D7D7"/>
<rect x="112" y="45.5" width="7.5" height="7.5" fill="#D7D7D7"/>
<rect x="119.5" y="45.5" width="7.5" height="7.5" fill="#404343"/>
<rect x="14.5" y="53" width="7.5" height="7.5" fill="#D7D7D7"/>
<rect x="22" y="53" width="7.5" height="7.5" fill="#D7D7D7"/>
<rect x="29.5" y="53" width="7.5" height="7.5" fill="#D7D7D7"/>
<rect x="37" y="53" width="7.5" height="7.5" fill="#D7D7D7"/>
<rect x="44.5" y="53" width="7.5" height="7.5" fill="#D7D7D7"/>
<rect x="52" y="53" width="7.5" height="7.5" fill="#D7D7D7"/>
<rect x="59.5" y="53" width="7.5" height="7.5" fill="#D7D7D7"/>
<rect x="67" y="53" width="7.5" height="7.5" fill="#D7D7D7"/>
<rect x="74.5" y="53" width="7.5" height="7.5" fill="black"/>
<rect x="82" y="53" width="7.5" height="7.5" fill="#D7D7D7"/>
<rect x="89.5" y="53" width="7.5" height="7.5" fill="#D7D7D7"/>
<rect x="97" y="53" width="7.5" height="7.5" fill="#D7D7D7"/>
<rect x="104.5" y="53" width="7.5" height="7.5" fill="#D7D7D7"/>
<rect x="112" y="53" width="7.5" height="7.5" fill="#D7D7D7"/>
<rect x="119.5" y="53" width="7.5" height="7.5" fill="#404343"/>
<rect x="14.5" y="60.5" width="7.5" height="7.5" fill="#D7D7D7"/>
<rect x="22" y="60.5" width="7.5" height="7.5" fill="#D7D7D7"/>
<rect x="29.5" y="60.5" width="7.5" height="7.5" fill="#D7D7D7"/>
<rect x="37" y="60.5" width="7.5" height="7.5" fill="#D7D7D7"/>
<rect x="44.5" y="60.5" width="7.5" height="7.5" fill="#D7D7D7"/>
<rect x="52" y="60.5" width="7.5" height="7.5" fill="#D7D7D7"/>
<rect x="59.5" y="60.5" width="7.5" height="7.5" fill="#D7D7D7"/>
<rect x="67" y="60.5" width="7.5" height="7.5" fill="black"/>
<rect x="74.5" y="60.5" width="7.5" height="7.5" fill="#D7D7D7"/>
<rect x="82" y="60.5" width="7.5" height="7.5" fill="#D7D7D7"/>
<rect x="89.5" y="60.5" width="7.5" height="7.5" fill="#D7D7D7"/>
<rect x="97" y="60.5" width="7.5" height="7.5" fill="#D7D7D7"/>
<rect x="104.5" y="60.5" width="7.5" height="7.5" fill="#D7D7D7"/>
<rect x="112" y="60.5" width="7.5" height="7.5" fill="#D7D7D7"/>
<rect x="119.5" y="60.5" width="7.5" height="7.5" fill="#404343"/>
<rect x="14.5" y="68" width="7.5" height="7.5" fill="#D7D7D7"/>
<rect x="22" y="68" width="7.5" height="7.5" fill="#D7D7D7"/>
<rect x="29.5" y="68" width="7.5" height="7.5" fill="#D7D7D7"/>
<rect x="37" y="68" width="7.5" height="7.5" fill="#D7D7D7"/>
<rect x="44.5" y="68" width="7.5" height="7.5" fill="#D7D7D7"/>
<rect x="52" y="68" width="7.5" height="7.5" fill="#D7D7D7"/>
<rect x="59.5" y="68" width="7.5" height="7.5" fill="black"/>
<rect x="67" y="68" width="7.5" height="7.5" fill="#D7D7D7"/>
<rect x="74.5" y="68" width="7.5" height="7.5" fill="#D7D7D7"/>
<rect x="82" y="68" width="7.5" height="7.5" fill="#D7D7D7"/>
<rect x="89.5" y="68" width="7.5" height="7.5" fill="#D7D7D7"/>
<rect x="97" y="68" width="7.5" height="7.5" fill="#D7D7D7"/>
<rect x="104.5" y="68" width="7.5" height="7.5" fill="#D7D7D7"/>
<rect x="112" y="68" width="7.5" height="7.5" fill="#D7D7D7"/>
<rect x="119.5" y="68" width="7.5" height="7.5" fill="#404343"/>
<rect x="14.5" y="75.5" width="7.5" height="7.5" fill="#D7D7D7"/>
<rect x="22" y="75.5" width="7.5" height="7.5" fill="#D7D7D7"/>
<rect x="29.5" y="75.5" width="7.5" height="7.5" fill="#D7D7D7"/>
<rect x="37" y="75.5" width="7.5" height="7.5" fill="#D7D7D7"/>
<rect x="44.5" y="75.5" width="7.5" height="7.5" fill="#D7D7D7"/>
<rect x="52" y="75.5" width="7.5" height="7.5" fill="black"/>
<rect x="59.5" y="75.5" width="7.5" height="7.5" fill="#D7D7D7"/>
<rect x="67" y="75.5" width="7.5" height="7.5" fill="#D7D7D7"/>
<rect x="74.5" y="75.5" width="7.5" height="7.5" fill="#D7D7D7"/>
<rect x="82" y="75.5" width="7.5" height="7.5" fill="#D7D7D7"/>
<rect x="89.5" y="75.5" width="7.5" height="7.5" fill="#D7D7D7"/>
<rect x="97" y="75.5" width="7.5" height="7.5" fill="#D7D7D7"/>
<rect x="104.5" y="75.5" width="7.5" height="7.5" fill="#D7D7D7"/>
<rect x="112" y="75.5" width="7.5" height="7.5" fill="#D7D7D7"/>
<rect x="119.5" y="75.5" width="7.5" height="7.5" fill="#404343"/>
<rect x="14.5" y="83" width="7.5" height="7.5" fill="#D7D7D7"/>
<rect x="22" y="83" width="7.5" height="7.5" fill="#D7D7D7"/>
<rect x="29.5" y="83" width="7.5" height="7.5" fill="#D7D7D7"/>
<rect x="37" y="83" width="7.5" height="7.5" fill="#D7D7D7"/>
<rect x="44.5" y="83" width="7.5" height="7.5" fill="#D7D7D7"/>
<rect x="52" y="83" width="7.5" height="7.5" fill="#D7D7D7"/>
<rect x="59.5" y="83" width="7.5" height="7.5" fill="#D7D7D7"/>
<rect x="67" y="83" width="7.5" height="7.5" fill="#D7D7D7"/>
<rect x="74.5" y="83" width="7.5" height="7.5" fill="#D7D7D7"/>
<rect x="82" y="83" width="7.5" height="7.5" fill="#D7D7D7"/>
<rect x="89.5" y="83" width="7.5" height="7.5" fill="#D7D7D7"/>
<rect x="97" y="83" width="7.5" height="7.5" fill="#D7D7D7"/>
<rect x="104.5" y="83" width="7.5" height="7.5" fill="#D7D7D7"/>
<rect x="112" y="83" width="7.5" height="7.5" fill="#D7D7D7"/>
<rect x="119.5" y="83" width="7.5" height="7.5" fill="#D7D7D7"/>
<rect x="14.5" y="90.5" width="7.5" height="7.5" fill="#D7D7D7"/>
<rect x="22" y="90.5" width="7.5" height="7.5" fill="#D7D7D7"/>
<rect x="29.5" y="90.5" width="7.5" height="7.5" fill="#D7D7D7"/>
<rect x="37" y="90.5" width="7.5" height="7.5" fill="#D7D7D7"/>
<rect x="44.5" y="90.5" width="7.5" height="7.5" fill="#D7D7D7"/>
<rect x="52" y="90.5" width="7.5" height="7.5" fill="#D7D7D7"/>
<rect x="59.5" y="90.5" width="7.5" height="7.5" fill="#D7D7D7"/>
<rect x="67" y="90.5" width="7.5" height="7.5" fill="#D7D7D7"/>
<rect x="74.5" y="90.5" width="7.5" height="7.5" fill="#D7D7D7"/>
<rect x="82" y="90.5" width="7.5" height="7.5" fill="#D7D7D7"/>
<rect x="89.5" y="90.5" width="7.5" height="7.5" fill="#D7D7D7"/>
<rect x="97" y="90.5" width="7.5" height="7.5" fill="#D7D7D7"/>
<rect x="104.5" y="90.5" width="7.5" height="7.5" fill="#D7D7D7"/>
<rect x="112" y="90.5" width="7.5" height="7.5" fill="#D7D7D7"/>
<rect x="119.5" y="90.5" width="7.5" height="7.5" fill="#D7D7D7"/>
<rect x="14.5" y="98" width="7.5" height="7.5" fill="#D7D7D7"/>
<rect x="22" y="98" width="7.5" height="7.5" fill="#D7D7D7"/>
<rect x="29.5" y="98" width="7.5" height="7.5" fill="#D7D7D7"/>
<rect x="37" y="98" width="7.5" height="7.5" fill="#D7D7D7"/>
<rect x="44.5" y="98" width="7.5" height="7.5" fill="#D7D7D7"/>
<rect x="52" y="98" width="7.5" height="7.5" fill="#D7D7D7"/>
<rect x="59.5" y="98" width="7.5" height="7.5" fill="#D7D7D7"/>
<rect x="67" y="98" width="7.5" height="7.5" fill="#D7D7D7"/>
<rect x="74.5" y="98" width="7.5" height="7.5" fill="#D7D7D7"/>
<rect x="82" y="98" width="7.5" height="7.5" fill="#D7D7D7"/>
<rect x="89.5" y="98" width="7.5" height="7.5" fill="#D7D7D7"/>
<rect x="97" y="98" width="7.5" height="7.5" fill="#D7D7D7"/>
<rect x="104.5" y="98" width="7.5" height="7.5" fill="#D7D7D7"/>
<rect x="112" y="98" width="7.5" height="7.5" fill="#D7D7D7"/>
<rect x="119.5" y="98" width="7.5" height="7.5" fill="#D7D7D7"/>
<rect x="14.5" y="105.5" width="7.5" height="7.5" fill="#D7D7D7"/>
<rect x="22" y="105.5" width="7.5" height="7.5" fill="#D7D7D7"/>
<rect x="29.5" y="105.5" width="7.5" height="7.5" fill="#D7D7D7"/>
<rect x="37" y="105.5" width="7.5" height="7.5" fill="#D7D7D7"/>
<rect x="44.5" y="105.5" width="7.5" height="7.5" fill="#D7D7D7"/>
<rect x="52" y="105.5" width="7.5" height="7.5" fill="#D7D7D7"/>
<rect x="59.5" y="105.5" width="7.5" height="7.5" fill="#D7D7D7"/>
<rect x="67" y="105.5" width="7.5" height="7.5" fill="#D7D7D7"/>
<rect x="74.5" y="105.5" width="7.5" height="7.5" fill="#D7D7D7"/>
<rect x="82" y="105.5" width="7.5" height="7.5" fill="#D7D7D7"/>
<rect x="89.5" y="105.5" width="7.5" height="7.5" fill="#D7D7D7"/>
<rect x="97" y="105.5" width="7.5" height="7.5" fill="#D7D7D7"/>
<rect x="104.5" y="105.5" width="7.5" height="7.5" fill="#D7D7D7"/>
<rect x="112" y="105.5" width="7.5" height="7.5" fill="#D7D7D7"/>
<rect x="119.5" y="105.5" width="7.5" height="7.5" fill="#D7D7D7"/>
<rect x="14.5" y="113" width="7.5" height="7.5" fill="#D7D7D7"/>
<rect x="22" y="113" width="7.5" height="7.5" fill="#D7D7D7"/>
<rect x="29.5" y="113" width="7.5" height="7.5" fill="#D7D7D7"/>
<rect x="37" y="113" width="7.5" height="7.5" fill="#D7D7D7"/>
<rect x="44.5" y="113" width="7.5" height="7.5" fill="#D7D7D7"/>
<rect x="52" y="113" width="7.5" height="7.5" fill="#D7D7D7"/>
<rect x="59.5" y="113" width="7.5" height="7.5" fill="#D7D7D7"/>
<rect x="67" y="113" width="7.5" height="7.5" fill="#D7D7D7"/>
<rect x="74.5" y="113" width="7.5" height="7.5" fill="#D7D7D7"/>
<rect x="82" y="113" width="7.5" height="7.5" fill="#D7D7D7"/>
<rect x="89.5" y="113" width="7.5" height="7.5" fill="#D7D7D7"/>
<rect x="97" y="113" width="7.5" height="7.5" fill="#D7D7D7"/>
<rect x="104.5" y="113" width="7.5" height="7.5" fill="#D7D7D7"/>
<rect x="112" y="113" width="7.5" height="7.5" fill="#D7D7D7"/>
<rect x="119.5" y="113" width="7.5" height="7.5" fill="#D7D7D7"/>
<rect x="14.5" y="83" width="7.5" height="7.5" fill="#D7D7D7"/>
<rect x="22" y="83" width="7.5" height="7.5" fill="#D7D7D7"/>
<rect x="29.5" y="83" width="7.5" height="7.5" fill="#D7D7D7"/>
<rect x="37" y="83" width="7.5" height="7.5" fill="#D7D7D7"/>
<rect x="44.5" y="83" width="7.5" height="7.5" fill="black"/>
<rect x="52" y="83" width="7.5" height="7.5" fill="#D7D7D7"/>
<rect x="59.5" y="83" width="7.5" height="7.5" fill="#D7D7D7"/>
<rect x="67" y="83" width="7.5" height="7.5" fill="#D7D7D7"/>
<rect x="74.5" y="83" width="7.5" height="7.5" fill="#D7D7D7"/>
<rect x="82" y="83" width="7.5" height="7.5" fill="#D7D7D7"/>
<rect x="89.5" y="83" width="7.5" height="7.5" fill="#D7D7D7"/>
<rect x="97" y="83" width="7.5" height="7.5" fill="#D7D7D7"/>
<rect x="104.5" y="83" width="7.5" height="7.5" fill="#D7D7D7"/>
<rect x="112" y="83" width="7.5" height="7.5" fill="#D7D7D7"/>
<rect x="119.5" y="83" width="7.5" height="7.5" fill="#404343"/>
<rect x="14.5" y="90.5" width="7.5" height="7.5" fill="#D7D7D7"/>
<rect x="22" y="90.5" width="7.5" height="7.5" fill="#D7D7D7"/>
<rect x="29.5" y="90.5" width="7.5" height="7.5" fill="#D7D7D7"/>
<rect x="37" y="90.5" width="7.5" height="7.5" fill="black"/>
<rect x="44.5" y="90.5" width="7.5" height="7.5" fill="#D7D7D7"/>
<rect x="52" y="90.5" width="7.5" height="7.5" fill="#D7D7D7"/>
<rect x="59.5" y="90.5" width="7.5" height="7.5" fill="#D7D7D7"/>
<rect x="67" y="90.5" width="7.5" height="7.5" fill="#D7D7D7"/>
<rect x="74.5" y="90.5" width="7.5" height="7.5" fill="#D7D7D7"/>
<rect x="82" y="90.5" width="7.5" height="7.5" fill="#D7D7D7"/>
<rect x="89.5" y="90.5" width="7.5" height="7.5" fill="#D7D7D7"/>
<rect x="97" y="90.5" width="7.5" height="7.5" fill="#D7D7D7"/>
<rect x="104.5" y="90.5" width="7.5" height="7.5" fill="#D7D7D7"/>
<rect x="112" y="90.5" width="7.5" height="7.5" fill="#D7D7D7"/>
<rect x="119.5" y="90.5" width="7.5" height="7.5" fill="#404343"/>
<rect x="14.5" y="98" width="7.5" height="7.5" fill="#D7D7D7"/>
<rect x="22" y="98" width="7.5" height="7.5" fill="#D7D7D7"/>
<rect x="29.5" y="98" width="7.5" height="7.5" fill="black"/>
<rect x="37" y="98" width="7.5" height="7.5" fill="#D7D7D7"/>
<rect x="44.5" y="98" width="7.5" height="7.5" fill="#D7D7D7"/>
<rect x="52" y="98" width="7.5" height="7.5" fill="#D7D7D7"/>
<rect x="59.5" y="98" width="7.5" height="7.5" fill="#D7D7D7"/>
<rect x="67" y="98" width="7.5" height="7.5" fill="#D7D7D7"/>
<rect x="74.5" y="98" width="7.5" height="7.5" fill="#D7D7D7"/>
<rect x="82" y="98" width="7.5" height="7.5" fill="#D7D7D7"/>
<rect x="89.5" y="98" width="7.5" height="7.5" fill="#D7D7D7"/>
<rect x="97" y="98" width="7.5" height="7.5" fill="#D7D7D7"/>
<rect x="104.5" y="98" width="7.5" height="7.5" fill="white"/>
<rect x="112" y="98" width="7.5" height="7.5" fill="#D7D7D7"/>
<rect x="119.5" y="98" width="7.5" height="7.5" fill="#404343"/>
<rect x="14.5" y="105.5" width="7.5" height="7.5" fill="#D7D7D7"/>
<rect x="22" y="105.5" width="7.5" height="7.5" fill="#999999"/>
<rect x="29.5" y="105.5" width="7.5" height="7.5" fill="#D7D7D7"/>
<rect x="37" y="105.5" width="7.5" height="7.5" fill="#D7D7D7"/>
<rect x="44.5" y="105.5" width="7.5" height="7.5" fill="#D7D7D7"/>
<rect x="52" y="105.5" width="7.5" height="7.5" fill="#D7D7D7"/>
<rect x="59.5" y="105.5" width="7.5" height="7.5" fill="#D7D7D7"/>
<rect x="67" y="105.5" width="7.5" height="7.5" fill="#D7D7D7"/>
<rect x="74.5" y="105.5" width="7.5" height="7.5" fill="#D7D7D7"/>
<rect x="82" y="105.5" width="7.5" height="7.5" fill="#D7D7D7"/>
<rect x="89.5" y="105.5" width="7.5" height="7.5" fill="#D7D7D7"/>
<rect x="97" y="105.5" width="7.5" height="7.5" fill="white"/>
<rect x="104.5" y="105.5" width="7.5" height="7.5" fill="#999999"/>
<rect x="112" y="105.5" width="7.5" height="7.5" fill="#D7D7D7"/>
<rect x="119.5" y="105.5" width="7.5" height="7.5" fill="#404343"/>
<rect x="14.5" y="113" width="7.5" height="7.5" fill="#404343"/>
<rect x="22" y="113" width="7.5" height="7.5" fill="#999999"/>
<rect x="29.5" y="113" width="7.5" height="7.5" fill="#999999"/>
<rect x="37" y="113" width="7.5" height="7.5" fill="#999999"/>
<rect x="44.5" y="113" width="7.5" height="7.5" fill="#999999"/>
<rect x="52" y="113" width="7.5" height="7.5" fill="#999999"/>
<rect x="59.5" y="113" width="7.5" height="7.5" fill="#999999"/>
<rect x="67" y="113" width="7.5" height="7.5" fill="#999999"/>
<rect x="74.5" y="113" width="7.5" height="7.5" fill="#999999"/>
<rect x="82" y="113" width="7.5" height="7.5" fill="#999999"/>
<rect x="89.5" y="113" width="7.5" height="7.5" fill="#999999"/>
<rect x="97" y="113" width="7.5" height="7.5" fill="#999999"/>
<rect x="104.5" y="113" width="7.5" height="7.5" fill="#999999"/>
<rect x="22" y="15.5" width="7.5" height="7.5" transform="rotate(90 22 15.5)" fill="#999999"/>
<rect x="22" y="23" width="7.5" height="7.5" transform="rotate(90 22 23)" fill="#999999"/>
<rect x="22" y="30.5" width="7.5" height="7.5" transform="rotate(90 22 30.5)" fill="#999999"/>
<rect x="22" y="38" width="7.5" height="7.5" transform="rotate(90 22 38)" fill="#999999"/>
<rect x="22" y="45.5" width="7.5" height="7.5" transform="rotate(90 22 45.5)" fill="#999999"/>
<rect x="22" y="53" width="7.5" height="7.5" transform="rotate(90 22 53)" fill="#999999"/>
<rect x="22" y="60.5" width="7.5" height="7.5" transform="rotate(90 22 60.5)" fill="#999999"/>
<rect x="22" y="68" width="7.5" height="7.5" transform="rotate(90 22 68)" fill="#999999"/>
<rect x="22" y="75.5" width="7.5" height="7.5" transform="rotate(90 22 75.5)" fill="#999999"/>
<rect x="22" y="83" width="7.5" height="7.5" transform="rotate(90 22 83)" fill="#999999"/>
<rect x="22" y="90.5" width="7.5" height="7.5" transform="rotate(90 22 90.5)" fill="#999999"/>
<rect x="22" y="98" width="7.5" height="7.5" transform="rotate(90 22 98)" fill="#999999"/>
<rect x="22" y="105.5" width="7.5" height="7.5" transform="rotate(90 22 105.5)" fill="#999999"/>
<rect x="119.5" y="15.5" width="7.5" height="7.5" transform="rotate(90 119.5 15.5)" fill="#404343"/>
<rect x="119.5" y="23" width="7.5" height="7.5" transform="rotate(90 119.5 23)" fill="#999999"/>
<rect x="119.5" y="30.5" width="7.5" height="7.5" transform="rotate(90 119.5 30.5)" fill="#999999"/>
<rect x="119.5" y="38" width="7.5" height="7.5" transform="rotate(90 119.5 38)" fill="#999999"/>
<rect x="119.5" y="45.5" width="7.5" height="7.5" transform="rotate(90 119.5 45.5)" fill="#999999"/>
<rect x="119.5" y="53" width="7.5" height="7.5" transform="rotate(90 119.5 53)" fill="#999999"/>
<rect x="119.5" y="60.5" width="7.5" height="7.5" transform="rotate(90 119.5 60.5)" fill="#999999"/>
<rect x="119.5" y="68" width="7.5" height="7.5" transform="rotate(90 119.5 68)" fill="#999999"/>
<rect x="119.5" y="75.5" width="7.5" height="7.5" transform="rotate(90 119.5 75.5)" fill="#999999"/>
<rect x="119.5" y="83" width="7.5" height="7.5" transform="rotate(90 119.5 83)" fill="#999999"/>
<rect x="119.5" y="90.5" width="7.5" height="7.5" transform="rotate(90 119.5 90.5)" fill="#999999"/>
<rect x="119.5" y="98" width="7.5" height="7.5" transform="rotate(90 119.5 98)" fill="#999999"/>
<rect x="119.5" y="105.5" width="7.5" height="7.5" transform="rotate(90 119.5 105.5)" fill="#999999"/>
<rect x="112" y="23" width="7.5" height="7.5" transform="rotate(180 112 23)" fill="#999999"/>
<rect x="104.5" y="23" width="7.5" height="7.5" transform="rotate(180 104.5 23)" fill="#999999"/>
<rect x="97" y="23" width="7.5" height="7.5" transform="rotate(180 97 23)" fill="#999999"/>
<rect x="89.5" y="23" width="7.5" height="7.5" transform="rotate(180 89.5 23)" fill="#999999"/>
<rect x="82" y="23" width="7.5" height="7.5" transform="rotate(180 82 23)" fill="#999999"/>
<rect x="74.5" y="23" width="7.5" height="7.5" transform="rotate(180 74.5 23)" fill="#999999"/>
<rect x="67" y="23" width="7.5" height="7.5" transform="rotate(180 67 23)" fill="#999999"/>
<rect x="59.5" y="23" width="7.5" height="7.5" transform="rotate(180 59.5 23)" fill="#999999"/>
<rect x="52" y="23" width="7.5" height="7.5" transform="rotate(180 52 23)" fill="#999999"/>
<rect x="44.5" y="23" width="7.5" height="7.5" transform="rotate(180 44.5 23)" fill="#999999"/>
<rect x="37" y="23" width="7.5" height="7.5" transform="rotate(180 37 23)" fill="#999999"/>
<rect x="29.5" y="23" width="7.5" height="7.5" transform="rotate(180 29.5 23)" fill="#999999"/>
<rect x="22" y="23" width="7.5" height="7.5" transform="rotate(180 22 23)" fill="#404343"/>
<rect x="112" y="113" width="7.5" height="7.5" fill="#404343"/>
<rect x="119.5" y="113" width="7.5" height="7.5" fill="#404343"/>
<rect x="119.5" y="8" width="7.5" height="7.5" transform="rotate(90 119.5 8)" fill="#404343"/>
<rect x="112" y="8" width="7.5" height="7.5" transform="rotate(90 112 8)" fill="#404343"/>
<rect x="104.5" y="8" width="7.5" height="7.5" transform="rotate(90 104.5 8)" fill="#404343"/>
<rect x="97" y="8" width="7.5" height="7.5" transform="rotate(90 97 8)" fill="#404343"/>
<rect x="89.5" y="8" width="7.5" height="7.5" transform="rotate(90 89.5 8)" fill="#404343"/>
<rect x="82" y="8" width="7.5" height="7.5" transform="rotate(90 82 8)" fill="#404343"/>
<rect x="74.5" y="8" width="7.5" height="7.5" transform="rotate(90 74.5 8)" fill="#404343"/>
<rect x="67" y="8" width="7.5" height="7.5" transform="rotate(90 67 8)" fill="#404343"/>
<rect x="59.5" y="8" width="7.5" height="7.5" transform="rotate(90 59.5 8)" fill="#404343"/>
<rect x="52" y="8" width="7.5" height="7.5" transform="rotate(90 52 8)" fill="#404343"/>
<rect x="44.5" y="8" width="7.5" height="7.5" transform="rotate(90 44.5 8)" fill="#404343"/>
<rect x="37" y="8" width="7.5" height="7.5" transform="rotate(90 37 8)" fill="#404343"/>
<rect x="29.5" y="8" width="7.5" height="7.5" transform="rotate(90 29.5 8)" fill="#404343"/>
<rect x="22" y="8" width="7.5" height="7.5" transform="rotate(90 22 8)" fill="#404343"/>
<rect x="7" y="15.5" width="7.5" height="7.5" fill="#404343"/>
<rect x="7" y="23" width="7.5" height="7.5" fill="#404343"/>
<rect x="7" y="30.5" width="7.5" height="7.5" fill="#404343"/>
<rect x="7" y="38" width="7.5" height="7.5" fill="#404343"/>
<rect x="7" y="45.5" width="7.5" height="7.5" fill="#404343"/>
<rect x="7" y="53" width="7.5" height="7.5" fill="#404343"/>
<rect x="7" y="60.5" width="7.5" height="7.5" fill="#404343"/>
<rect x="7" y="68" width="7.5" height="7.5" fill="#404343"/>
<rect x="7" y="75.5" width="7.5" height="7.5" fill="#404343"/>
<rect x="7" y="83" width="7.5" height="7.5" fill="#404343"/>
<rect x="7" y="90.5" width="7.5" height="7.5" fill="#404343"/>
<rect x="7" y="98" width="7.5" height="7.5" fill="#404343"/>
<rect x="7" y="105.5" width="7.5" height="7.5" fill="#404343"/>
<rect x="7" y="113" width="7.5" height="7.5" fill="#404343"/>
<rect x="119.5" y="120.5" width="7.5" height="7.5" transform="rotate(90 119.5 120.5)" fill="#404343"/>
<rect x="112" y="120.5" width="7.5" height="7.5" transform="rotate(90 112 120.5)" fill="#404343"/>
<rect x="104.5" y="120.5" width="7.5" height="7.5" transform="rotate(90 104.5 120.5)" fill="#404343"/>
<rect x="97" y="120.5" width="7.5" height="7.5" transform="rotate(90 97 120.5)" fill="#404343"/>
<rect x="89.5" y="120.5" width="7.5" height="7.5" transform="rotate(90 89.5 120.5)" fill="#404343"/>
<rect x="82" y="120.5" width="7.5" height="7.5" transform="rotate(90 82 120.5)" fill="#404343"/>
<rect x="74.5" y="120.5" width="7.5" height="7.5" transform="rotate(90 74.5 120.5)" fill="#404343"/>
<rect x="67" y="120.5" width="7.5" height="7.5" transform="rotate(90 67 120.5)" fill="#404343"/>
<rect x="59.5" y="120.5" width="7.5" height="7.5" transform="rotate(90 59.5 120.5)" fill="#404343"/>
<rect x="52" y="120.5" width="7.5" height="7.5" transform="rotate(90 52 120.5)" fill="#404343"/>
<rect x="44.5" y="120.5" width="7.5" height="7.5" transform="rotate(90 44.5 120.5)" fill="#404343"/>
<rect x="37" y="120.5" width="7.5" height="7.5" transform="rotate(90 37 120.5)" fill="#404343"/>
<rect x="29.5" y="120.5" width="7.5" height="7.5" transform="rotate(90 29.5 120.5)" fill="#404343"/>
<rect x="22" y="120.5" width="7.5" height="7.5" transform="rotate(90 22 120.5)" fill="#404343"/>
<path d="M100.987 41.0125H96.9971V73.0112H100.987V41.0125Z" fill="#000001"/>
<path d="M96.9977 73.0112H92.9814V77.0012H96.9977V73.0112Z" fill="#000001"/>
<path d="M96.9977 36.9963H92.9814V41.0125H96.9977V36.9963Z" fill="#000001"/>
<path d="M92.9812 77.0012H88.9912V80.9912H92.9812V77.0012Z" fill="#000001"/>
<path d="M92.9812 33.0062H88.9912V36.9962H92.9812V33.0062Z" fill="#000001"/>
<path d="M88.9918 80.9912H84.9756V85.0075H88.9918V80.9912Z" fill="#000001"/>
<path d="M88.9918 28.99H84.9756V33.0062H88.9918V28.99Z" fill="#000001"/>
<path d="M72.9788 85.0075V68.995H68.9888V85.0075H64.9988V68.995H60.9826V85.0075H48.9863V88.9975H52.9763V105.01H56.9926V100.994H76.9951V105.01H80.9851V88.9975H84.9751V85.0075H72.9788ZM76.9951 92.9875H56.9926V88.9975H76.9951V92.9875Z" fill="#000001"/>
<path d="M80.9851 53.0088H76.9951V60.9888H80.9851V53.0088Z" fill="#000001"/>
<path d="M76.9948 60.9887H72.9785V68.995H76.9948V60.9887Z" fill="#000001"/>
<path d="M76.9947 105.01H56.9922V109H76.9947V105.01Z" fill="#000001"/>
<path d="M60.9822 60.9887H56.9922V68.995H60.9822V60.9887Z" fill="#000001"/>
<path d="M56.9928 53.0088H52.9766V60.9888H56.9928V53.0088Z" fill="#000001"/>
<path d="M84.9751 25H48.9863V28.99H84.9751V25Z" fill="#000001"/>
<path d="M48.9861 80.9912H44.9961V85.0075H48.9861V80.9912Z" fill="#000001"/>
<path d="M48.9861 28.99H44.9961V33.0062H48.9861V28.99Z" fill="#000001"/>
<path d="M44.9967 77.0012H40.9805V80.9912H44.9967V77.0012Z" fill="#000001"/>
<path d="M44.9967 33.0062H40.9805V36.9962H44.9967V33.0062Z" fill="#000001"/>
<path d="M40.9802 73.0112H36.9902V77.0012H40.9802V73.0112Z" fill="#000001"/>
<path d="M40.9802 36.9963H36.9902V41.0125H40.9802V36.9963Z" fill="#000001"/>
<path d="M36.99 41.0125H33V73.0112H36.99V41.0125Z" fill="#000001"/>
</svg>
