<svg width="72" height="152" viewBox="0 0 72 152" fill="none" xmlns="http://www.w3.org/2000/svg">
<rect width="8" height="8" fill="black"/>
<rect x="8" width="8" height="8" fill="black"/>
<rect x="16" width="8" height="8" fill="black"/>
<rect x="24" width="8" height="8" fill="black"/>
<rect x="32" width="8" height="8" fill="black"/>
<rect x="40" width="8" height="8" fill="black"/>
<rect x="48" width="8" height="8" fill="black"/>
<rect x="56" width="8" height="8" fill="black"/>
<rect x="64" width="8" height="8" fill="black"/>
<rect y="144" width="8" height="8" fill="black"/>
<rect x="8" y="144" width="8" height="8" fill="black"/>
<rect x="16" y="144" width="8" height="8" fill="black"/>
<rect x="24" y="144" width="8" height="8" fill="black"/>
<rect x="32" y="144" width="8" height="8" fill="black"/>
<rect x="40" y="144" width="8" height="8" fill="black"/>
<rect x="48" y="144" width="8" height="8" fill="black"/>
<rect x="56" y="144" width="8" height="8" fill="black"/>
<rect x="64" y="144" width="8" height="8" fill="black"/>
<rect x="8" y="8" width="8" height="8" fill="black"/>
<rect x="16" y="8" width="8" height="8" fill="#56510F"/>
<rect x="24" y="8" width="8" height="8" fill="#56510F"/>
<rect x="32" y="8" width="8" height="8" fill="#FFFCD3"/>
<rect x="40" y="8" width="8" height="8" fill="#FFFCD3"/>
<rect x="48" y="8" width="8" height="8" fill="#FFFCD3"/>
<rect x="56" y="8" width="8" height="8" fill="black"/>
<rect x="8" y="16" width="8" height="8" fill="#56510F"/>
<rect x="16" y="16" width="8" height="8" fill="#FFFCD3"/>
<rect x="24" y="16" width="8" height="8" fill="#FFF12F"/>
<rect x="32" y="16" width="8" height="8" fill="#FFF12F"/>
<rect x="40" y="16" width="8" height="8" fill="#FFF12F"/>
<rect x="48" y="16" width="8" height="8" fill="#FFF12F"/>
<rect x="56" y="16" width="8" height="8" fill="#56510F"/>
<rect x="8" y="24" width="8" height="8" fill="#56510F"/>
<rect x="16" y="24" width="8" height="8" fill="#FFF12F"/>
<rect x="24" y="24" width="8" height="8" fill="#FFF12F"/>
<rect x="32" y="24" width="8" height="8" fill="#FFF12F"/>
<rect x="40" y="24" width="8" height="8" fill="#FFF12F"/>
<rect x="48" y="24" width="8" height="8" fill="#FFF12F"/>
<rect x="56" y="24" width="8" height="8" fill="#56510F"/>
<rect x="8" y="32" width="8" height="8" fill="#56510F"/>
<rect x="16" y="32" width="8" height="8" fill="#FFF12F"/>
<rect x="24" y="32" width="8" height="8" fill="#FFF12F"/>
<rect x="32" y="32" width="8" height="8" fill="#FFF12F"/>
<rect x="40" y="32" width="8" height="8" fill="#FFF12F"/>
<rect x="48" y="32" width="8" height="8" fill="#FFFCD3"/>
<rect x="56" y="32" width="8" height="8" fill="#56510F"/>
<rect x="8" y="40" width="8" height="8" fill="#FFF12F"/>
<rect x="16" y="40" width="8" height="8" fill="#FFF12F"/>
<rect x="24" y="40" width="8" height="8" fill="#FFF12F"/>
<rect x="32" y="40" width="8" height="8" fill="#FFF12F"/>
<rect x="40" y="40" width="8" height="8" fill="#FFF12F"/>
<rect x="48" y="40" width="8" height="8" fill="#FFF12F"/>
<rect x="56" y="40" width="8" height="8" fill="#FFF12F"/>
<rect x="8" y="48" width="8" height="8" fill="#FFF12F"/>
<rect x="16" y="48" width="8" height="8" fill="#FFF12F"/>
<rect x="24" y="48" width="8" height="8" fill="#FFF12F"/>
<rect x="32" y="48" width="8" height="8" fill="#FFF12F"/>
<rect x="40" y="48" width="8" height="8" fill="#FFF12F"/>
<rect x="48" y="48" width="8" height="8" fill="#FFF12F"/>
<rect x="56" y="48" width="8" height="8" fill="#FFF12F"/>
<rect x="8" y="56" width="8" height="8" fill="#FFF12F"/>
<rect x="16" y="56" width="8" height="8" fill="#FFF12F"/>
<rect x="24" y="56" width="8" height="8" fill="#FFF12F"/>
<rect x="32" y="56" width="8" height="8" fill="#FFF12F"/>
<rect x="40" y="56" width="8" height="8" fill="#FFF12F"/>
<rect x="48" y="56" width="8" height="8" fill="#FFF12F"/>
<rect x="56" y="56" width="8" height="8" fill="#FFF12F"/>
<rect x="8" y="64" width="8" height="8" fill="#FFF12F"/>
<rect x="16" y="64" width="8" height="8" fill="#FFF12F"/>
<rect x="24" y="64" width="8" height="8" fill="#FFF12F"/>
<rect x="32" y="64" width="8" height="8" fill="#FFF12F"/>
<rect x="40" y="64" width="8" height="8" fill="#FFF12F"/>
<rect x="48" y="64" width="8" height="8" fill="#FFF12F"/>
<rect x="56" y="64" width="8" height="8" fill="#FFF12F"/>
<rect x="8" y="72" width="8" height="8" fill="#FFF12F"/>
<rect x="16" y="72" width="8" height="8" fill="#FFF12F"/>
<rect x="24" y="72" width="8" height="8" fill="#FFF12F"/>
<rect x="32" y="72" width="8" height="8" fill="#FFF12F"/>
<rect x="40" y="72" width="8" height="8" fill="#FFF12F"/>
<rect x="48" y="72" width="8" height="8" fill="#FFF12F"/>
<rect x="56" y="72" width="8" height="8" fill="#FFF12F"/>
<rect x="8" y="120" width="8" height="8" fill="#FFFCD3"/>
<rect x="16" y="120" width="8" height="8" fill="#FFF12F"/>
<rect x="24" y="120" width="8" height="8" fill="#FFF12F"/>
<rect x="32" y="120" width="8" height="8" fill="#FFF12F"/>
<rect x="40" y="120" width="8" height="8" fill="#FFF12F"/>
<rect x="48" y="120" width="8" height="8" fill="#FFF12F"/>
<rect x="56" y="120" width="8" height="8" fill="#56510F"/>
<rect x="8" y="128" width="8" height="8" fill="#FFFCD3"/>
<rect x="16" y="128" width="8" height="8" fill="#FFF12F"/>
<rect x="24" y="128" width="8" height="8" fill="#FFF12F"/>
<rect x="32" y="128" width="8" height="8" fill="#FFF12F"/>
<rect x="40" y="128" width="8" height="8" fill="#FFF12F"/>
<rect x="48" y="128" width="8" height="8" fill="#FFF12F"/>
<rect x="56" y="128" width="8" height="8" fill="#56510F"/>
<rect x="8" y="136" width="8" height="8" fill="black"/>
<rect x="16" y="136" width="8" height="8" fill="#56510F"/>
<rect x="24" y="136" width="8" height="8" fill="#FFFCD3"/>
<rect x="32" y="136" width="8" height="8" fill="#56510F"/>
<rect x="40" y="136" width="8" height="8" fill="#56510F"/>
<rect x="48" y="136" width="8" height="8" fill="#56510F"/>
<rect x="56" y="136" width="8" height="8" fill="black"/>
<rect x="8" y="80" width="8" height="8" fill="#FFF12F"/>
<rect x="16" y="80" width="8" height="8" fill="#FFF12F"/>
<rect x="24" y="80" width="8" height="8" fill="#FFF12F"/>
<rect x="32" y="80" width="8" height="8" fill="#FFF12F"/>
<rect x="40" y="80" width="8" height="8" fill="#FFF12F"/>
<rect x="48" y="80" width="8" height="8" fill="#FFF12F"/>
<rect x="56" y="80" width="8" height="8" fill="#56510F"/>
<rect x="8" y="88" width="8" height="8" fill="#FFF12F"/>
<rect x="16" y="88" width="8" height="8" fill="#FFF12F"/>
<rect x="24" y="88" width="8" height="8" fill="#FFF12F"/>
<rect x="32" y="88" width="8" height="8" fill="#FFF12F"/>
<rect x="40" y="88" width="8" height="8" fill="#FFF12F"/>
<rect x="48" y="88" width="8" height="8" fill="#FFFCD3"/>
<rect x="56" y="88" width="8" height="8" fill="#56510F"/>
<rect x="8" y="96" width="8" height="8" fill="#FFF12F"/>
<rect x="16" y="96" width="8" height="8" fill="#FFF12F"/>
<rect x="24" y="96" width="8" height="8" fill="#FFF12F"/>
<rect x="32" y="96" width="8" height="8" fill="#FFF12F"/>
<rect x="40" y="96" width="8" height="8" fill="#FFF12F"/>
<rect x="48" y="96" width="8" height="8" fill="#FFFCD3"/>
<rect x="56" y="96" width="8" height="8" fill="#56510F"/>
<rect x="8" y="104" width="8" height="8" fill="#FFF12F"/>
<rect x="16" y="104" width="8" height="8" fill="#FFF12F"/>
<rect x="24" y="104" width="8" height="8" fill="#FFF12F"/>
<rect x="32" y="104" width="8" height="8" fill="#FFF12F"/>
<rect x="40" y="104" width="8" height="8" fill="#FFF12F"/>
<rect x="48" y="104" width="8" height="8" fill="#FFF12F"/>
<rect x="56" y="104" width="8" height="8" fill="#56510F"/>
<rect x="8" y="112" width="8" height="8" fill="#FFF12F"/>
<rect x="16" y="112" width="8" height="8" fill="#FFF12F"/>
<rect x="24" y="112" width="8" height="8" fill="#FFF12F"/>
<rect x="32" y="112" width="8" height="8" fill="#FFF12F"/>
<rect x="40" y="112" width="8" height="8" fill="#FFF12F"/>
<rect x="48" y="112" width="8" height="8" fill="#FFF12F"/>
<rect x="56" y="112" width="8" height="8" fill="#56510F"/>
<rect x="8" y="40" width="8" height="8" fill="#FFF12F"/>
<rect x="16" y="40" width="8" height="8" fill="#FFF12F"/>
<rect x="24" y="40" width="8" height="8" fill="#FFF12F"/>
<rect x="32" y="40" width="8" height="8" fill="#FFF12F"/>
<rect x="40" y="40" width="8" height="8" fill="#FFF12F"/>
<rect x="48" y="40" width="8" height="8" fill="#FFFCD3"/>
<rect x="56" y="40" width="8" height="8" fill="#56510F"/>
<rect x="8" y="48" width="8" height="8" fill="#FFF12F"/>
<rect x="16" y="48" width="8" height="8" fill="#FFF12F"/>
<rect x="24" y="48" width="8" height="8" fill="#FFF12F"/>
<rect x="32" y="48" width="8" height="8" fill="#FFF12F"/>
<rect x="40" y="48" width="8" height="8" fill="#FFF12F"/>
<rect x="48" y="48" width="8" height="8" fill="#FFFCD3"/>
<rect x="56" y="48" width="8" height="8" fill="#56510F"/>
<rect x="8" y="56" width="8" height="8" fill="#56510F"/>
<rect x="16" y="56" width="8" height="8" fill="#FFF12F"/>
<rect x="24" y="56" width="8" height="8" fill="#FFF12F"/>
<rect x="32" y="56" width="8" height="8" fill="#FFF12F"/>
<rect x="40" y="56" width="8" height="8" fill="#FFF12F"/>
<rect x="48" y="56" width="8" height="8" fill="#FFFCD3"/>
<rect x="56" y="56" width="8" height="8" fill="#56510F"/>
<rect x="8" y="64" width="8" height="8" fill="#56510F"/>
<rect x="16" y="64" width="8" height="8" fill="#FFF12F"/>
<rect x="24" y="64" width="8" height="8" fill="#FFF12F"/>
<rect x="32" y="64" width="8" height="8" fill="#FFF12F"/>
<rect x="40" y="64" width="8" height="8" fill="#FFF12F"/>
<rect x="48" y="64" width="8" height="8" fill="#FFFCD3"/>
<rect x="56" y="64" width="8" height="8" fill="#56510F"/>
<rect y="8" width="8" height="8" fill="black"/>
<rect y="16" width="8" height="8" fill="black"/>
<rect y="24" width="8" height="8" fill="black"/>
<rect y="32" width="8" height="8" fill="black"/>
<rect y="120" width="8" height="8" fill="black"/>
<rect y="128" width="8" height="8" fill="black"/>
<rect y="136" width="8" height="8" fill="black"/>
<rect y="80" width="8" height="8" fill="black"/>
<rect y="88" width="8" height="8" fill="black"/>
<rect y="96" width="8" height="8" fill="black"/>
<rect y="104" width="8" height="8" fill="black"/>
<rect y="112" width="8" height="8" fill="black"/>
<rect y="40" width="8" height="8" fill="black"/>
<rect y="48" width="8" height="8" fill="black"/>
<rect y="56" width="8" height="8" fill="black"/>
<rect y="64" width="8" height="8" fill="black"/>
<rect y="72" width="8" height="8" fill="black"/>
<rect x="8" y="72" width="8" height="8" fill="#FFF12F"/>
<rect x="16" y="72" width="8" height="8" fill="#FFF12F"/>
<rect x="24" y="72" width="8" height="8" fill="#FFF12F"/>
<rect x="32" y="72" width="8" height="8" fill="#FFF12F"/>
<rect x="40" y="72" width="8" height="8" fill="#FFF12F"/>
<rect x="48" y="72" width="8" height="8" fill="#FFFCD3"/>
<rect x="56" y="72" width="8" height="8" fill="#56510F"/>
<rect x="64" y="8" width="8" height="8" fill="black"/>
<rect x="64" y="16" width="8" height="8" fill="black"/>
<rect x="64" y="24" width="8" height="8" fill="black"/>
<rect x="64" y="32" width="8" height="8" fill="black"/>
<rect x="64" y="120" width="8" height="8" fill="black"/>
<rect x="64" y="128" width="8" height="8" fill="black"/>
<rect x="64" y="136" width="8" height="8" fill="black"/>
<rect x="64" y="80" width="8" height="8" fill="black"/>
<rect x="64" y="88" width="8" height="8" fill="black"/>
<rect x="64" y="96" width="8" height="8" fill="black"/>
<rect x="64" y="104" width="8" height="8" fill="black"/>
<rect x="64" y="112" width="8" height="8" fill="black"/>
<rect x="64" y="40" width="8" height="8" fill="black"/>
<rect x="64" y="48" width="8" height="8" fill="black"/>
<rect x="64" y="56" width="8" height="8" fill="black"/>
<rect x="64" y="64" width="8" height="8" fill="black"/>
<rect x="64" y="72" width="8" height="8" fill="black"/>
</svg>
