<svg width="32" height="32" viewBox="0 0 32 32" fill="none" xmlns="http://www.w3.org/2000/svg">
<path d="M29.715 7.625H28.185V10.665H29.715V7.625Z" fill="#000001"/>
<path d="M28.185 6.09497H26.665V7.62497H28.185V6.09497Z" fill="#000001"/>
<path d="M26.6649 4.57507H25.1349V6.09507H26.6649V4.57507Z" fill="#000001"/>
<path d="M19.045 22.855H22.095V21.335H23.615V4.57502H25.135V3.04502H23.615V1.52502H22.095V16.765H19.045V18.285H17.525V21.335H19.045V22.855Z" fill="#000001"/>
<path d="M14.4749 15.235H12.9449V18.285H14.4749V15.235Z" fill="#000001"/>
<path d="M12.945 13.715H11.425V15.235H12.945V13.715Z" fill="#000001"/>
<path d="M11.425 12.1951H9.90497V13.7151H11.425V12.1951Z" fill="#000001"/>
<path d="M3.80497 30.475H6.85497V28.955H8.37497V12.195H9.90497V10.665H8.37497V9.14502H6.85497V24.385H3.80497V25.905H2.28497V28.955H3.80497V30.475Z" fill="#000001"/>
</svg>
