<svg width="135" height="135" viewBox="0 0 135 135" fill="none" xmlns="http://www.w3.org/2000/svg">
<rect x="135" y="135" width="135" height="135" transform="rotate(180 135 135)" fill="black"/>
<rect x="14.5" y="15.5" width="7.5" height="7.5" fill="#D7D7D7"/>
<rect x="22" y="15.5" width="7.5" height="7.5" fill="#D7D7D7"/>
<rect x="29.5" y="15.5" width="7.5" height="7.5" fill="#D7D7D7"/>
<rect x="37" y="15.5" width="7.5" height="7.5" fill="#D7D7D7"/>
<rect x="44.5" y="15.5" width="7.5" height="7.5" fill="#D7D7D7"/>
<rect x="52" y="15.5" width="7.5" height="7.5" fill="#D7D7D7"/>
<rect x="59.5" y="15.5" width="7.5" height="7.5" fill="#D7D7D7"/>
<rect x="67" y="15.5" width="7.5" height="7.5" fill="#D7D7D7"/>
<rect x="74.5" y="15.5" width="7.5" height="7.5" fill="#D7D7D7"/>
<rect x="82" y="15.5" width="7.5" height="7.5" fill="#D7D7D7"/>
<rect x="89.5" y="15.5" width="7.5" height="7.5" fill="#D7D7D7"/>
<rect x="97" y="15.5" width="7.5" height="7.5" fill="#D7D7D7"/>
<rect x="104.5" y="15.5" width="7.5" height="7.5" fill="#D7D7D7"/>
<rect x="112" y="15.5" width="7.5" height="7.5" fill="#D7D7D7"/>
<rect x="119.5" y="15.5" width="7.5" height="7.5" fill="#D7D7D7"/>
<rect x="14.5" y="23" width="7.5" height="7.5" fill="#D7D7D7"/>
<rect x="22" y="23" width="7.5" height="7.5" fill="#D7D7D7"/>
<rect x="29.5" y="23" width="7.5" height="7.5" fill="#D7D7D7"/>
<rect x="37" y="23" width="7.5" height="7.5" fill="#D7D7D7"/>
<rect x="44.5" y="23" width="7.5" height="7.5" fill="#D7D7D7"/>
<rect x="52" y="23" width="7.5" height="7.5" fill="#D7D7D7"/>
<rect x="59.5" y="23" width="7.5" height="7.5" fill="#D7D7D7"/>
<rect x="67" y="23" width="7.5" height="7.5" fill="#D7D7D7"/>
<rect x="74.5" y="23" width="7.5" height="7.5" fill="#D7D7D7"/>
<rect x="82" y="23" width="7.5" height="7.5" fill="#D7D7D7"/>
<rect x="89.5" y="23" width="7.5" height="7.5" fill="#D7D7D7"/>
<rect x="97" y="23" width="7.5" height="7.5" fill="#D7D7D7"/>
<rect x="104.5" y="23" width="7.5" height="7.5" fill="#D7D7D7"/>
<rect x="112" y="23" width="7.5" height="7.5" fill="#D7D7D7"/>
<rect x="119.5" y="23" width="7.5" height="7.5" fill="#D7D7D7"/>
<rect x="14.5" y="30.5" width="7.5" height="7.5" fill="#D7D7D7"/>
<rect x="22" y="30.5" width="7.5" height="7.5" fill="#D7D7D7"/>
<rect x="29.5" y="30.5" width="7.5" height="7.5" fill="#D7D7D7"/>
<rect x="37" y="30.5" width="7.5" height="7.5" fill="#D7D7D7"/>
<rect x="44.5" y="30.5" width="7.5" height="7.5" fill="#D7D7D7"/>
<rect x="52" y="30.5" width="7.5" height="7.5" fill="#D7D7D7"/>
<rect x="59.5" y="30.5" width="7.5" height="7.5" fill="#D7D7D7"/>
<rect x="67" y="30.5" width="7.5" height="7.5" fill="#D7D7D7"/>
<rect x="74.5" y="30.5" width="7.5" height="7.5" fill="#D7D7D7"/>
<rect x="82" y="30.5" width="7.5" height="7.5" fill="#D7D7D7"/>
<rect x="89.5" y="30.5" width="7.5" height="7.5" fill="#D7D7D7"/>
<rect x="97" y="30.5" width="7.5" height="7.5" fill="#D7D7D7"/>
<rect x="104.5" y="30.5" width="7.5" height="7.5" fill="#D7D7D7"/>
<rect x="112" y="30.5" width="7.5" height="7.5" fill="#D7D7D7"/>
<rect x="119.5" y="30.5" width="7.5" height="7.5" fill="#D7D7D7"/>
<rect x="14.5" y="38" width="7.5" height="7.5" fill="#D7D7D7"/>
<rect x="22" y="38" width="7.5" height="7.5" fill="#D7D7D7"/>
<rect x="29.5" y="38" width="7.5" height="7.5" fill="#D7D7D7"/>
<rect x="37" y="38" width="7.5" height="7.5" fill="#D7D7D7"/>
<rect x="44.5" y="38" width="7.5" height="7.5" fill="#D7D7D7"/>
<rect x="52" y="38" width="7.5" height="7.5" fill="#D7D7D7"/>
<rect x="59.5" y="38" width="7.5" height="7.5" fill="#D7D7D7"/>
<rect x="67" y="38" width="7.5" height="7.5" fill="#D7D7D7"/>
<rect x="74.5" y="38" width="7.5" height="7.5" fill="#D7D7D7"/>
<rect x="82" y="38" width="7.5" height="7.5" fill="#D7D7D7"/>
<rect x="89.5" y="38" width="7.5" height="7.5" fill="#D7D7D7"/>
<rect x="97" y="38" width="7.5" height="7.5" fill="#D7D7D7"/>
<rect x="104.5" y="38" width="7.5" height="7.5" fill="#D7D7D7"/>
<rect x="112" y="38" width="7.5" height="7.5" fill="#D7D7D7"/>
<rect x="119.5" y="38" width="7.5" height="7.5" fill="#D7D7D7"/>
<rect x="14.5" y="15.5" width="7.5" height="7.5" fill="#D7D7D7"/>
<rect x="22" y="15.5" width="7.5" height="7.5" fill="#D7D7D7"/>
<rect x="29.5" y="15.5" width="7.5" height="7.5" fill="#D7D7D7"/>
<rect x="37" y="15.5" width="7.5" height="7.5" fill="#D7D7D7"/>
<rect x="44.5" y="15.5" width="7.5" height="7.5" fill="#D7D7D7"/>
<rect x="52" y="15.5" width="7.5" height="7.5" fill="#D7D7D7"/>
<rect x="59.5" y="15.5" width="7.5" height="7.5" fill="#D7D7D7"/>
<rect x="67" y="15.5" width="7.5" height="7.5" fill="#D7D7D7"/>
<rect x="74.5" y="15.5" width="7.5" height="7.5" fill="#D7D7D7"/>
<rect x="82" y="15.5" width="7.5" height="7.5" fill="#D7D7D7"/>
<rect x="89.5" y="15.5" width="7.5" height="7.5" fill="#D7D7D7"/>
<rect x="97" y="15.5" width="7.5" height="7.5" fill="#D7D7D7"/>
<rect x="104.5" y="15.5" width="7.5" height="7.5" fill="#D7D7D7"/>
<rect x="112" y="15.5" width="7.5" height="7.5" fill="#D7D7D7"/>
<rect x="119.5" y="15.5" width="7.5" height="7.5" fill="#404343"/>
<rect x="14.5" y="23" width="7.5" height="7.5" fill="#D7D7D7"/>
<rect x="22" y="23" width="7.5" height="7.5" fill="#999999"/>
<rect x="29.5" y="23" width="7.5" height="7.5" fill="#FAFAFA"/>
<rect x="37" y="23" width="7.5" height="7.5" fill="#D7D7D7"/>
<rect x="44.5" y="23" width="7.5" height="7.5" fill="#D7D7D7"/>
<rect x="52" y="23" width="7.5" height="7.5" fill="#D7D7D7"/>
<rect x="59.5" y="23" width="7.5" height="7.5" fill="#D7D7D7"/>
<rect x="67" y="23" width="7.5" height="7.5" fill="#D7D7D7"/>
<rect x="74.5" y="23" width="7.5" height="7.5" fill="#D7D7D7"/>
<rect x="82" y="23" width="7.5" height="7.5" fill="#D7D7D7"/>
<rect x="89.5" y="23" width="7.5" height="7.5" fill="#D7D7D7"/>
<rect x="97" y="23" width="7.5" height="7.5" fill="#D7D7D7"/>
<rect x="104.5" y="23" width="7.5" height="7.5" fill="#999999"/>
<rect x="112" y="23" width="7.5" height="7.5" fill="#D7D7D7"/>
<rect x="119.5" y="23" width="7.5" height="7.5" fill="#404343"/>
<rect x="14.5" y="30.5" width="7.5" height="7.5" fill="#D7D7D7"/>
<rect x="22" y="30.5" width="7.5" height="7.5" fill="white"/>
<rect x="29.5" y="30.5" width="7.5" height="7.5" fill="#D7D7D7"/>
<rect x="37" y="30.5" width="7.5" height="7.5" fill="#D7D7D7"/>
<rect x="44.5" y="30.5" width="7.5" height="7.5" fill="#D7D7D7"/>
<rect x="52" y="30.5" width="7.5" height="7.5" fill="#D7D7D7"/>
<rect x="59.5" y="30.5" width="7.5" height="7.5" fill="#D7D7D7"/>
<rect x="67" y="30.5" width="7.5" height="7.5" fill="#D7D7D7"/>
<rect x="74.5" y="30.5" width="7.5" height="7.5" fill="#D7D7D7"/>
<rect x="82" y="30.5" width="7.5" height="7.5" fill="#D7D7D7"/>
<rect x="89.5" y="30.5" width="7.5" height="7.5" fill="#D7D7D7"/>
<rect x="97" y="30.5" width="7.5" height="7.5" fill="#D7D7D7"/>
<rect x="104.5" y="30.5" width="7.5" height="7.5" fill="#D7D7D7"/>
<rect x="112" y="30.5" width="7.5" height="7.5" fill="#D7D7D7"/>
<rect x="119.5" y="30.5" width="7.5" height="7.5" fill="#404343"/>
<rect x="14.5" y="38" width="7.5" height="7.5" fill="#D7D7D7"/>
<rect x="22" y="38" width="7.5" height="7.5" fill="white"/>
<rect x="29.5" y="38" width="7.5" height="7.5" fill="#D7D7D7"/>
<rect x="37" y="38" width="7.5" height="7.5" fill="black"/>
<rect x="44.5" y="38" width="7.5" height="7.5" fill="#D7D7D7"/>
<rect x="52" y="38" width="7.5" height="7.5" fill="#D7D7D7"/>
<rect x="59.5" y="38" width="7.5" height="7.5" fill="#D7D7D7"/>
<rect x="67" y="38" width="7.5" height="7.5" fill="black"/>
<rect x="74.5" y="38" width="7.5" height="7.5" fill="#D7D7D7"/>
<rect x="82" y="38" width="7.5" height="7.5" fill="#D7D7D7"/>
<rect x="89.5" y="38" width="7.5" height="7.5" fill="#D7D7D7"/>
<rect x="97" y="38" width="7.5" height="7.5" fill="#D7D7D7"/>
<rect x="104.5" y="38" width="7.5" height="7.5" fill="#D7D7D7"/>
<rect x="112" y="38" width="7.5" height="7.5" fill="#D7D7D7"/>
<rect x="119.5" y="38" width="7.5" height="7.5" fill="#404343"/>
<rect x="14.5" y="45.5" width="7.5" height="7.5" fill="#D7D7D7"/>
<rect x="22" y="45.5" width="7.5" height="7.5" fill="#D7D7D7"/>
<rect x="29.5" y="45.5" width="7.5" height="7.5" fill="#D7D7D7"/>
<rect x="37" y="45.5" width="7.5" height="7.5" fill="#D7D7D7"/>
<rect x="44.5" y="45.5" width="7.5" height="7.5" fill="#D7D7D7"/>
<rect x="52" y="45.5" width="7.5" height="7.5" fill="#D7D7D7"/>
<rect x="59.5" y="45.5" width="7.5" height="7.5" fill="#D7D7D7"/>
<rect x="67" y="45.5" width="7.5" height="7.5" fill="#D7D7D7"/>
<rect x="74.5" y="45.5" width="7.5" height="7.5" fill="#D7D7D7"/>
<rect x="82" y="45.5" width="7.5" height="7.5" fill="#D7D7D7"/>
<rect x="89.5" y="45.5" width="7.5" height="7.5" fill="#D7D7D7"/>
<rect x="97" y="45.5" width="7.5" height="7.5" fill="#D7D7D7"/>
<rect x="104.5" y="45.5" width="7.5" height="7.5" fill="#D7D7D7"/>
<rect x="112" y="45.5" width="7.5" height="7.5" fill="#D7D7D7"/>
<rect x="119.5" y="45.5" width="7.5" height="7.5" fill="#D7D7D7"/>
<rect x="14.5" y="53" width="7.5" height="7.5" fill="#D7D7D7"/>
<rect x="22" y="53" width="7.5" height="7.5" fill="#D7D7D7"/>
<rect x="29.5" y="53" width="7.5" height="7.5" fill="#D7D7D7"/>
<rect x="37" y="53" width="7.5" height="7.5" fill="#D7D7D7"/>
<rect x="44.5" y="53" width="7.5" height="7.5" fill="#D7D7D7"/>
<rect x="52" y="53" width="7.5" height="7.5" fill="#D7D7D7"/>
<rect x="59.5" y="53" width="7.5" height="7.5" fill="#D7D7D7"/>
<rect x="67" y="53" width="7.5" height="7.5" fill="#D7D7D7"/>
<rect x="74.5" y="53" width="7.5" height="7.5" fill="#D7D7D7"/>
<rect x="82" y="53" width="7.5" height="7.5" fill="#D7D7D7"/>
<rect x="89.5" y="53" width="7.5" height="7.5" fill="#D7D7D7"/>
<rect x="97" y="53" width="7.5" height="7.5" fill="#D7D7D7"/>
<rect x="104.5" y="53" width="7.5" height="7.5" fill="#D7D7D7"/>
<rect x="112" y="53" width="7.5" height="7.5" fill="#D7D7D7"/>
<rect x="119.5" y="53" width="7.5" height="7.5" fill="#D7D7D7"/>
<rect x="14.5" y="60.5" width="7.5" height="7.5" fill="#D7D7D7"/>
<rect x="22" y="60.5" width="7.5" height="7.5" fill="#D7D7D7"/>
<rect x="29.5" y="60.5" width="7.5" height="7.5" fill="#D7D7D7"/>
<rect x="37" y="60.5" width="7.5" height="7.5" fill="#D7D7D7"/>
<rect x="44.5" y="60.5" width="7.5" height="7.5" fill="#D7D7D7"/>
<rect x="52" y="60.5" width="7.5" height="7.5" fill="#D7D7D7"/>
<rect x="59.5" y="60.5" width="7.5" height="7.5" fill="#D7D7D7"/>
<rect x="67" y="60.5" width="7.5" height="7.5" fill="#D7D7D7"/>
<rect x="74.5" y="60.5" width="7.5" height="7.5" fill="#D7D7D7"/>
<rect x="82" y="60.5" width="7.5" height="7.5" fill="#D7D7D7"/>
<rect x="89.5" y="60.5" width="7.5" height="7.5" fill="#D7D7D7"/>
<rect x="97" y="60.5" width="7.5" height="7.5" fill="#D7D7D7"/>
<rect x="104.5" y="60.5" width="7.5" height="7.5" fill="#D7D7D7"/>
<rect x="112" y="60.5" width="7.5" height="7.5" fill="#D7D7D7"/>
<rect x="119.5" y="60.5" width="7.5" height="7.5" fill="#D7D7D7"/>
<rect x="14.5" y="68" width="7.5" height="7.5" fill="#D7D7D7"/>
<rect x="22" y="68" width="7.5" height="7.5" fill="#D7D7D7"/>
<rect x="29.5" y="68" width="7.5" height="7.5" fill="#D7D7D7"/>
<rect x="37" y="68" width="7.5" height="7.5" fill="#D7D7D7"/>
<rect x="44.5" y="68" width="7.5" height="7.5" fill="#D7D7D7"/>
<rect x="52" y="68" width="7.5" height="7.5" fill="#D7D7D7"/>
<rect x="59.5" y="68" width="7.5" height="7.5" fill="#D7D7D7"/>
<rect x="67" y="68" width="7.5" height="7.5" fill="#D7D7D7"/>
<rect x="74.5" y="68" width="7.5" height="7.5" fill="#D7D7D7"/>
<rect x="82" y="68" width="7.5" height="7.5" fill="#D7D7D7"/>
<rect x="89.5" y="68" width="7.5" height="7.5" fill="#D7D7D7"/>
<rect x="97" y="68" width="7.5" height="7.5" fill="#D7D7D7"/>
<rect x="104.5" y="68" width="7.5" height="7.5" fill="#D7D7D7"/>
<rect x="112" y="68" width="7.5" height="7.5" fill="#D7D7D7"/>
<rect x="119.5" y="68" width="7.5" height="7.5" fill="#D7D7D7"/>
<rect x="14.5" y="75.5" width="7.5" height="7.5" fill="#D7D7D7"/>
<rect x="22" y="75.5" width="7.5" height="7.5" fill="#D7D7D7"/>
<rect x="29.5" y="75.5" width="7.5" height="7.5" fill="#D7D7D7"/>
<rect x="37" y="75.5" width="7.5" height="7.5" fill="#D7D7D7"/>
<rect x="44.5" y="75.5" width="7.5" height="7.5" fill="#D7D7D7"/>
<rect x="52" y="75.5" width="7.5" height="7.5" fill="#D7D7D7"/>
<rect x="59.5" y="75.5" width="7.5" height="7.5" fill="#D7D7D7"/>
<rect x="67" y="75.5" width="7.5" height="7.5" fill="#D7D7D7"/>
<rect x="74.5" y="75.5" width="7.5" height="7.5" fill="#D7D7D7"/>
<rect x="82" y="75.5" width="7.5" height="7.5" fill="#D7D7D7"/>
<rect x="89.5" y="75.5" width="7.5" height="7.5" fill="#D7D7D7"/>
<rect x="97" y="75.5" width="7.5" height="7.5" fill="#D7D7D7"/>
<rect x="104.5" y="75.5" width="7.5" height="7.5" fill="#D7D7D7"/>
<rect x="112" y="75.5" width="7.5" height="7.5" fill="#D7D7D7"/>
<rect x="119.5" y="75.5" width="7.5" height="7.5" fill="#D7D7D7"/>
<rect x="14.5" y="45.5" width="7.5" height="7.5" fill="#D7D7D7"/>
<rect x="22" y="45.5" width="7.5" height="7.5" fill="#D7D7D7"/>
<rect x="29.5" y="45.5" width="7.5" height="7.5" fill="#D7D7D7"/>
<rect x="37" y="45.5" width="7.5" height="7.5" fill="black"/>
<rect x="44.5" y="45.5" width="7.5" height="7.5" fill="black"/>
<rect x="52" y="45.5" width="7.5" height="7.5" fill="#D7D7D7"/>
<rect x="59.5" y="45.5" width="7.5" height="7.5" fill="#D7D7D7"/>
<rect x="67" y="45.5" width="7.5" height="7.5" fill="black"/>
<rect x="74.5" y="45.5" width="7.5" height="7.5" fill="black"/>
<rect x="82" y="45.5" width="7.5" height="7.5" fill="#D7D7D7"/>
<rect x="89.5" y="45.5" width="7.5" height="7.5" fill="#D7D7D7"/>
<rect x="97" y="45.5" width="7.5" height="7.5" fill="#D7D7D7"/>
<rect x="104.5" y="45.5" width="7.5" height="7.5" fill="#D7D7D7"/>
<rect x="112" y="45.5" width="7.5" height="7.5" fill="#D7D7D7"/>
<rect x="119.5" y="45.5" width="7.5" height="7.5" fill="#404343"/>
<rect x="14.5" y="53" width="7.5" height="7.5" fill="#D7D7D7"/>
<rect x="22" y="53" width="7.5" height="7.5" fill="#D7D7D7"/>
<rect x="29.5" y="53" width="7.5" height="7.5" fill="#D7D7D7"/>
<rect x="37" y="53" width="7.5" height="7.5" fill="black"/>
<rect x="44.5" y="53" width="7.5" height="7.5" fill="black"/>
<rect x="52" y="53" width="7.5" height="7.5" fill="black"/>
<rect x="59.5" y="53" width="7.5" height="7.5" fill="#D7D7D7"/>
<rect x="67" y="53" width="7.5" height="7.5" fill="black"/>
<rect x="74.5" y="53" width="7.5" height="7.5" fill="black"/>
<rect x="82" y="53" width="7.5" height="7.5" fill="black"/>
<rect x="89.5" y="53" width="7.5" height="7.5" fill="#D7D7D7"/>
<rect x="97" y="53" width="7.5" height="7.5" fill="#D7D7D7"/>
<rect x="104.5" y="53" width="7.5" height="7.5" fill="#D7D7D7"/>
<rect x="112" y="53" width="7.5" height="7.5" fill="#D7D7D7"/>
<rect x="119.5" y="53" width="7.5" height="7.5" fill="#404343"/>
<rect x="14.5" y="60.5" width="7.5" height="7.5" fill="#D7D7D7"/>
<rect x="22" y="60.5" width="7.5" height="7.5" fill="#D7D7D7"/>
<rect x="29.5" y="60.5" width="7.5" height="7.5" fill="#D7D7D7"/>
<rect x="37" y="60.5" width="7.5" height="7.5" fill="black"/>
<rect x="44.5" y="60.5" width="7.5" height="7.5" fill="black"/>
<rect x="52" y="60.5" width="7.5" height="7.5" fill="black"/>
<rect x="59.5" y="60.5" width="7.5" height="7.5" fill="black"/>
<rect x="67" y="60.5" width="7.5" height="7.5" fill="black"/>
<rect x="74.5" y="60.5" width="7.5" height="7.5" fill="black"/>
<rect x="82" y="60.5" width="7.5" height="7.5" fill="black"/>
<rect x="89.5" y="60.5" width="7.5" height="7.5" fill="black"/>
<rect x="97" y="60.5" width="7.5" height="7.5" fill="#D7D7D7"/>
<rect x="104.5" y="60.5" width="7.5" height="7.5" fill="#D7D7D7"/>
<rect x="112" y="60.5" width="7.5" height="7.5" fill="#D7D7D7"/>
<rect x="119.5" y="60.5" width="7.5" height="7.5" fill="#404343"/>
<rect x="14.5" y="68" width="7.5" height="7.5" fill="#D7D7D7"/>
<rect x="22" y="68" width="7.5" height="7.5" fill="#D7D7D7"/>
<rect x="29.5" y="68" width="7.5" height="7.5" fill="#D7D7D7"/>
<rect x="37" y="68" width="7.5" height="7.5" fill="black"/>
<rect x="44.5" y="68" width="7.5" height="7.5" fill="black"/>
<rect x="52" y="68" width="7.5" height="7.5" fill="black"/>
<rect x="59.5" y="68" width="7.5" height="7.5" fill="black"/>
<rect x="67" y="68" width="7.5" height="7.5" fill="black"/>
<rect x="74.5" y="68" width="7.5" height="7.5" fill="black"/>
<rect x="82" y="68" width="7.5" height="7.5" fill="black"/>
<rect x="89.5" y="68" width="7.5" height="7.5" fill="black"/>
<rect x="97" y="68" width="7.5" height="7.5" fill="#D7D7D7"/>
<rect x="104.5" y="68" width="7.5" height="7.5" fill="#D7D7D7"/>
<rect x="112" y="68" width="7.5" height="7.5" fill="#D7D7D7"/>
<rect x="119.5" y="68" width="7.5" height="7.5" fill="#404343"/>
<rect x="14.5" y="75.5" width="7.5" height="7.5" fill="#D7D7D7"/>
<rect x="22" y="75.5" width="7.5" height="7.5" fill="#D7D7D7"/>
<rect x="29.5" y="75.5" width="7.5" height="7.5" fill="#D7D7D7"/>
<rect x="37" y="75.5" width="7.5" height="7.5" fill="black"/>
<rect x="44.5" y="75.5" width="7.5" height="7.5" fill="black"/>
<rect x="52" y="75.5" width="7.5" height="7.5" fill="black"/>
<rect x="59.5" y="75.5" width="7.5" height="7.5" fill="#D7D7D7"/>
<rect x="67" y="75.5" width="7.5" height="7.5" fill="black"/>
<rect x="74.5" y="75.5" width="7.5" height="7.5" fill="black"/>
<rect x="82" y="75.5" width="7.5" height="7.5" fill="black"/>
<rect x="89.5" y="75.5" width="7.5" height="7.5" fill="#D7D7D7"/>
<rect x="97" y="75.5" width="7.5" height="7.5" fill="#D7D7D7"/>
<rect x="104.5" y="75.5" width="7.5" height="7.5" fill="#D7D7D7"/>
<rect x="112" y="75.5" width="7.5" height="7.5" fill="#D7D7D7"/>
<rect x="119.5" y="75.5" width="7.5" height="7.5" fill="#404343"/>
<rect x="14.5" y="83" width="7.5" height="7.5" fill="#D7D7D7"/>
<rect x="22" y="83" width="7.5" height="7.5" fill="#D7D7D7"/>
<rect x="29.5" y="83" width="7.5" height="7.5" fill="#D7D7D7"/>
<rect x="37" y="83" width="7.5" height="7.5" fill="#D7D7D7"/>
<rect x="44.5" y="83" width="7.5" height="7.5" fill="#D7D7D7"/>
<rect x="52" y="83" width="7.5" height="7.5" fill="#D7D7D7"/>
<rect x="59.5" y="83" width="7.5" height="7.5" fill="#D7D7D7"/>
<rect x="67" y="83" width="7.5" height="7.5" fill="#D7D7D7"/>
<rect x="74.5" y="83" width="7.5" height="7.5" fill="#D7D7D7"/>
<rect x="82" y="83" width="7.5" height="7.5" fill="#D7D7D7"/>
<rect x="89.5" y="83" width="7.5" height="7.5" fill="#D7D7D7"/>
<rect x="97" y="83" width="7.5" height="7.5" fill="#D7D7D7"/>
<rect x="104.5" y="83" width="7.5" height="7.5" fill="#D7D7D7"/>
<rect x="112" y="83" width="7.5" height="7.5" fill="#D7D7D7"/>
<rect x="119.5" y="83" width="7.5" height="7.5" fill="#D7D7D7"/>
<rect x="14.5" y="90.5" width="7.5" height="7.5" fill="#D7D7D7"/>
<rect x="22" y="90.5" width="7.5" height="7.5" fill="#D7D7D7"/>
<rect x="29.5" y="90.5" width="7.5" height="7.5" fill="#D7D7D7"/>
<rect x="37" y="90.5" width="7.5" height="7.5" fill="#D7D7D7"/>
<rect x="44.5" y="90.5" width="7.5" height="7.5" fill="#D7D7D7"/>
<rect x="52" y="90.5" width="7.5" height="7.5" fill="#D7D7D7"/>
<rect x="59.5" y="90.5" width="7.5" height="7.5" fill="#D7D7D7"/>
<rect x="67" y="90.5" width="7.5" height="7.5" fill="#D7D7D7"/>
<rect x="74.5" y="90.5" width="7.5" height="7.5" fill="#D7D7D7"/>
<rect x="82" y="90.5" width="7.5" height="7.5" fill="#D7D7D7"/>
<rect x="89.5" y="90.5" width="7.5" height="7.5" fill="#D7D7D7"/>
<rect x="97" y="90.5" width="7.5" height="7.5" fill="#D7D7D7"/>
<rect x="104.5" y="90.5" width="7.5" height="7.5" fill="#D7D7D7"/>
<rect x="112" y="90.5" width="7.5" height="7.5" fill="#D7D7D7"/>
<rect x="119.5" y="90.5" width="7.5" height="7.5" fill="#D7D7D7"/>
<rect x="14.5" y="98" width="7.5" height="7.5" fill="#D7D7D7"/>
<rect x="22" y="98" width="7.5" height="7.5" fill="#D7D7D7"/>
<rect x="29.5" y="98" width="7.5" height="7.5" fill="#D7D7D7"/>
<rect x="37" y="98" width="7.5" height="7.5" fill="#D7D7D7"/>
<rect x="44.5" y="98" width="7.5" height="7.5" fill="#D7D7D7"/>
<rect x="52" y="98" width="7.5" height="7.5" fill="#D7D7D7"/>
<rect x="59.5" y="98" width="7.5" height="7.5" fill="#D7D7D7"/>
<rect x="67" y="98" width="7.5" height="7.5" fill="#D7D7D7"/>
<rect x="74.5" y="98" width="7.5" height="7.5" fill="#D7D7D7"/>
<rect x="82" y="98" width="7.5" height="7.5" fill="#D7D7D7"/>
<rect x="89.5" y="98" width="7.5" height="7.5" fill="#D7D7D7"/>
<rect x="97" y="98" width="7.5" height="7.5" fill="#D7D7D7"/>
<rect x="104.5" y="98" width="7.5" height="7.5" fill="#D7D7D7"/>
<rect x="112" y="98" width="7.5" height="7.5" fill="#D7D7D7"/>
<rect x="119.5" y="98" width="7.5" height="7.5" fill="#D7D7D7"/>
<rect x="14.5" y="105.5" width="7.5" height="7.5" fill="#D7D7D7"/>
<rect x="22" y="105.5" width="7.5" height="7.5" fill="#D7D7D7"/>
<rect x="29.5" y="105.5" width="7.5" height="7.5" fill="#D7D7D7"/>
<rect x="37" y="105.5" width="7.5" height="7.5" fill="#D7D7D7"/>
<rect x="44.5" y="105.5" width="7.5" height="7.5" fill="#D7D7D7"/>
<rect x="52" y="105.5" width="7.5" height="7.5" fill="#D7D7D7"/>
<rect x="59.5" y="105.5" width="7.5" height="7.5" fill="#D7D7D7"/>
<rect x="67" y="105.5" width="7.5" height="7.5" fill="#D7D7D7"/>
<rect x="74.5" y="105.5" width="7.5" height="7.5" fill="#D7D7D7"/>
<rect x="82" y="105.5" width="7.5" height="7.5" fill="#D7D7D7"/>
<rect x="89.5" y="105.5" width="7.5" height="7.5" fill="#D7D7D7"/>
<rect x="97" y="105.5" width="7.5" height="7.5" fill="#D7D7D7"/>
<rect x="104.5" y="105.5" width="7.5" height="7.5" fill="#D7D7D7"/>
<rect x="112" y="105.5" width="7.5" height="7.5" fill="#D7D7D7"/>
<rect x="119.5" y="105.5" width="7.5" height="7.5" fill="#D7D7D7"/>
<rect x="14.5" y="113" width="7.5" height="7.5" fill="#D7D7D7"/>
<rect x="22" y="113" width="7.5" height="7.5" fill="#D7D7D7"/>
<rect x="29.5" y="113" width="7.5" height="7.5" fill="#D7D7D7"/>
<rect x="37" y="113" width="7.5" height="7.5" fill="#D7D7D7"/>
<rect x="44.5" y="113" width="7.5" height="7.5" fill="#D7D7D7"/>
<rect x="52" y="113" width="7.5" height="7.5" fill="#D7D7D7"/>
<rect x="59.5" y="113" width="7.5" height="7.5" fill="#D7D7D7"/>
<rect x="67" y="113" width="7.5" height="7.5" fill="#D7D7D7"/>
<rect x="74.5" y="113" width="7.5" height="7.5" fill="#D7D7D7"/>
<rect x="82" y="113" width="7.5" height="7.5" fill="#D7D7D7"/>
<rect x="89.5" y="113" width="7.5" height="7.5" fill="#D7D7D7"/>
<rect x="97" y="113" width="7.5" height="7.5" fill="#D7D7D7"/>
<rect x="104.5" y="113" width="7.5" height="7.5" fill="#D7D7D7"/>
<rect x="112" y="113" width="7.5" height="7.5" fill="#D7D7D7"/>
<rect x="119.5" y="113" width="7.5" height="7.5" fill="#D7D7D7"/>
<rect x="14.5" y="83" width="7.5" height="7.5" fill="#D7D7D7"/>
<rect x="22" y="83" width="7.5" height="7.5" fill="#D7D7D7"/>
<rect x="29.5" y="83" width="7.5" height="7.5" fill="#D7D7D7"/>
<rect x="37" y="83" width="7.5" height="7.5" fill="black"/>
<rect x="44.5" y="83" width="7.5" height="7.5" fill="black"/>
<rect x="52" y="83" width="7.5" height="7.5" fill="#D7D7D7"/>
<rect x="59.5" y="83" width="7.5" height="7.5" fill="#D7D7D7"/>
<rect x="67" y="83" width="7.5" height="7.5" fill="black"/>
<rect x="74.5" y="83" width="7.5" height="7.5" fill="black"/>
<rect x="82" y="83" width="7.5" height="7.5" fill="#D7D7D7"/>
<rect x="89.5" y="83" width="7.5" height="7.5" fill="#D7D7D7"/>
<rect x="97" y="83" width="7.5" height="7.5" fill="#D7D7D7"/>
<rect x="104.5" y="83" width="7.5" height="7.5" fill="#D7D7D7"/>
<rect x="112" y="83" width="7.5" height="7.5" fill="#D7D7D7"/>
<rect x="119.5" y="83" width="7.5" height="7.5" fill="#404343"/>
<rect x="14.5" y="90.5" width="7.5" height="7.5" fill="#D7D7D7"/>
<rect x="22" y="90.5" width="7.5" height="7.5" fill="#D7D7D7"/>
<rect x="29.5" y="90.5" width="7.5" height="7.5" fill="#D7D7D7"/>
<rect x="37" y="90.5" width="7.5" height="7.5" fill="black"/>
<rect x="44.5" y="90.5" width="7.5" height="7.5" fill="#D7D7D7"/>
<rect x="52" y="90.5" width="7.5" height="7.5" fill="#D7D7D7"/>
<rect x="59.5" y="90.5" width="7.5" height="7.5" fill="#D7D7D7"/>
<rect x="67" y="90.5" width="7.5" height="7.5" fill="black"/>
<rect x="74.5" y="90.5" width="7.5" height="7.5" fill="#D7D7D7"/>
<rect x="82" y="90.5" width="7.5" height="7.5" fill="#D7D7D7"/>
<rect x="89.5" y="90.5" width="7.5" height="7.5" fill="#D7D7D7"/>
<rect x="97" y="90.5" width="7.5" height="7.5" fill="#D7D7D7"/>
<rect x="104.5" y="90.5" width="7.5" height="7.5" fill="#D7D7D7"/>
<rect x="112" y="90.5" width="7.5" height="7.5" fill="#D7D7D7"/>
<rect x="119.5" y="90.5" width="7.5" height="7.5" fill="#404343"/>
<rect x="14.5" y="98" width="7.5" height="7.5" fill="#D7D7D7"/>
<rect x="22" y="98" width="7.5" height="7.5" fill="#D7D7D7"/>
<rect x="29.5" y="98" width="7.5" height="7.5" fill="#D7D7D7"/>
<rect x="37" y="98" width="7.5" height="7.5" fill="#D7D7D7"/>
<rect x="44.5" y="98" width="7.5" height="7.5" fill="#D7D7D7"/>
<rect x="52" y="98" width="7.5" height="7.5" fill="#D7D7D7"/>
<rect x="59.5" y="98" width="7.5" height="7.5" fill="#D7D7D7"/>
<rect x="67" y="98" width="7.5" height="7.5" fill="#D7D7D7"/>
<rect x="74.5" y="98" width="7.5" height="7.5" fill="#D7D7D7"/>
<rect x="82" y="98" width="7.5" height="7.5" fill="#D7D7D7"/>
<rect x="89.5" y="98" width="7.5" height="7.5" fill="#D7D7D7"/>
<rect x="97" y="98" width="7.5" height="7.5" fill="#D7D7D7"/>
<rect x="104.5" y="98" width="7.5" height="7.5" fill="white"/>
<rect x="112" y="98" width="7.5" height="7.5" fill="#D7D7D7"/>
<rect x="119.5" y="98" width="7.5" height="7.5" fill="#404343"/>
<rect x="14.5" y="105.5" width="7.5" height="7.5" fill="#D7D7D7"/>
<rect x="22" y="105.5" width="7.5" height="7.5" fill="#999999"/>
<rect x="29.5" y="105.5" width="7.5" height="7.5" fill="#D7D7D7"/>
<rect x="37" y="105.5" width="7.5" height="7.5" fill="#D7D7D7"/>
<rect x="44.5" y="105.5" width="7.5" height="7.5" fill="#D7D7D7"/>
<rect x="52" y="105.5" width="7.5" height="7.5" fill="#D7D7D7"/>
<rect x="59.5" y="105.5" width="7.5" height="7.5" fill="#D7D7D7"/>
<rect x="67" y="105.5" width="7.5" height="7.5" fill="#D7D7D7"/>
<rect x="74.5" y="105.5" width="7.5" height="7.5" fill="#D7D7D7"/>
<rect x="82" y="105.5" width="7.5" height="7.5" fill="#D7D7D7"/>
<rect x="89.5" y="105.5" width="7.5" height="7.5" fill="#D7D7D7"/>
<rect x="97" y="105.5" width="7.5" height="7.5" fill="white"/>
<rect x="104.5" y="105.5" width="7.5" height="7.5" fill="#999999"/>
<rect x="112" y="105.5" width="7.5" height="7.5" fill="#D7D7D7"/>
<rect x="119.5" y="105.5" width="7.5" height="7.5" fill="#404343"/>
<rect x="14.5" y="113" width="7.5" height="7.5" fill="#404343"/>
<rect x="22" y="113" width="7.5" height="7.5" fill="#999999"/>
<rect x="29.5" y="113" width="7.5" height="7.5" fill="#999999"/>
<rect x="37" y="113" width="7.5" height="7.5" fill="#999999"/>
<rect x="44.5" y="113" width="7.5" height="7.5" fill="#999999"/>
<rect x="52" y="113" width="7.5" height="7.5" fill="#999999"/>
<rect x="59.5" y="113" width="7.5" height="7.5" fill="#999999"/>
<rect x="67" y="113" width="7.5" height="7.5" fill="#999999"/>
<rect x="74.5" y="113" width="7.5" height="7.5" fill="#999999"/>
<rect x="82" y="113" width="7.5" height="7.5" fill="#999999"/>
<rect x="89.5" y="113" width="7.5" height="7.5" fill="#999999"/>
<rect x="97" y="113" width="7.5" height="7.5" fill="#999999"/>
<rect x="104.5" y="113" width="7.5" height="7.5" fill="#999999"/>
<rect x="22" y="15.5" width="7.5" height="7.5" transform="rotate(90 22 15.5)" fill="#999999"/>
<rect x="22" y="23" width="7.5" height="7.5" transform="rotate(90 22 23)" fill="#999999"/>
<rect x="22" y="30.5" width="7.5" height="7.5" transform="rotate(90 22 30.5)" fill="#999999"/>
<rect x="22" y="38" width="7.5" height="7.5" transform="rotate(90 22 38)" fill="#999999"/>
<rect x="22" y="45.5" width="7.5" height="7.5" transform="rotate(90 22 45.5)" fill="#999999"/>
<rect x="22" y="53" width="7.5" height="7.5" transform="rotate(90 22 53)" fill="#999999"/>
<rect x="22" y="60.5" width="7.5" height="7.5" transform="rotate(90 22 60.5)" fill="#999999"/>
<rect x="22" y="68" width="7.5" height="7.5" transform="rotate(90 22 68)" fill="#999999"/>
<rect x="22" y="75.5" width="7.5" height="7.5" transform="rotate(90 22 75.5)" fill="#999999"/>
<rect x="22" y="83" width="7.5" height="7.5" transform="rotate(90 22 83)" fill="#999999"/>
<rect x="22" y="90.5" width="7.5" height="7.5" transform="rotate(90 22 90.5)" fill="#999999"/>
<rect x="22" y="98" width="7.5" height="7.5" transform="rotate(90 22 98)" fill="#999999"/>
<rect x="22" y="105.5" width="7.5" height="7.5" transform="rotate(90 22 105.5)" fill="#999999"/>
<rect x="119.5" y="15.5" width="7.5" height="7.5" transform="rotate(90 119.5 15.5)" fill="#404343"/>
<rect x="119.5" y="23" width="7.5" height="7.5" transform="rotate(90 119.5 23)" fill="#999999"/>
<rect x="119.5" y="30.5" width="7.5" height="7.5" transform="rotate(90 119.5 30.5)" fill="#999999"/>
<rect x="119.5" y="38" width="7.5" height="7.5" transform="rotate(90 119.5 38)" fill="#999999"/>
<rect x="119.5" y="45.5" width="7.5" height="7.5" transform="rotate(90 119.5 45.5)" fill="#999999"/>
<rect x="119.5" y="53" width="7.5" height="7.5" transform="rotate(90 119.5 53)" fill="#999999"/>
<rect x="119.5" y="60.5" width="7.5" height="7.5" transform="rotate(90 119.5 60.5)" fill="#999999"/>
<rect x="119.5" y="68" width="7.5" height="7.5" transform="rotate(90 119.5 68)" fill="#999999"/>
<rect x="119.5" y="75.5" width="7.5" height="7.5" transform="rotate(90 119.5 75.5)" fill="#999999"/>
<rect x="119.5" y="83" width="7.5" height="7.5" transform="rotate(90 119.5 83)" fill="#999999"/>
<rect x="119.5" y="90.5" width="7.5" height="7.5" transform="rotate(90 119.5 90.5)" fill="#999999"/>
<rect x="119.5" y="98" width="7.5" height="7.5" transform="rotate(90 119.5 98)" fill="#999999"/>
<rect x="119.5" y="105.5" width="7.5" height="7.5" transform="rotate(90 119.5 105.5)" fill="#999999"/>
<rect x="112" y="23" width="7.5" height="7.5" transform="rotate(180 112 23)" fill="#999999"/>
<rect x="104.5" y="23" width="7.5" height="7.5" transform="rotate(180 104.5 23)" fill="#999999"/>
<rect x="97" y="23" width="7.5" height="7.5" transform="rotate(180 97 23)" fill="#999999"/>
<rect x="89.5" y="23" width="7.5" height="7.5" transform="rotate(180 89.5 23)" fill="#999999"/>
<rect x="82" y="23" width="7.5" height="7.5" transform="rotate(180 82 23)" fill="#999999"/>
<rect x="74.5" y="23" width="7.5" height="7.5" transform="rotate(180 74.5 23)" fill="#999999"/>
<rect x="67" y="23" width="7.5" height="7.5" transform="rotate(180 67 23)" fill="#999999"/>
<rect x="59.5" y="23" width="7.5" height="7.5" transform="rotate(180 59.5 23)" fill="#999999"/>
<rect x="52" y="23" width="7.5" height="7.5" transform="rotate(180 52 23)" fill="#999999"/>
<rect x="44.5" y="23" width="7.5" height="7.5" transform="rotate(180 44.5 23)" fill="#999999"/>
<rect x="37" y="23" width="7.5" height="7.5" transform="rotate(180 37 23)" fill="#999999"/>
<rect x="29.5" y="23" width="7.5" height="7.5" transform="rotate(180 29.5 23)" fill="#999999"/>
<rect x="22" y="23" width="7.5" height="7.5" transform="rotate(180 22 23)" fill="#404343"/>
<rect x="112" y="113" width="7.5" height="7.5" fill="#404343"/>
<rect x="119.5" y="113" width="7.5" height="7.5" fill="#404343"/>
<rect x="119.5" y="8" width="7.5" height="7.5" transform="rotate(90 119.5 8)" fill="#404343"/>
<rect x="112" y="8" width="7.5" height="7.5" transform="rotate(90 112 8)" fill="#404343"/>
<rect x="104.5" y="8" width="7.5" height="7.5" transform="rotate(90 104.5 8)" fill="#404343"/>
<rect x="97" y="8" width="7.5" height="7.5" transform="rotate(90 97 8)" fill="#404343"/>
<rect x="89.5" y="8" width="7.5" height="7.5" transform="rotate(90 89.5 8)" fill="#404343"/>
<rect x="82" y="8" width="7.5" height="7.5" transform="rotate(90 82 8)" fill="#404343"/>
<rect x="74.5" y="8" width="7.5" height="7.5" transform="rotate(90 74.5 8)" fill="#404343"/>
<rect x="67" y="8" width="7.5" height="7.5" transform="rotate(90 67 8)" fill="#404343"/>
<rect x="59.5" y="8" width="7.5" height="7.5" transform="rotate(90 59.5 8)" fill="#404343"/>
<rect x="52" y="8" width="7.5" height="7.5" transform="rotate(90 52 8)" fill="#404343"/>
<rect x="44.5" y="8" width="7.5" height="7.5" transform="rotate(90 44.5 8)" fill="#404343"/>
<rect x="37" y="8" width="7.5" height="7.5" transform="rotate(90 37 8)" fill="#404343"/>
<rect x="29.5" y="8" width="7.5" height="7.5" transform="rotate(90 29.5 8)" fill="#404343"/>
<rect x="22" y="8" width="7.5" height="7.5" transform="rotate(90 22 8)" fill="#404343"/>
<rect x="7" y="15.5" width="7.5" height="7.5" fill="#404343"/>
<rect x="7" y="23" width="7.5" height="7.5" fill="#404343"/>
<rect x="7" y="30.5" width="7.5" height="7.5" fill="#404343"/>
<rect x="7" y="38" width="7.5" height="7.5" fill="#404343"/>
<rect x="7" y="45.5" width="7.5" height="7.5" fill="#404343"/>
<rect x="7" y="53" width="7.5" height="7.5" fill="#404343"/>
<rect x="7" y="60.5" width="7.5" height="7.5" fill="#404343"/>
<rect x="7" y="68" width="7.5" height="7.5" fill="#404343"/>
<rect x="7" y="75.5" width="7.5" height="7.5" fill="#404343"/>
<rect x="7" y="83" width="7.5" height="7.5" fill="#404343"/>
<rect x="7" y="90.5" width="7.5" height="7.5" fill="#404343"/>
<rect x="7" y="98" width="7.5" height="7.5" fill="#404343"/>
<rect x="7" y="105.5" width="7.5" height="7.5" fill="#404343"/>
<rect x="7" y="113" width="7.5" height="7.5" fill="#404343"/>
<rect x="119.5" y="120.5" width="7.5" height="7.5" transform="rotate(90 119.5 120.5)" fill="#404343"/>
<rect x="112" y="120.5" width="7.5" height="7.5" transform="rotate(90 112 120.5)" fill="#404343"/>
<rect x="104.5" y="120.5" width="7.5" height="7.5" transform="rotate(90 104.5 120.5)" fill="#404343"/>
<rect x="97" y="120.5" width="7.5" height="7.5" transform="rotate(90 97 120.5)" fill="#404343"/>
<rect x="89.5" y="120.5" width="7.5" height="7.5" transform="rotate(90 89.5 120.5)" fill="#404343"/>
<rect x="82" y="120.5" width="7.5" height="7.5" transform="rotate(90 82 120.5)" fill="#404343"/>
<rect x="74.5" y="120.5" width="7.5" height="7.5" transform="rotate(90 74.5 120.5)" fill="#404343"/>
<rect x="67" y="120.5" width="7.5" height="7.5" transform="rotate(90 67 120.5)" fill="#404343"/>
<rect x="59.5" y="120.5" width="7.5" height="7.5" transform="rotate(90 59.5 120.5)" fill="#404343"/>
<rect x="52" y="120.5" width="7.5" height="7.5" transform="rotate(90 52 120.5)" fill="#404343"/>
<rect x="44.5" y="120.5" width="7.5" height="7.5" transform="rotate(90 44.5 120.5)" fill="#404343"/>
<rect x="37" y="120.5" width="7.5" height="7.5" transform="rotate(90 37 120.5)" fill="#404343"/>
<rect x="29.5" y="120.5" width="7.5" height="7.5" transform="rotate(90 29.5 120.5)" fill="#404343"/>
<rect x="22" y="120.5" width="7.5" height="7.5" transform="rotate(90 22 120.5)" fill="#404343"/>
</svg>
