<svg width="135" height="135" viewBox="0 0 135 135" fill="none" xmlns="http://www.w3.org/2000/svg">
<rect x="135" y="135" width="135" height="135" transform="rotate(180 135 135)" fill="black"/>
<rect x="15.5" y="15.5" width="7.5" height="7.5" fill="#D7D7D7"/>
<rect x="23" y="15.5" width="7.5" height="7.5" fill="#D7D7D7"/>
<rect x="30.5" y="15.5" width="7.5" height="7.5" fill="#D7D7D7"/>
<rect x="38" y="15.5" width="7.5" height="7.5" fill="#D7D7D7"/>
<rect x="45.5" y="15.5" width="7.5" height="7.5" fill="#D7D7D7"/>
<rect x="53" y="15.5" width="7.5" height="7.5" fill="#D7D7D7"/>
<rect x="60.5" y="15.5" width="7.5" height="7.5" fill="#D7D7D7"/>
<rect x="68" y="15.5" width="7.5" height="7.5" fill="#D7D7D7"/>
<rect x="75.5" y="15.5" width="7.5" height="7.5" fill="#D7D7D7"/>
<rect x="83" y="15.5" width="7.5" height="7.5" fill="#D7D7D7"/>
<rect x="90.5" y="15.5" width="7.5" height="7.5" fill="#D7D7D7"/>
<rect x="98" y="15.5" width="7.5" height="7.5" fill="#D7D7D7"/>
<rect x="105.5" y="15.5" width="7.5" height="7.5" fill="#D7D7D7"/>
<rect x="113" y="15.5" width="7.5" height="7.5" fill="#D7D7D7"/>
<rect x="120.5" y="15.5" width="7.5" height="7.5" fill="#D7D7D7"/>
<rect x="15.5" y="23" width="7.5" height="7.5" fill="#D7D7D7"/>
<rect x="23" y="23" width="7.5" height="7.5" fill="#D7D7D7"/>
<rect x="30.5" y="23" width="7.5" height="7.5" fill="#D7D7D7"/>
<rect x="38" y="23" width="7.5" height="7.5" fill="#D7D7D7"/>
<rect x="45.5" y="23" width="7.5" height="7.5" fill="#D7D7D7"/>
<rect x="53" y="23" width="7.5" height="7.5" fill="#D7D7D7"/>
<rect x="60.5" y="23" width="7.5" height="7.5" fill="#D7D7D7"/>
<rect x="68" y="23" width="7.5" height="7.5" fill="#D7D7D7"/>
<rect x="75.5" y="23" width="7.5" height="7.5" fill="#D7D7D7"/>
<rect x="83" y="23" width="7.5" height="7.5" fill="#D7D7D7"/>
<rect x="90.5" y="23" width="7.5" height="7.5" fill="#D7D7D7"/>
<rect x="98" y="23" width="7.5" height="7.5" fill="#D7D7D7"/>
<rect x="105.5" y="23" width="7.5" height="7.5" fill="#D7D7D7"/>
<rect x="113" y="23" width="7.5" height="7.5" fill="#D7D7D7"/>
<rect x="120.5" y="23" width="7.5" height="7.5" fill="#D7D7D7"/>
<rect x="15.5" y="30.5" width="7.5" height="7.5" fill="#D7D7D7"/>
<rect x="23" y="30.5" width="7.5" height="7.5" fill="#D7D7D7"/>
<rect x="30.5" y="30.5" width="7.5" height="7.5" fill="#D7D7D7"/>
<rect x="38" y="30.5" width="7.5" height="7.5" fill="#D7D7D7"/>
<rect x="45.5" y="30.5" width="7.5" height="7.5" fill="#D7D7D7"/>
<rect x="53" y="30.5" width="7.5" height="7.5" fill="#D7D7D7"/>
<rect x="60.5" y="30.5" width="7.5" height="7.5" fill="#D7D7D7"/>
<rect x="68" y="30.5" width="7.5" height="7.5" fill="#D7D7D7"/>
<rect x="75.5" y="30.5" width="7.5" height="7.5" fill="#D7D7D7"/>
<rect x="83" y="30.5" width="7.5" height="7.5" fill="#D7D7D7"/>
<rect x="90.5" y="30.5" width="7.5" height="7.5" fill="#D7D7D7"/>
<rect x="98" y="30.5" width="7.5" height="7.5" fill="#D7D7D7"/>
<rect x="105.5" y="30.5" width="7.5" height="7.5" fill="#D7D7D7"/>
<rect x="113" y="30.5" width="7.5" height="7.5" fill="#D7D7D7"/>
<rect x="120.5" y="30.5" width="7.5" height="7.5" fill="#D7D7D7"/>
<rect x="15.5" y="38" width="7.5" height="7.5" fill="#D7D7D7"/>
<rect x="23" y="38" width="7.5" height="7.5" fill="#D7D7D7"/>
<rect x="30.5" y="38" width="7.5" height="7.5" fill="#D7D7D7"/>
<rect x="38" y="38" width="7.5" height="7.5" fill="#D7D7D7"/>
<rect x="45.5" y="38" width="7.5" height="7.5" fill="#D7D7D7"/>
<rect x="53" y="38" width="7.5" height="7.5" fill="#D7D7D7"/>
<rect x="60.5" y="38" width="7.5" height="7.5" fill="#D7D7D7"/>
<rect x="68" y="38" width="7.5" height="7.5" fill="#D7D7D7"/>
<rect x="75.5" y="38" width="7.5" height="7.5" fill="#D7D7D7"/>
<rect x="83" y="38" width="7.5" height="7.5" fill="#D7D7D7"/>
<rect x="90.5" y="38" width="7.5" height="7.5" fill="#D7D7D7"/>
<rect x="98" y="38" width="7.5" height="7.5" fill="#D7D7D7"/>
<rect x="105.5" y="38" width="7.5" height="7.5" fill="#D7D7D7"/>
<rect x="113" y="38" width="7.5" height="7.5" fill="#D7D7D7"/>
<rect x="120.5" y="38" width="7.5" height="7.5" fill="#D7D7D7"/>
<rect x="15.5" y="15.5" width="7.5" height="7.5" fill="#D7D7D7"/>
<rect x="23" y="15.5" width="7.5" height="7.5" fill="#D7D7D7"/>
<rect x="30.5" y="15.5" width="7.5" height="7.5" fill="#D7D7D7"/>
<rect x="38" y="15.5" width="7.5" height="7.5" fill="#D7D7D7"/>
<rect x="45.5" y="15.5" width="7.5" height="7.5" fill="#D7D7D7"/>
<rect x="53" y="15.5" width="7.5" height="7.5" fill="#D7D7D7"/>
<rect x="60.5" y="15.5" width="7.5" height="7.5" fill="#D7D7D7"/>
<rect x="68" y="15.5" width="7.5" height="7.5" fill="#D7D7D7"/>
<rect x="75.5" y="15.5" width="7.5" height="7.5" fill="#D7D7D7"/>
<rect x="83" y="15.5" width="7.5" height="7.5" fill="#D7D7D7"/>
<rect x="90.5" y="15.5" width="7.5" height="7.5" fill="#D7D7D7"/>
<rect x="98" y="15.5" width="7.5" height="7.5" fill="#D7D7D7"/>
<rect x="105.5" y="15.5" width="7.5" height="7.5" fill="#D7D7D7"/>
<rect x="113" y="15.5" width="7.5" height="7.5" fill="#D7D7D7"/>
<rect x="120.5" y="15.5" width="7.5" height="7.5" fill="#404343"/>
<rect x="15.5" y="23" width="7.5" height="7.5" fill="#D7D7D7"/>
<rect x="23" y="23" width="7.5" height="7.5" fill="#999999"/>
<rect x="30.5" y="23" width="7.5" height="7.5" fill="#FAFAFA"/>
<rect x="38" y="23" width="7.5" height="7.5" fill="#D7D7D7"/>
<rect x="45.5" y="23" width="7.5" height="7.5" fill="#D7D7D7"/>
<rect x="53" y="23" width="7.5" height="7.5" fill="#D7D7D7"/>
<rect x="60.5" y="23" width="7.5" height="7.5" fill="#D7D7D7"/>
<rect x="68" y="23" width="7.5" height="7.5" fill="#D7D7D7"/>
<rect x="75.5" y="23" width="7.5" height="7.5" fill="#D7D7D7"/>
<rect x="83" y="23" width="7.5" height="7.5" fill="#D7D7D7"/>
<rect x="90.5" y="23" width="7.5" height="7.5" fill="#D7D7D7"/>
<rect x="98" y="23" width="7.5" height="7.5" fill="#D7D7D7"/>
<rect x="105.5" y="23" width="7.5" height="7.5" fill="#999999"/>
<rect x="113" y="23" width="7.5" height="7.5" fill="#D7D7D7"/>
<rect x="120.5" y="23" width="7.5" height="7.5" fill="#404343"/>
<rect x="15.5" y="30.5" width="7.5" height="7.5" fill="#D7D7D7"/>
<rect x="23" y="30.5" width="7.5" height="7.5" fill="white"/>
<rect x="30.5" y="30.5" width="7.5" height="7.5" fill="#D7D7D7"/>
<rect x="38" y="30.5" width="7.5" height="7.5" fill="#D7D7D7"/>
<rect x="45.5" y="30.5" width="7.5" height="7.5" fill="#D7D7D7"/>
<rect x="53" y="30.5" width="7.5" height="7.5" fill="#D7D7D7"/>
<rect x="60.5" y="30.5" width="7.5" height="7.5" fill="#D7D7D7"/>
<rect x="68" y="30.5" width="7.5" height="7.5" fill="#D7D7D7"/>
<rect x="75.5" y="30.5" width="7.5" height="7.5" fill="#D7D7D7"/>
<rect x="83" y="30.5" width="7.5" height="7.5" fill="#D7D7D7"/>
<rect x="90.5" y="30.5" width="7.5" height="7.5" fill="#D7D7D7"/>
<rect x="98" y="30.5" width="7.5" height="7.5" fill="#D7D7D7"/>
<rect x="105.5" y="30.5" width="7.5" height="7.5" fill="#D7D7D7"/>
<rect x="113" y="30.5" width="7.5" height="7.5" fill="#D7D7D7"/>
<rect x="120.5" y="30.5" width="7.5" height="7.5" fill="#404343"/>
<rect x="15.5" y="38" width="7.5" height="7.5" fill="#D7D7D7"/>
<rect x="23" y="38" width="7.5" height="7.5" fill="white"/>
<rect x="30.5" y="38" width="7.5" height="7.5" fill="#D7D7D7"/>
<rect x="38" y="38" width="7.5" height="7.5" fill="#D7D7D7"/>
<rect x="45.5" y="38" width="7.5" height="7.5" fill="black"/>
<rect x="53" y="38" width="7.5" height="7.5" fill="black"/>
<rect x="60.5" y="38" width="7.5" height="7.5" fill="#D7D7D7"/>
<rect x="68" y="38" width="7.5" height="7.5" fill="#D7D7D7"/>
<rect x="75.5" y="38" width="7.5" height="7.5" fill="black"/>
<rect x="83" y="38" width="7.5" height="7.5" fill="black"/>
<rect x="90.5" y="38" width="7.5" height="7.5" fill="#D7D7D7"/>
<rect x="98" y="38" width="7.5" height="7.5" fill="#D7D7D7"/>
<rect x="105.5" y="38" width="7.5" height="7.5" fill="#D7D7D7"/>
<rect x="113" y="38" width="7.5" height="7.5" fill="#D7D7D7"/>
<rect x="120.5" y="38" width="7.5" height="7.5" fill="#404343"/>
<rect x="15.5" y="45.5" width="7.5" height="7.5" fill="#D7D7D7"/>
<rect x="23" y="45.5" width="7.5" height="7.5" fill="#D7D7D7"/>
<rect x="30.5" y="45.5" width="7.5" height="7.5" fill="#D7D7D7"/>
<rect x="38" y="45.5" width="7.5" height="7.5" fill="#D7D7D7"/>
<rect x="45.5" y="45.5" width="7.5" height="7.5" fill="#D7D7D7"/>
<rect x="53" y="45.5" width="7.5" height="7.5" fill="#D7D7D7"/>
<rect x="60.5" y="45.5" width="7.5" height="7.5" fill="#D7D7D7"/>
<rect x="68" y="45.5" width="7.5" height="7.5" fill="#D7D7D7"/>
<rect x="75.5" y="45.5" width="7.5" height="7.5" fill="#D7D7D7"/>
<rect x="83" y="45.5" width="7.5" height="7.5" fill="#D7D7D7"/>
<rect x="90.5" y="45.5" width="7.5" height="7.5" fill="#D7D7D7"/>
<rect x="98" y="45.5" width="7.5" height="7.5" fill="#D7D7D7"/>
<rect x="105.5" y="45.5" width="7.5" height="7.5" fill="#D7D7D7"/>
<rect x="113" y="45.5" width="7.5" height="7.5" fill="#D7D7D7"/>
<rect x="120.5" y="45.5" width="7.5" height="7.5" fill="#D7D7D7"/>
<rect x="15.5" y="53" width="7.5" height="7.5" fill="#D7D7D7"/>
<rect x="23" y="53" width="7.5" height="7.5" fill="#D7D7D7"/>
<rect x="30.5" y="53" width="7.5" height="7.5" fill="#D7D7D7"/>
<rect x="38" y="53" width="7.5" height="7.5" fill="#D7D7D7"/>
<rect x="45.5" y="53" width="7.5" height="7.5" fill="#D7D7D7"/>
<rect x="53" y="53" width="7.5" height="7.5" fill="#D7D7D7"/>
<rect x="60.5" y="53" width="7.5" height="7.5" fill="#D7D7D7"/>
<rect x="68" y="53" width="7.5" height="7.5" fill="#D7D7D7"/>
<rect x="75.5" y="53" width="7.5" height="7.5" fill="#D7D7D7"/>
<rect x="83" y="53" width="7.5" height="7.5" fill="#D7D7D7"/>
<rect x="90.5" y="53" width="7.5" height="7.5" fill="#D7D7D7"/>
<rect x="98" y="53" width="7.5" height="7.5" fill="#D7D7D7"/>
<rect x="105.5" y="53" width="7.5" height="7.5" fill="#D7D7D7"/>
<rect x="113" y="53" width="7.5" height="7.5" fill="#D7D7D7"/>
<rect x="120.5" y="53" width="7.5" height="7.5" fill="#D7D7D7"/>
<rect x="15.5" y="60.5" width="7.5" height="7.5" fill="#D7D7D7"/>
<rect x="23" y="60.5" width="7.5" height="7.5" fill="#D7D7D7"/>
<rect x="30.5" y="60.5" width="7.5" height="7.5" fill="#D7D7D7"/>
<rect x="38" y="60.5" width="7.5" height="7.5" fill="#D7D7D7"/>
<rect x="45.5" y="60.5" width="7.5" height="7.5" fill="#D7D7D7"/>
<rect x="53" y="60.5" width="7.5" height="7.5" fill="#D7D7D7"/>
<rect x="60.5" y="60.5" width="7.5" height="7.5" fill="#D7D7D7"/>
<rect x="68" y="60.5" width="7.5" height="7.5" fill="#D7D7D7"/>
<rect x="75.5" y="60.5" width="7.5" height="7.5" fill="#D7D7D7"/>
<rect x="83" y="60.5" width="7.5" height="7.5" fill="#D7D7D7"/>
<rect x="90.5" y="60.5" width="7.5" height="7.5" fill="#D7D7D7"/>
<rect x="98" y="60.5" width="7.5" height="7.5" fill="#D7D7D7"/>
<rect x="105.5" y="60.5" width="7.5" height="7.5" fill="#D7D7D7"/>
<rect x="113" y="60.5" width="7.5" height="7.5" fill="#D7D7D7"/>
<rect x="120.5" y="60.5" width="7.5" height="7.5" fill="#D7D7D7"/>
<rect x="15.5" y="68" width="7.5" height="7.5" fill="#D7D7D7"/>
<rect x="23" y="68" width="7.5" height="7.5" fill="#D7D7D7"/>
<rect x="30.5" y="68" width="7.5" height="7.5" fill="#D7D7D7"/>
<rect x="38" y="68" width="7.5" height="7.5" fill="#D7D7D7"/>
<rect x="45.5" y="68" width="7.5" height="7.5" fill="#D7D7D7"/>
<rect x="53" y="68" width="7.5" height="7.5" fill="#D7D7D7"/>
<rect x="60.5" y="68" width="7.5" height="7.5" fill="#D7D7D7"/>
<rect x="68" y="68" width="7.5" height="7.5" fill="#D7D7D7"/>
<rect x="75.5" y="68" width="7.5" height="7.5" fill="#D7D7D7"/>
<rect x="83" y="68" width="7.5" height="7.5" fill="#D7D7D7"/>
<rect x="90.5" y="68" width="7.5" height="7.5" fill="#D7D7D7"/>
<rect x="98" y="68" width="7.5" height="7.5" fill="#D7D7D7"/>
<rect x="105.5" y="68" width="7.5" height="7.5" fill="#D7D7D7"/>
<rect x="113" y="68" width="7.5" height="7.5" fill="#D7D7D7"/>
<rect x="120.5" y="68" width="7.5" height="7.5" fill="#D7D7D7"/>
<rect x="15.5" y="75.5" width="7.5" height="7.5" fill="#D7D7D7"/>
<rect x="23" y="75.5" width="7.5" height="7.5" fill="#D7D7D7"/>
<rect x="30.5" y="75.5" width="7.5" height="7.5" fill="#D7D7D7"/>
<rect x="38" y="75.5" width="7.5" height="7.5" fill="#D7D7D7"/>
<rect x="45.5" y="75.5" width="7.5" height="7.5" fill="#D7D7D7"/>
<rect x="53" y="75.5" width="7.5" height="7.5" fill="#D7D7D7"/>
<rect x="60.5" y="75.5" width="7.5" height="7.5" fill="#D7D7D7"/>
<rect x="68" y="75.5" width="7.5" height="7.5" fill="#D7D7D7"/>
<rect x="75.5" y="75.5" width="7.5" height="7.5" fill="#D7D7D7"/>
<rect x="83" y="75.5" width="7.5" height="7.5" fill="#D7D7D7"/>
<rect x="90.5" y="75.5" width="7.5" height="7.5" fill="#D7D7D7"/>
<rect x="98" y="75.5" width="7.5" height="7.5" fill="#D7D7D7"/>
<rect x="105.5" y="75.5" width="7.5" height="7.5" fill="#D7D7D7"/>
<rect x="113" y="75.5" width="7.5" height="7.5" fill="#D7D7D7"/>
<rect x="120.5" y="75.5" width="7.5" height="7.5" fill="#D7D7D7"/>
<rect x="15.5" y="45.5" width="7.5" height="7.5" fill="#D7D7D7"/>
<rect x="23" y="45.5" width="7.5" height="7.5" fill="#D7D7D7"/>
<rect x="30.5" y="45.5" width="7.5" height="7.5" fill="#D7D7D7"/>
<rect x="38" y="45.5" width="7.5" height="7.5" fill="#D7D7D7"/>
<rect x="45.5" y="45.5" width="7.5" height="7.5" fill="black"/>
<rect x="53" y="45.5" width="7.5" height="7.5" fill="black"/>
<rect x="60.5" y="45.5" width="7.5" height="7.5" fill="#D7D7D7"/>
<rect x="68" y="45.5" width="7.5" height="7.5" fill="#D7D7D7"/>
<rect x="75.5" y="45.5" width="7.5" height="7.5" fill="black"/>
<rect x="83" y="45.5" width="7.5" height="7.5" fill="black"/>
<rect x="90.5" y="45.5" width="7.5" height="7.5" fill="#D7D7D7"/>
<rect x="98" y="45.5" width="7.5" height="7.5" fill="#D7D7D7"/>
<rect x="105.5" y="45.5" width="7.5" height="7.5" fill="#D7D7D7"/>
<rect x="113" y="45.5" width="7.5" height="7.5" fill="#D7D7D7"/>
<rect x="120.5" y="45.5" width="7.5" height="7.5" fill="#404343"/>
<rect x="15.5" y="53" width="7.5" height="7.5" fill="#D7D7D7"/>
<rect x="23" y="53" width="7.5" height="7.5" fill="#D7D7D7"/>
<rect x="30.5" y="53" width="7.5" height="7.5" fill="#D7D7D7"/>
<rect x="38" y="53" width="7.5" height="7.5" fill="#D7D7D7"/>
<rect x="45.5" y="53" width="7.5" height="7.5" fill="black"/>
<rect x="53" y="53" width="7.5" height="7.5" fill="black"/>
<rect x="60.5" y="53" width="7.5" height="7.5" fill="#D7D7D7"/>
<rect x="68" y="53" width="7.5" height="7.5" fill="#D7D7D7"/>
<rect x="75.5" y="53" width="7.5" height="7.5" fill="black"/>
<rect x="83" y="53" width="7.5" height="7.5" fill="black"/>
<rect x="90.5" y="53" width="7.5" height="7.5" fill="#D7D7D7"/>
<rect x="98" y="53" width="7.5" height="7.5" fill="#D7D7D7"/>
<rect x="105.5" y="53" width="7.5" height="7.5" fill="#D7D7D7"/>
<rect x="113" y="53" width="7.5" height="7.5" fill="#D7D7D7"/>
<rect x="120.5" y="53" width="7.5" height="7.5" fill="#404343"/>
<rect x="15.5" y="60.5" width="7.5" height="7.5" fill="#D7D7D7"/>
<rect x="23" y="60.5" width="7.5" height="7.5" fill="#D7D7D7"/>
<rect x="30.5" y="60.5" width="7.5" height="7.5" fill="#D7D7D7"/>
<rect x="38" y="60.5" width="7.5" height="7.5" fill="#D7D7D7"/>
<rect x="45.5" y="60.5" width="7.5" height="7.5" fill="black"/>
<rect x="53" y="60.5" width="7.5" height="7.5" fill="black"/>
<rect x="60.5" y="60.5" width="7.5" height="7.5" fill="#D7D7D7"/>
<rect x="68" y="60.5" width="7.5" height="7.5" fill="#D7D7D7"/>
<rect x="75.5" y="60.5" width="7.5" height="7.5" fill="black"/>
<rect x="83" y="60.5" width="7.5" height="7.5" fill="black"/>
<rect x="90.5" y="60.5" width="7.5" height="7.5" fill="#D7D7D7"/>
<rect x="98" y="60.5" width="7.5" height="7.5" fill="#D7D7D7"/>
<rect x="105.5" y="60.5" width="7.5" height="7.5" fill="#D7D7D7"/>
<rect x="113" y="60.5" width="7.5" height="7.5" fill="#D7D7D7"/>
<rect x="120.5" y="60.5" width="7.5" height="7.5" fill="#404343"/>
<rect x="15.5" y="68" width="7.5" height="7.5" fill="#D7D7D7"/>
<rect x="23" y="68" width="7.5" height="7.5" fill="#D7D7D7"/>
<rect x="30.5" y="68" width="7.5" height="7.5" fill="#D7D7D7"/>
<rect x="38" y="68" width="7.5" height="7.5" fill="#D7D7D7"/>
<rect x="45.5" y="68" width="7.5" height="7.5" fill="black"/>
<rect x="53" y="68" width="7.5" height="7.5" fill="black"/>
<rect x="60.5" y="68" width="7.5" height="7.5" fill="#D7D7D7"/>
<rect x="68" y="68" width="7.5" height="7.5" fill="#D7D7D7"/>
<rect x="75.5" y="68" width="7.5" height="7.5" fill="black"/>
<rect x="83" y="68" width="7.5" height="7.5" fill="black"/>
<rect x="90.5" y="68" width="7.5" height="7.5" fill="#D7D7D7"/>
<rect x="98" y="68" width="7.5" height="7.5" fill="#D7D7D7"/>
<rect x="105.5" y="68" width="7.5" height="7.5" fill="#D7D7D7"/>
<rect x="113" y="68" width="7.5" height="7.5" fill="#D7D7D7"/>
<rect x="120.5" y="68" width="7.5" height="7.5" fill="#404343"/>
<rect x="15.5" y="75.5" width="7.5" height="7.5" fill="#D7D7D7"/>
<rect x="23" y="75.5" width="7.5" height="7.5" fill="#D7D7D7"/>
<rect x="30.5" y="75.5" width="7.5" height="7.5" fill="#D7D7D7"/>
<rect x="38" y="75.5" width="7.5" height="7.5" fill="#D7D7D7"/>
<rect x="45.5" y="75.5" width="7.5" height="7.5" fill="black"/>
<rect x="53" y="75.5" width="7.5" height="7.5" fill="black"/>
<rect x="60.5" y="75.5" width="7.5" height="7.5" fill="#D7D7D7"/>
<rect x="68" y="75.5" width="7.5" height="7.5" fill="#D7D7D7"/>
<rect x="75.5" y="75.5" width="7.5" height="7.5" fill="black"/>
<rect x="83" y="75.5" width="7.5" height="7.5" fill="black"/>
<rect x="90.5" y="75.5" width="7.5" height="7.5" fill="#D7D7D7"/>
<rect x="98" y="75.5" width="7.5" height="7.5" fill="#D7D7D7"/>
<rect x="105.5" y="75.5" width="7.5" height="7.5" fill="#D7D7D7"/>
<rect x="113" y="75.5" width="7.5" height="7.5" fill="#D7D7D7"/>
<rect x="120.5" y="75.5" width="7.5" height="7.5" fill="#404343"/>
<rect x="15.5" y="83" width="7.5" height="7.5" fill="#D7D7D7"/>
<rect x="23" y="83" width="7.5" height="7.5" fill="#D7D7D7"/>
<rect x="30.5" y="83" width="7.5" height="7.5" fill="#D7D7D7"/>
<rect x="38" y="83" width="7.5" height="7.5" fill="#D7D7D7"/>
<rect x="45.5" y="83" width="7.5" height="7.5" fill="#D7D7D7"/>
<rect x="53" y="83" width="7.5" height="7.5" fill="#D7D7D7"/>
<rect x="60.5" y="83" width="7.5" height="7.5" fill="#D7D7D7"/>
<rect x="68" y="83" width="7.5" height="7.5" fill="#D7D7D7"/>
<rect x="75.5" y="83" width="7.5" height="7.5" fill="#D7D7D7"/>
<rect x="83" y="83" width="7.5" height="7.5" fill="#D7D7D7"/>
<rect x="90.5" y="83" width="7.5" height="7.5" fill="#D7D7D7"/>
<rect x="98" y="83" width="7.5" height="7.5" fill="#D7D7D7"/>
<rect x="105.5" y="83" width="7.5" height="7.5" fill="#D7D7D7"/>
<rect x="113" y="83" width="7.5" height="7.5" fill="#D7D7D7"/>
<rect x="120.5" y="83" width="7.5" height="7.5" fill="#D7D7D7"/>
<rect x="15.5" y="90.5" width="7.5" height="7.5" fill="#D7D7D7"/>
<rect x="23" y="90.5" width="7.5" height="7.5" fill="#D7D7D7"/>
<rect x="30.5" y="90.5" width="7.5" height="7.5" fill="#D7D7D7"/>
<rect x="38" y="90.5" width="7.5" height="7.5" fill="#D7D7D7"/>
<rect x="45.5" y="90.5" width="7.5" height="7.5" fill="#D7D7D7"/>
<rect x="53" y="90.5" width="7.5" height="7.5" fill="#D7D7D7"/>
<rect x="60.5" y="90.5" width="7.5" height="7.5" fill="#D7D7D7"/>
<rect x="68" y="90.5" width="7.5" height="7.5" fill="#D7D7D7"/>
<rect x="75.5" y="90.5" width="7.5" height="7.5" fill="#D7D7D7"/>
<rect x="83" y="90.5" width="7.5" height="7.5" fill="#D7D7D7"/>
<rect x="90.5" y="90.5" width="7.5" height="7.5" fill="#D7D7D7"/>
<rect x="98" y="90.5" width="7.5" height="7.5" fill="#D7D7D7"/>
<rect x="105.5" y="90.5" width="7.5" height="7.5" fill="#D7D7D7"/>
<rect x="113" y="90.5" width="7.5" height="7.5" fill="#D7D7D7"/>
<rect x="120.5" y="90.5" width="7.5" height="7.5" fill="#D7D7D7"/>
<rect x="15.5" y="98" width="7.5" height="7.5" fill="#D7D7D7"/>
<rect x="23" y="98" width="7.5" height="7.5" fill="#D7D7D7"/>
<rect x="30.5" y="98" width="7.5" height="7.5" fill="#D7D7D7"/>
<rect x="38" y="98" width="7.5" height="7.5" fill="#D7D7D7"/>
<rect x="45.5" y="98" width="7.5" height="7.5" fill="#D7D7D7"/>
<rect x="53" y="98" width="7.5" height="7.5" fill="#D7D7D7"/>
<rect x="60.5" y="98" width="7.5" height="7.5" fill="#D7D7D7"/>
<rect x="68" y="98" width="7.5" height="7.5" fill="#D7D7D7"/>
<rect x="75.5" y="98" width="7.5" height="7.5" fill="#D7D7D7"/>
<rect x="83" y="98" width="7.5" height="7.5" fill="#D7D7D7"/>
<rect x="90.5" y="98" width="7.5" height="7.5" fill="#D7D7D7"/>
<rect x="98" y="98" width="7.5" height="7.5" fill="#D7D7D7"/>
<rect x="105.5" y="98" width="7.5" height="7.5" fill="#D7D7D7"/>
<rect x="113" y="98" width="7.5" height="7.5" fill="#D7D7D7"/>
<rect x="120.5" y="98" width="7.5" height="7.5" fill="#D7D7D7"/>
<rect x="15.5" y="105.5" width="7.5" height="7.5" fill="#D7D7D7"/>
<rect x="23" y="105.5" width="7.5" height="7.5" fill="#D7D7D7"/>
<rect x="30.5" y="105.5" width="7.5" height="7.5" fill="#D7D7D7"/>
<rect x="38" y="105.5" width="7.5" height="7.5" fill="#D7D7D7"/>
<rect x="45.5" y="105.5" width="7.5" height="7.5" fill="#D7D7D7"/>
<rect x="53" y="105.5" width="7.5" height="7.5" fill="#D7D7D7"/>
<rect x="60.5" y="105.5" width="7.5" height="7.5" fill="#D7D7D7"/>
<rect x="68" y="105.5" width="7.5" height="7.5" fill="#D7D7D7"/>
<rect x="75.5" y="105.5" width="7.5" height="7.5" fill="#D7D7D7"/>
<rect x="83" y="105.5" width="7.5" height="7.5" fill="#D7D7D7"/>
<rect x="90.5" y="105.5" width="7.5" height="7.5" fill="#D7D7D7"/>
<rect x="98" y="105.5" width="7.5" height="7.5" fill="#D7D7D7"/>
<rect x="105.5" y="105.5" width="7.5" height="7.5" fill="#D7D7D7"/>
<rect x="113" y="105.5" width="7.5" height="7.5" fill="#D7D7D7"/>
<rect x="120.5" y="105.5" width="7.5" height="7.5" fill="#D7D7D7"/>
<rect x="15.5" y="113" width="7.5" height="7.5" fill="#D7D7D7"/>
<rect x="23" y="113" width="7.5" height="7.5" fill="#D7D7D7"/>
<rect x="30.5" y="113" width="7.5" height="7.5" fill="#D7D7D7"/>
<rect x="38" y="113" width="7.5" height="7.5" fill="#D7D7D7"/>
<rect x="45.5" y="113" width="7.5" height="7.5" fill="#D7D7D7"/>
<rect x="53" y="113" width="7.5" height="7.5" fill="#D7D7D7"/>
<rect x="60.5" y="113" width="7.5" height="7.5" fill="#D7D7D7"/>
<rect x="68" y="113" width="7.5" height="7.5" fill="#D7D7D7"/>
<rect x="75.5" y="113" width="7.5" height="7.5" fill="#D7D7D7"/>
<rect x="83" y="113" width="7.5" height="7.5" fill="#D7D7D7"/>
<rect x="90.5" y="113" width="7.5" height="7.5" fill="#D7D7D7"/>
<rect x="98" y="113" width="7.5" height="7.5" fill="#D7D7D7"/>
<rect x="105.5" y="113" width="7.5" height="7.5" fill="#D7D7D7"/>
<rect x="113" y="113" width="7.5" height="7.5" fill="#D7D7D7"/>
<rect x="120.5" y="113" width="7.5" height="7.5" fill="#D7D7D7"/>
<rect x="15.5" y="83" width="7.5" height="7.5" fill="#D7D7D7"/>
<rect x="23" y="83" width="7.5" height="7.5" fill="#D7D7D7"/>
<rect x="30.5" y="83" width="7.5" height="7.5" fill="#D7D7D7"/>
<rect x="38" y="83" width="7.5" height="7.5" fill="#D7D7D7"/>
<rect x="45.5" y="83" width="7.5" height="7.5" fill="black"/>
<rect x="53" y="83" width="7.5" height="7.5" fill="black"/>
<rect x="60.5" y="83" width="7.5" height="7.5" fill="#D7D7D7"/>
<rect x="68" y="83" width="7.5" height="7.5" fill="#D7D7D7"/>
<rect x="75.5" y="83" width="7.5" height="7.5" fill="black"/>
<rect x="83" y="83" width="7.5" height="7.5" fill="black"/>
<rect x="90.5" y="83" width="7.5" height="7.5" fill="#D7D7D7"/>
<rect x="98" y="83" width="7.5" height="7.5" fill="#D7D7D7"/>
<rect x="105.5" y="83" width="7.5" height="7.5" fill="#D7D7D7"/>
<rect x="113" y="83" width="7.5" height="7.5" fill="#D7D7D7"/>
<rect x="120.5" y="83" width="7.5" height="7.5" fill="#404343"/>
<rect x="15.5" y="90.5" width="7.5" height="7.5" fill="#D7D7D7"/>
<rect x="23" y="90.5" width="7.5" height="7.5" fill="#D7D7D7"/>
<rect x="30.5" y="90.5" width="7.5" height="7.5" fill="#D7D7D7"/>
<rect x="38" y="90.5" width="7.5" height="7.5" fill="#D7D7D7"/>
<rect x="45.5" y="90.5" width="7.5" height="7.5" fill="black"/>
<rect x="53" y="90.5" width="7.5" height="7.5" fill="black"/>
<rect x="60.5" y="90.5" width="7.5" height="7.5" fill="#D7D7D7"/>
<rect x="68" y="90.5" width="7.5" height="7.5" fill="#D7D7D7"/>
<rect x="75.5" y="90.5" width="7.5" height="7.5" fill="black"/>
<rect x="83" y="90.5" width="7.5" height="7.5" fill="black"/>
<rect x="90.5" y="90.5" width="7.5" height="7.5" fill="#D7D7D7"/>
<rect x="98" y="90.5" width="7.5" height="7.5" fill="#D7D7D7"/>
<rect x="105.5" y="90.5" width="7.5" height="7.5" fill="#D7D7D7"/>
<rect x="113" y="90.5" width="7.5" height="7.5" fill="#D7D7D7"/>
<rect x="120.5" y="90.5" width="7.5" height="7.5" fill="#404343"/>
<rect x="15.5" y="98" width="7.5" height="7.5" fill="#D7D7D7"/>
<rect x="23" y="98" width="7.5" height="7.5" fill="#D7D7D7"/>
<rect x="30.5" y="98" width="7.5" height="7.5" fill="#D7D7D7"/>
<rect x="38" y="98" width="7.5" height="7.5" fill="#D7D7D7"/>
<rect x="45.5" y="98" width="7.5" height="7.5" fill="#D7D7D7"/>
<rect x="53" y="98" width="7.5" height="7.5" fill="#D7D7D7"/>
<rect x="60.5" y="98" width="7.5" height="7.5" fill="#D7D7D7"/>
<rect x="68" y="98" width="7.5" height="7.5" fill="#D7D7D7"/>
<rect x="75.5" y="98" width="7.5" height="7.5" fill="#D7D7D7"/>
<rect x="83" y="98" width="7.5" height="7.5" fill="#D7D7D7"/>
<rect x="90.5" y="98" width="7.5" height="7.5" fill="#D7D7D7"/>
<rect x="98" y="98" width="7.5" height="7.5" fill="#D7D7D7"/>
<rect x="105.5" y="98" width="7.5" height="7.5" fill="white"/>
<rect x="113" y="98" width="7.5" height="7.5" fill="#D7D7D7"/>
<rect x="120.5" y="98" width="7.5" height="7.5" fill="#404343"/>
<rect x="15.5" y="105.5" width="7.5" height="7.5" fill="#D7D7D7"/>
<rect x="23" y="105.5" width="7.5" height="7.5" fill="#999999"/>
<rect x="30.5" y="105.5" width="7.5" height="7.5" fill="#D7D7D7"/>
<rect x="38" y="105.5" width="7.5" height="7.5" fill="#D7D7D7"/>
<rect x="45.5" y="105.5" width="7.5" height="7.5" fill="#D7D7D7"/>
<rect x="53" y="105.5" width="7.5" height="7.5" fill="#D7D7D7"/>
<rect x="60.5" y="105.5" width="7.5" height="7.5" fill="#D7D7D7"/>
<rect x="68" y="105.5" width="7.5" height="7.5" fill="#D7D7D7"/>
<rect x="75.5" y="105.5" width="7.5" height="7.5" fill="#D7D7D7"/>
<rect x="83" y="105.5" width="7.5" height="7.5" fill="#D7D7D7"/>
<rect x="90.5" y="105.5" width="7.5" height="7.5" fill="#D7D7D7"/>
<rect x="98" y="105.5" width="7.5" height="7.5" fill="white"/>
<rect x="105.5" y="105.5" width="7.5" height="7.5" fill="#999999"/>
<rect x="113" y="105.5" width="7.5" height="7.5" fill="#D7D7D7"/>
<rect x="120.5" y="105.5" width="7.5" height="7.5" fill="#404343"/>
<rect x="15.5" y="113" width="7.5" height="7.5" fill="#404343"/>
<rect x="23" y="113" width="7.5" height="7.5" fill="#999999"/>
<rect x="30.5" y="113" width="7.5" height="7.5" fill="#999999"/>
<rect x="38" y="113" width="7.5" height="7.5" fill="#999999"/>
<rect x="45.5" y="113" width="7.5" height="7.5" fill="#999999"/>
<rect x="53" y="113" width="7.5" height="7.5" fill="#999999"/>
<rect x="60.5" y="113" width="7.5" height="7.5" fill="#999999"/>
<rect x="68" y="113" width="7.5" height="7.5" fill="#999999"/>
<rect x="75.5" y="113" width="7.5" height="7.5" fill="#999999"/>
<rect x="83" y="113" width="7.5" height="7.5" fill="#999999"/>
<rect x="90.5" y="113" width="7.5" height="7.5" fill="#999999"/>
<rect x="98" y="113" width="7.5" height="7.5" fill="#999999"/>
<rect x="105.5" y="113" width="7.5" height="7.5" fill="#999999"/>
<rect x="23" y="15.5" width="7.5" height="7.5" transform="rotate(90 23 15.5)" fill="#999999"/>
<rect x="23" y="23" width="7.5" height="7.5" transform="rotate(90 23 23)" fill="#999999"/>
<rect x="23" y="30.5" width="7.5" height="7.5" transform="rotate(90 23 30.5)" fill="#999999"/>
<rect x="23" y="38" width="7.5" height="7.5" transform="rotate(90 23 38)" fill="#999999"/>
<rect x="23" y="45.5" width="7.5" height="7.5" transform="rotate(90 23 45.5)" fill="#999999"/>
<rect x="23" y="53" width="7.5" height="7.5" transform="rotate(90 23 53)" fill="#999999"/>
<rect x="23" y="60.5" width="7.5" height="7.5" transform="rotate(90 23 60.5)" fill="#999999"/>
<rect x="23" y="68" width="7.5" height="7.5" transform="rotate(90 23 68)" fill="#999999"/>
<rect x="23" y="75.5" width="7.5" height="7.5" transform="rotate(90 23 75.5)" fill="#999999"/>
<rect x="23" y="83" width="7.5" height="7.5" transform="rotate(90 23 83)" fill="#999999"/>
<rect x="23" y="90.5" width="7.5" height="7.5" transform="rotate(90 23 90.5)" fill="#999999"/>
<rect x="23" y="98" width="7.5" height="7.5" transform="rotate(90 23 98)" fill="#999999"/>
<rect x="23" y="105.5" width="7.5" height="7.5" transform="rotate(90 23 105.5)" fill="#999999"/>
<rect x="120.5" y="15.5" width="7.5" height="7.5" transform="rotate(90 120.5 15.5)" fill="#404343"/>
<rect x="120.5" y="23" width="7.5" height="7.5" transform="rotate(90 120.5 23)" fill="#999999"/>
<rect x="120.5" y="30.5" width="7.5" height="7.5" transform="rotate(90 120.5 30.5)" fill="#999999"/>
<rect x="120.5" y="38" width="7.5" height="7.5" transform="rotate(90 120.5 38)" fill="#999999"/>
<rect x="120.5" y="45.5" width="7.5" height="7.5" transform="rotate(90 120.5 45.5)" fill="#999999"/>
<rect x="120.5" y="53" width="7.5" height="7.5" transform="rotate(90 120.5 53)" fill="#999999"/>
<rect x="120.5" y="60.5" width="7.5" height="7.5" transform="rotate(90 120.5 60.5)" fill="#999999"/>
<rect x="120.5" y="68" width="7.5" height="7.5" transform="rotate(90 120.5 68)" fill="#999999"/>
<rect x="120.5" y="75.5" width="7.5" height="7.5" transform="rotate(90 120.5 75.5)" fill="#999999"/>
<rect x="120.5" y="83" width="7.5" height="7.5" transform="rotate(90 120.5 83)" fill="#999999"/>
<rect x="120.5" y="90.5" width="7.5" height="7.5" transform="rotate(90 120.5 90.5)" fill="#999999"/>
<rect x="120.5" y="98" width="7.5" height="7.5" transform="rotate(90 120.5 98)" fill="#999999"/>
<rect x="120.5" y="105.5" width="7.5" height="7.5" transform="rotate(90 120.5 105.5)" fill="#999999"/>
<rect x="113" y="23" width="7.5" height="7.5" transform="rotate(180 113 23)" fill="#999999"/>
<rect x="105.5" y="23" width="7.5" height="7.5" transform="rotate(180 105.5 23)" fill="#999999"/>
<rect x="98" y="23" width="7.5" height="7.5" transform="rotate(180 98 23)" fill="#999999"/>
<rect x="90.5" y="23" width="7.5" height="7.5" transform="rotate(180 90.5 23)" fill="#999999"/>
<rect x="83" y="23" width="7.5" height="7.5" transform="rotate(180 83 23)" fill="#999999"/>
<rect x="75.5" y="23" width="7.5" height="7.5" transform="rotate(180 75.5 23)" fill="#999999"/>
<rect x="68" y="23" width="7.5" height="7.5" transform="rotate(180 68 23)" fill="#999999"/>
<rect x="60.5" y="23" width="7.5" height="7.5" transform="rotate(180 60.5 23)" fill="#999999"/>
<rect x="53" y="23" width="7.5" height="7.5" transform="rotate(180 53 23)" fill="#999999"/>
<rect x="45.5" y="23" width="7.5" height="7.5" transform="rotate(180 45.5 23)" fill="#999999"/>
<rect x="38" y="23" width="7.5" height="7.5" transform="rotate(180 38 23)" fill="#999999"/>
<rect x="30.5" y="23" width="7.5" height="7.5" transform="rotate(180 30.5 23)" fill="#999999"/>
<rect x="23" y="23" width="7.5" height="7.5" transform="rotate(180 23 23)" fill="#404343"/>
<rect x="113" y="113" width="7.5" height="7.5" fill="#404343"/>
<rect x="120.5" y="113" width="7.5" height="7.5" fill="#404343"/>
<rect x="120.5" y="8" width="7.5" height="7.5" transform="rotate(90 120.5 8)" fill="#404343"/>
<rect x="113" y="8" width="7.5" height="7.5" transform="rotate(90 113 8)" fill="#404343"/>
<rect x="105.5" y="8" width="7.5" height="7.5" transform="rotate(90 105.5 8)" fill="#404343"/>
<rect x="98" y="8" width="7.5" height="7.5" transform="rotate(90 98 8)" fill="#404343"/>
<rect x="90.5" y="8" width="7.5" height="7.5" transform="rotate(90 90.5 8)" fill="#404343"/>
<rect x="83" y="8" width="7.5" height="7.5" transform="rotate(90 83 8)" fill="#404343"/>
<rect x="75.5" y="8" width="7.5" height="7.5" transform="rotate(90 75.5 8)" fill="#404343"/>
<rect x="68" y="8" width="7.5" height="7.5" transform="rotate(90 68 8)" fill="#404343"/>
<rect x="60.5" y="8" width="7.5" height="7.5" transform="rotate(90 60.5 8)" fill="#404343"/>
<rect x="53" y="8" width="7.5" height="7.5" transform="rotate(90 53 8)" fill="#404343"/>
<rect x="45.5" y="8" width="7.5" height="7.5" transform="rotate(90 45.5 8)" fill="#404343"/>
<rect x="38" y="8" width="7.5" height="7.5" transform="rotate(90 38 8)" fill="#404343"/>
<rect x="30.5" y="8" width="7.5" height="7.5" transform="rotate(90 30.5 8)" fill="#404343"/>
<rect x="23" y="8" width="7.5" height="7.5" transform="rotate(90 23 8)" fill="#404343"/>
<rect x="8" y="15.5" width="7.5" height="7.5" fill="#404343"/>
<rect x="8" y="23" width="7.5" height="7.5" fill="#404343"/>
<rect x="8" y="30.5" width="7.5" height="7.5" fill="#404343"/>
<rect x="8" y="38" width="7.5" height="7.5" fill="#404343"/>
<rect x="8" y="45.5" width="7.5" height="7.5" fill="#404343"/>
<rect x="8" y="53" width="7.5" height="7.5" fill="#404343"/>
<rect x="8" y="60.5" width="7.5" height="7.5" fill="#404343"/>
<rect x="8" y="68" width="7.5" height="7.5" fill="#404343"/>
<rect x="8" y="75.5" width="7.5" height="7.5" fill="#404343"/>
<rect x="8" y="83" width="7.5" height="7.5" fill="#404343"/>
<rect x="8" y="90.5" width="7.5" height="7.5" fill="#404343"/>
<rect x="8" y="98" width="7.5" height="7.5" fill="#404343"/>
<rect x="8" y="105.5" width="7.5" height="7.5" fill="#404343"/>
<rect x="8" y="113" width="7.5" height="7.5" fill="#404343"/>
<rect x="120.5" y="120.5" width="7.5" height="7.5" transform="rotate(90 120.5 120.5)" fill="#404343"/>
<rect x="113" y="120.5" width="7.5" height="7.5" transform="rotate(90 113 120.5)" fill="#404343"/>
<rect x="105.5" y="120.5" width="7.5" height="7.5" transform="rotate(90 105.5 120.5)" fill="#404343"/>
<rect x="98" y="120.5" width="7.5" height="7.5" transform="rotate(90 98 120.5)" fill="#404343"/>
<rect x="90.5" y="120.5" width="7.5" height="7.5" transform="rotate(90 90.5 120.5)" fill="#404343"/>
<rect x="83" y="120.5" width="7.5" height="7.5" transform="rotate(90 83 120.5)" fill="#404343"/>
<rect x="75.5" y="120.5" width="7.5" height="7.5" transform="rotate(90 75.5 120.5)" fill="#404343"/>
<rect x="68" y="120.5" width="7.5" height="7.5" transform="rotate(90 68 120.5)" fill="#404343"/>
<rect x="60.5" y="120.5" width="7.5" height="7.5" transform="rotate(90 60.5 120.5)" fill="#404343"/>
<rect x="53" y="120.5" width="7.5" height="7.5" transform="rotate(90 53 120.5)" fill="#404343"/>
<rect x="45.5" y="120.5" width="7.5" height="7.5" transform="rotate(90 45.5 120.5)" fill="#404343"/>
<rect x="38" y="120.5" width="7.5" height="7.5" transform="rotate(90 38 120.5)" fill="#404343"/>
<rect x="30.5" y="120.5" width="7.5" height="7.5" transform="rotate(90 30.5 120.5)" fill="#404343"/>
<rect x="23" y="120.5" width="7.5" height="7.5" transform="rotate(90 23 120.5)" fill="#404343"/>
</svg>
