<svg width="135" height="135" viewBox="0 0 135 135" fill="none" xmlns="http://www.w3.org/2000/svg">
<rect x="135" y="135" width="135" height="135" transform="rotate(180 135 135)" fill="black"/>
<rect x="14.5" y="15.5" width="7.5" height="7.5" fill="#D7D7D7"/>
<rect x="22" y="15.5" width="7.5" height="7.5" fill="#D7D7D7"/>
<rect x="29.5" y="15.5" width="7.5" height="7.5" fill="#D7D7D7"/>
<rect x="37" y="15.5" width="7.5" height="7.5" fill="#D7D7D7"/>
<rect x="44.5" y="15.5" width="7.5" height="7.5" fill="#D7D7D7"/>
<rect x="52" y="15.5" width="7.5" height="7.5" fill="#D7D7D7"/>
<rect x="59.5" y="15.5" width="7.5" height="7.5" fill="#D7D7D7"/>
<rect x="67" y="15.5" width="7.5" height="7.5" fill="#D7D7D7"/>
<rect x="74.5" y="15.5" width="7.5" height="7.5" fill="#D7D7D7"/>
<rect x="82" y="15.5" width="7.5" height="7.5" fill="#D7D7D7"/>
<rect x="89.5" y="15.5" width="7.5" height="7.5" fill="#D7D7D7"/>
<rect x="97" y="15.5" width="7.5" height="7.5" fill="#D7D7D7"/>
<rect x="104.5" y="15.5" width="7.5" height="7.5" fill="#D7D7D7"/>
<rect x="112" y="15.5" width="7.5" height="7.5" fill="#D7D7D7"/>
<rect x="119.5" y="15.5" width="7.5" height="7.5" fill="#D7D7D7"/>
<rect x="14.5" y="23" width="7.5" height="7.5" fill="#D7D7D7"/>
<rect x="22" y="23" width="7.5" height="7.5" fill="#D7D7D7"/>
<rect x="29.5" y="23" width="7.5" height="7.5" fill="#D7D7D7"/>
<rect x="37" y="23" width="7.5" height="7.5" fill="#D7D7D7"/>
<rect x="44.5" y="23" width="7.5" height="7.5" fill="#D7D7D7"/>
<rect x="52" y="23" width="7.5" height="7.5" fill="#D7D7D7"/>
<rect x="59.5" y="23" width="7.5" height="7.5" fill="#D7D7D7"/>
<rect x="67" y="23" width="7.5" height="7.5" fill="#D7D7D7"/>
<rect x="74.5" y="23" width="7.5" height="7.5" fill="#D7D7D7"/>
<rect x="82" y="23" width="7.5" height="7.5" fill="#D7D7D7"/>
<rect x="89.5" y="23" width="7.5" height="7.5" fill="#D7D7D7"/>
<rect x="97" y="23" width="7.5" height="7.5" fill="#D7D7D7"/>
<rect x="104.5" y="23" width="7.5" height="7.5" fill="#D7D7D7"/>
<rect x="112" y="23" width="7.5" height="7.5" fill="#D7D7D7"/>
<rect x="119.5" y="23" width="7.5" height="7.5" fill="#D7D7D7"/>
<rect x="14.5" y="30.5" width="7.5" height="7.5" fill="#D7D7D7"/>
<rect x="22" y="30.5" width="7.5" height="7.5" fill="#D7D7D7"/>
<rect x="29.5" y="30.5" width="7.5" height="7.5" fill="#D7D7D7"/>
<rect x="37" y="30.5" width="7.5" height="7.5" fill="#D7D7D7"/>
<rect x="44.5" y="30.5" width="7.5" height="7.5" fill="#D7D7D7"/>
<rect x="52" y="30.5" width="7.5" height="7.5" fill="#D7D7D7"/>
<rect x="59.5" y="30.5" width="7.5" height="7.5" fill="#D7D7D7"/>
<rect x="67" y="30.5" width="7.5" height="7.5" fill="#D7D7D7"/>
<rect x="74.5" y="30.5" width="7.5" height="7.5" fill="#D7D7D7"/>
<rect x="82" y="30.5" width="7.5" height="7.5" fill="#D7D7D7"/>
<rect x="89.5" y="30.5" width="7.5" height="7.5" fill="#D7D7D7"/>
<rect x="97" y="30.5" width="7.5" height="7.5" fill="#D7D7D7"/>
<rect x="104.5" y="30.5" width="7.5" height="7.5" fill="#D7D7D7"/>
<rect x="112" y="30.5" width="7.5" height="7.5" fill="#D7D7D7"/>
<rect x="119.5" y="30.5" width="7.5" height="7.5" fill="#D7D7D7"/>
<rect x="14.5" y="38" width="7.5" height="7.5" fill="#D7D7D7"/>
<rect x="22" y="38" width="7.5" height="7.5" fill="#D7D7D7"/>
<rect x="29.5" y="38" width="7.5" height="7.5" fill="#D7D7D7"/>
<rect x="37" y="38" width="7.5" height="7.5" fill="#D7D7D7"/>
<rect x="44.5" y="38" width="7.5" height="7.5" fill="#D7D7D7"/>
<rect x="52" y="38" width="7.5" height="7.5" fill="#D7D7D7"/>
<rect x="59.5" y="38" width="7.5" height="7.5" fill="#D7D7D7"/>
<rect x="67" y="38" width="7.5" height="7.5" fill="#D7D7D7"/>
<rect x="74.5" y="38" width="7.5" height="7.5" fill="#D7D7D7"/>
<rect x="82" y="38" width="7.5" height="7.5" fill="#D7D7D7"/>
<rect x="89.5" y="38" width="7.5" height="7.5" fill="#D7D7D7"/>
<rect x="97" y="38" width="7.5" height="7.5" fill="#D7D7D7"/>
<rect x="104.5" y="38" width="7.5" height="7.5" fill="#D7D7D7"/>
<rect x="112" y="38" width="7.5" height="7.5" fill="#D7D7D7"/>
<rect x="119.5" y="38" width="7.5" height="7.5" fill="#D7D7D7"/>
<rect x="14.5" y="15.5" width="7.5" height="7.5" fill="#D7D7D7"/>
<rect x="22" y="15.5" width="7.5" height="7.5" fill="#D7D7D7"/>
<rect x="29.5" y="15.5" width="7.5" height="7.5" fill="#D7D7D7"/>
<rect x="37" y="15.5" width="7.5" height="7.5" fill="#D7D7D7"/>
<rect x="44.5" y="15.5" width="7.5" height="7.5" fill="#D7D7D7"/>
<rect x="52" y="15.5" width="7.5" height="7.5" fill="#D7D7D7"/>
<rect x="59.5" y="15.5" width="7.5" height="7.5" fill="#D7D7D7"/>
<rect x="67" y="15.5" width="7.5" height="7.5" fill="#D7D7D7"/>
<rect x="74.5" y="15.5" width="7.5" height="7.5" fill="#D7D7D7"/>
<rect x="82" y="15.5" width="7.5" height="7.5" fill="#D7D7D7"/>
<rect x="89.5" y="15.5" width="7.5" height="7.5" fill="#D7D7D7"/>
<rect x="97" y="15.5" width="7.5" height="7.5" fill="#D7D7D7"/>
<rect x="104.5" y="15.5" width="7.5" height="7.5" fill="#D7D7D7"/>
<rect x="112" y="15.5" width="7.5" height="7.5" fill="#D7D7D7"/>
<rect x="119.5" y="15.5" width="7.5" height="7.5" fill="#404343"/>
<rect x="14.5" y="23" width="7.5" height="7.5" fill="#D7D7D7"/>
<rect x="22" y="23" width="7.5" height="7.5" fill="#999999"/>
<rect x="29.5" y="23" width="7.5" height="7.5" fill="#FAFAFA"/>
<rect x="37" y="23" width="7.5" height="7.5" fill="#D7D7D7"/>
<rect x="44.5" y="23" width="7.5" height="7.5" fill="#D7D7D7"/>
<rect x="52" y="23" width="7.5" height="7.5" fill="#D7D7D7"/>
<rect x="59.5" y="23" width="7.5" height="7.5" fill="#D7D7D7"/>
<rect x="67" y="23" width="7.5" height="7.5" fill="#D7D7D7"/>
<rect x="74.5" y="23" width="7.5" height="7.5" fill="#D7D7D7"/>
<rect x="82" y="23" width="7.5" height="7.5" fill="#D7D7D7"/>
<rect x="89.5" y="23" width="7.5" height="7.5" fill="#D7D7D7"/>
<rect x="97" y="23" width="7.5" height="7.5" fill="#D7D7D7"/>
<rect x="104.5" y="23" width="7.5" height="7.5" fill="#999999"/>
<rect x="112" y="23" width="7.5" height="7.5" fill="#D7D7D7"/>
<rect x="119.5" y="23" width="7.5" height="7.5" fill="#404343"/>
<rect x="14.5" y="30.5" width="7.5" height="7.5" fill="#D7D7D7"/>
<rect x="22" y="30.5" width="7.5" height="7.5" fill="white"/>
<rect x="29.5" y="30.5" width="7.5" height="7.5" fill="#D7D7D7"/>
<rect x="37" y="30.5" width="7.5" height="7.5" fill="#D7D7D7"/>
<rect x="44.5" y="30.5" width="7.5" height="7.5" fill="#D7D7D7"/>
<rect x="52" y="30.5" width="7.5" height="7.5" fill="#D7D7D7"/>
<rect x="59.5" y="30.5" width="7.5" height="7.5" fill="#D7D7D7"/>
<rect x="67" y="30.5" width="7.5" height="7.5" fill="#D7D7D7"/>
<rect x="74.5" y="30.5" width="7.5" height="7.5" fill="#D7D7D7"/>
<rect x="82" y="30.5" width="7.5" height="7.5" fill="#D7D7D7"/>
<rect x="89.5" y="30.5" width="7.5" height="7.5" fill="#D7D7D7"/>
<rect x="97" y="30.5" width="7.5" height="7.5" fill="#000001"/>
<rect x="104.5" y="30.5" width="7.5" height="7.5" fill="#D7D7D7"/>
<rect x="112" y="30.5" width="7.5" height="7.5" fill="#D7D7D7"/>
<rect x="119.5" y="30.5" width="7.5" height="7.5" fill="#404343"/>
<rect x="14.5" y="38" width="7.5" height="7.5" fill="#D7D7D7"/>
<rect x="22" y="38" width="7.5" height="7.5" fill="white"/>
<rect x="29.5" y="38" width="7.5" height="7.5" fill="#D7D7D7"/>
<rect x="37" y="38" width="7.5" height="7.5" fill="#D7D7D7"/>
<rect x="44.5" y="38" width="7.5" height="7.5" fill="#D7D7D7"/>
<rect x="52" y="38" width="7.5" height="7.5" fill="#D7D7D7"/>
<rect x="59.5" y="38" width="7.5" height="7.5" fill="#D7D7D7"/>
<rect x="67" y="38" width="7.5" height="7.5" fill="#D7D7D7"/>
<rect x="74.5" y="38" width="7.5" height="7.5" fill="#D7D7D7"/>
<rect x="82" y="38" width="7.5" height="7.5" fill="#D7D7D7"/>
<rect x="89.5" y="38" width="7.5" height="7.5" fill="#000001"/>
<rect x="97" y="38" width="7.5" height="7.5" fill="#D7D7D7"/>
<rect x="104.5" y="38" width="7.5" height="7.5" fill="#D7D7D7"/>
<rect x="112" y="38" width="7.5" height="7.5" fill="#D7D7D7"/>
<rect x="119.5" y="38" width="7.5" height="7.5" fill="#404343"/>
<rect x="14.5" y="45.5" width="7.5" height="7.5" fill="#D7D7D7"/>
<rect x="22" y="45.5" width="7.5" height="7.5" fill="#D7D7D7"/>
<rect x="29.5" y="45.5" width="7.5" height="7.5" fill="#D7D7D7"/>
<rect x="37" y="45.5" width="7.5" height="7.5" fill="#D7D7D7"/>
<rect x="44.5" y="45.5" width="7.5" height="7.5" fill="#D7D7D7"/>
<rect x="52" y="45.5" width="7.5" height="7.5" fill="#D7D7D7"/>
<rect x="59.5" y="45.5" width="7.5" height="7.5" fill="#D7D7D7"/>
<rect x="67" y="45.5" width="7.5" height="7.5" fill="#D7D7D7"/>
<rect x="74.5" y="45.5" width="7.5" height="7.5" fill="#D7D7D7"/>
<rect x="82" y="45.5" width="7.5" height="7.5" fill="#D7D7D7"/>
<rect x="89.5" y="45.5" width="7.5" height="7.5" fill="#D7D7D7"/>
<rect x="97" y="45.5" width="7.5" height="7.5" fill="#D7D7D7"/>
<rect x="104.5" y="45.5" width="7.5" height="7.5" fill="#D7D7D7"/>
<rect x="112" y="45.5" width="7.5" height="7.5" fill="#D7D7D7"/>
<rect x="119.5" y="45.5" width="7.5" height="7.5" fill="#D7D7D7"/>
<rect x="14.5" y="53" width="7.5" height="7.5" fill="#D7D7D7"/>
<rect x="22" y="53" width="7.5" height="7.5" fill="#D7D7D7"/>
<rect x="29.5" y="53" width="7.5" height="7.5" fill="#D7D7D7"/>
<rect x="37" y="53" width="7.5" height="7.5" fill="#D7D7D7"/>
<rect x="44.5" y="53" width="7.5" height="7.5" fill="#D7D7D7"/>
<rect x="52" y="53" width="7.5" height="7.5" fill="#D7D7D7"/>
<rect x="59.5" y="53" width="7.5" height="7.5" fill="#D7D7D7"/>
<rect x="67" y="53" width="7.5" height="7.5" fill="#D7D7D7"/>
<rect x="74.5" y="53" width="7.5" height="7.5" fill="#D7D7D7"/>
<rect x="82" y="53" width="7.5" height="7.5" fill="#D7D7D7"/>
<rect x="89.5" y="53" width="7.5" height="7.5" fill="#D7D7D7"/>
<rect x="97" y="53" width="7.5" height="7.5" fill="#D7D7D7"/>
<rect x="104.5" y="53" width="7.5" height="7.5" fill="#D7D7D7"/>
<rect x="112" y="53" width="7.5" height="7.5" fill="#D7D7D7"/>
<rect x="119.5" y="53" width="7.5" height="7.5" fill="#D7D7D7"/>
<rect x="14.5" y="60.5" width="7.5" height="7.5" fill="#D7D7D7"/>
<rect x="22" y="60.5" width="7.5" height="7.5" fill="#D7D7D7"/>
<rect x="29.5" y="60.5" width="7.5" height="7.5" fill="#D7D7D7"/>
<rect x="37" y="60.5" width="7.5" height="7.5" fill="#D7D7D7"/>
<rect x="44.5" y="60.5" width="7.5" height="7.5" fill="#D7D7D7"/>
<rect x="52" y="60.5" width="7.5" height="7.5" fill="#D7D7D7"/>
<rect x="59.5" y="60.5" width="7.5" height="7.5" fill="#D7D7D7"/>
<rect x="67" y="60.5" width="7.5" height="7.5" fill="#D7D7D7"/>
<rect x="74.5" y="60.5" width="7.5" height="7.5" fill="#D7D7D7"/>
<rect x="82" y="60.5" width="7.5" height="7.5" fill="#D7D7D7"/>
<rect x="89.5" y="60.5" width="7.5" height="7.5" fill="#D7D7D7"/>
<rect x="97" y="60.5" width="7.5" height="7.5" fill="#D7D7D7"/>
<rect x="104.5" y="60.5" width="7.5" height="7.5" fill="#D7D7D7"/>
<rect x="112" y="60.5" width="7.5" height="7.5" fill="#D7D7D7"/>
<rect x="119.5" y="60.5" width="7.5" height="7.5" fill="#D7D7D7"/>
<rect x="14.5" y="68" width="7.5" height="7.5" fill="#D7D7D7"/>
<rect x="22" y="68" width="7.5" height="7.5" fill="#D7D7D7"/>
<rect x="29.5" y="68" width="7.5" height="7.5" fill="#D7D7D7"/>
<rect x="37" y="68" width="7.5" height="7.5" fill="#D7D7D7"/>
<rect x="44.5" y="68" width="7.5" height="7.5" fill="#D7D7D7"/>
<rect x="52" y="68" width="7.5" height="7.5" fill="#D7D7D7"/>
<rect x="59.5" y="68" width="7.5" height="7.5" fill="#D7D7D7"/>
<rect x="67" y="68" width="7.5" height="7.5" fill="#D7D7D7"/>
<rect x="74.5" y="68" width="7.5" height="7.5" fill="#D7D7D7"/>
<rect x="82" y="68" width="7.5" height="7.5" fill="#D7D7D7"/>
<rect x="89.5" y="68" width="7.5" height="7.5" fill="#D7D7D7"/>
<rect x="97" y="68" width="7.5" height="7.5" fill="#D7D7D7"/>
<rect x="104.5" y="68" width="7.5" height="7.5" fill="#D7D7D7"/>
<rect x="112" y="68" width="7.5" height="7.5" fill="#D7D7D7"/>
<rect x="119.5" y="68" width="7.5" height="7.5" fill="#D7D7D7"/>
<rect x="14.5" y="75.5" width="7.5" height="7.5" fill="#D7D7D7"/>
<rect x="22" y="75.5" width="7.5" height="7.5" fill="#D7D7D7"/>
<rect x="29.5" y="75.5" width="7.5" height="7.5" fill="#D7D7D7"/>
<rect x="37" y="75.5" width="7.5" height="7.5" fill="#D7D7D7"/>
<rect x="44.5" y="75.5" width="7.5" height="7.5" fill="#D7D7D7"/>
<rect x="52" y="75.5" width="7.5" height="7.5" fill="#D7D7D7"/>
<rect x="59.5" y="75.5" width="7.5" height="7.5" fill="#D7D7D7"/>
<rect x="67" y="75.5" width="7.5" height="7.5" fill="#D7D7D7"/>
<rect x="74.5" y="75.5" width="7.5" height="7.5" fill="#D7D7D7"/>
<rect x="82" y="75.5" width="7.5" height="7.5" fill="#D7D7D7"/>
<rect x="89.5" y="75.5" width="7.5" height="7.5" fill="#D7D7D7"/>
<rect x="97" y="75.5" width="7.5" height="7.5" fill="#D7D7D7"/>
<rect x="104.5" y="75.5" width="7.5" height="7.5" fill="#D7D7D7"/>
<rect x="112" y="75.5" width="7.5" height="7.5" fill="#D7D7D7"/>
<rect x="119.5" y="75.5" width="7.5" height="7.5" fill="#D7D7D7"/>
<rect x="14.5" y="45.5" width="7.5" height="7.5" fill="#D7D7D7"/>
<rect x="22" y="45.5" width="7.5" height="7.5" fill="#D7D7D7"/>
<rect x="29.5" y="45.5" width="7.5" height="7.5" fill="#D7D7D7"/>
<rect x="37" y="45.5" width="7.5" height="7.5" fill="#D7D7D7"/>
<rect x="44.5" y="45.5" width="7.5" height="7.5" fill="#D7D7D7"/>
<rect x="52" y="45.5" width="7.5" height="7.5" fill="#D7D7D7"/>
<rect x="59.5" y="45.5" width="7.5" height="7.5" fill="#D7D7D7"/>
<rect x="67" y="45.5" width="7.5" height="7.5" fill="#D7D7D7"/>
<rect x="74.5" y="45.5" width="7.5" height="7.5" fill="#D7D7D7"/>
<rect x="82" y="45.5" width="7.5" height="7.5" fill="#000001"/>
<rect x="89.5" y="45.5" width="7.5" height="7.5" fill="#D7D7D7"/>
<rect x="97" y="45.5" width="7.5" height="7.5" fill="#D7D7D7"/>
<rect x="104.5" y="45.5" width="7.5" height="7.5" fill="#D7D7D7"/>
<rect x="112" y="45.5" width="7.5" height="7.5" fill="#D7D7D7"/>
<rect x="119.5" y="45.5" width="7.5" height="7.5" fill="#404343"/>
<rect x="14.5" y="53" width="7.5" height="7.5" fill="#D7D7D7"/>
<rect x="22" y="53" width="7.5" height="7.5" fill="#D7D7D7"/>
<rect x="29.5" y="53" width="7.5" height="7.5" fill="#D7D7D7"/>
<rect x="37" y="53" width="7.5" height="7.5" fill="#D7D7D7"/>
<rect x="44.5" y="53" width="7.5" height="7.5" fill="#D7D7D7"/>
<rect x="52" y="53" width="7.5" height="7.5" fill="#D7D7D7"/>
<rect x="59.5" y="53" width="7.5" height="7.5" fill="#D7D7D7"/>
<rect x="67" y="53" width="7.5" height="7.5" fill="#D7D7D7"/>
<rect x="74.5" y="53" width="7.5" height="7.5" fill="#000001"/>
<rect x="82" y="53" width="7.5" height="7.5" fill="#D7D7D7"/>
<rect x="89.5" y="53" width="7.5" height="7.5" fill="#D7D7D7"/>
<rect x="97" y="53" width="7.5" height="7.5" fill="#D7D7D7"/>
<rect x="104.5" y="53" width="7.5" height="7.5" fill="#D7D7D7"/>
<rect x="112" y="53" width="7.5" height="7.5" fill="#D7D7D7"/>
<rect x="119.5" y="53" width="7.5" height="7.5" fill="#404343"/>
<rect x="14.5" y="60.5" width="7.5" height="7.5" fill="#D7D7D7"/>
<rect x="22" y="60.5" width="7.5" height="7.5" fill="#D7D7D7"/>
<rect x="29.5" y="60.5" width="7.5" height="7.5" fill="#D7D7D7"/>
<rect x="37" y="60.5" width="7.5" height="7.5" fill="#D7D7D7"/>
<rect x="44.5" y="60.5" width="7.5" height="7.5" fill="#D7D7D7"/>
<rect x="52" y="60.5" width="7.5" height="7.5" fill="#D7D7D7"/>
<rect x="59.5" y="60.5" width="7.5" height="7.5" fill="#D7D7D7"/>
<rect x="67" y="60.5" width="7.5" height="7.5" fill="#000001"/>
<rect x="74.5" y="60.5" width="7.5" height="7.5" fill="#D7D7D7"/>
<rect x="82" y="60.5" width="7.5" height="7.5" fill="#D7D7D7"/>
<rect x="89.5" y="60.5" width="7.5" height="7.5" fill="#D7D7D7"/>
<rect x="97" y="60.5" width="7.5" height="7.5" fill="#D7D7D7"/>
<rect x="104.5" y="60.5" width="7.5" height="7.5" fill="#D7D7D7"/>
<rect x="112" y="60.5" width="7.5" height="7.5" fill="#D7D7D7"/>
<rect x="119.5" y="60.5" width="7.5" height="7.5" fill="#404343"/>
<rect x="14.5" y="68" width="7.5" height="7.5" fill="#D7D7D7"/>
<rect x="22" y="68" width="7.5" height="7.5" fill="#D7D7D7"/>
<rect x="29.5" y="68" width="7.5" height="7.5" fill="#D7D7D7"/>
<rect x="37" y="68" width="7.5" height="7.5" fill="#D7D7D7"/>
<rect x="44.5" y="68" width="7.5" height="7.5" fill="#D7D7D7"/>
<rect x="52" y="68" width="7.5" height="7.5" fill="#D7D7D7"/>
<rect x="59.5" y="68" width="7.5" height="7.5" fill="#000001"/>
<rect x="67" y="68" width="7.5" height="7.5" fill="#D7D7D7"/>
<rect x="74.5" y="68" width="7.5" height="7.5" fill="#D7D7D7"/>
<rect x="82" y="68" width="7.5" height="7.5" fill="#D7D7D7"/>
<rect x="89.5" y="68" width="7.5" height="7.5" fill="#D7D7D7"/>
<rect x="97" y="68" width="7.5" height="7.5" fill="#D7D7D7"/>
<rect x="104.5" y="68" width="7.5" height="7.5" fill="#D7D7D7"/>
<rect x="112" y="68" width="7.5" height="7.5" fill="#D7D7D7"/>
<rect x="119.5" y="68" width="7.5" height="7.5" fill="#404343"/>
<rect x="14.5" y="75.5" width="7.5" height="7.5" fill="#D7D7D7"/>
<rect x="22" y="75.5" width="7.5" height="7.5" fill="#D7D7D7"/>
<rect x="29.5" y="75.5" width="7.5" height="7.5" fill="#D7D7D7"/>
<rect x="37" y="75.5" width="7.5" height="7.5" fill="#D7D7D7"/>
<rect x="44.5" y="75.5" width="7.5" height="7.5" fill="#D7D7D7"/>
<rect x="52" y="75.5" width="7.5" height="7.5" fill="#000001"/>
<rect x="59.5" y="75.5" width="7.5" height="7.5" fill="#D7D7D7"/>
<rect x="67" y="75.5" width="7.5" height="7.5" fill="#D7D7D7"/>
<rect x="74.5" y="75.5" width="7.5" height="7.5" fill="#D7D7D7"/>
<rect x="82" y="75.5" width="7.5" height="7.5" fill="#D7D7D7"/>
<rect x="89.5" y="75.5" width="7.5" height="7.5" fill="#D7D7D7"/>
<rect x="97" y="75.5" width="7.5" height="7.5" fill="#D7D7D7"/>
<rect x="104.5" y="75.5" width="7.5" height="7.5" fill="#D7D7D7"/>
<rect x="112" y="75.5" width="7.5" height="7.5" fill="#D7D7D7"/>
<rect x="119.5" y="75.5" width="7.5" height="7.5" fill="#404343"/>
<rect x="14.5" y="83" width="7.5" height="7.5" fill="#D7D7D7"/>
<rect x="22" y="83" width="7.5" height="7.5" fill="#D7D7D7"/>
<rect x="29.5" y="83" width="7.5" height="7.5" fill="#D7D7D7"/>
<rect x="37" y="83" width="7.5" height="7.5" fill="#D7D7D7"/>
<rect x="44.5" y="83" width="7.5" height="7.5" fill="#D7D7D7"/>
<rect x="52" y="83" width="7.5" height="7.5" fill="#D7D7D7"/>
<rect x="59.5" y="83" width="7.5" height="7.5" fill="#D7D7D7"/>
<rect x="67" y="83" width="7.5" height="7.5" fill="#D7D7D7"/>
<rect x="74.5" y="83" width="7.5" height="7.5" fill="#D7D7D7"/>
<rect x="82" y="83" width="7.5" height="7.5" fill="#D7D7D7"/>
<rect x="89.5" y="83" width="7.5" height="7.5" fill="#D7D7D7"/>
<rect x="97" y="83" width="7.5" height="7.5" fill="#D7D7D7"/>
<rect x="104.5" y="83" width="7.5" height="7.5" fill="#D7D7D7"/>
<rect x="112" y="83" width="7.5" height="7.5" fill="#D7D7D7"/>
<rect x="119.5" y="83" width="7.5" height="7.5" fill="#D7D7D7"/>
<rect x="14.5" y="90.5" width="7.5" height="7.5" fill="#D7D7D7"/>
<rect x="22" y="90.5" width="7.5" height="7.5" fill="#D7D7D7"/>
<rect x="29.5" y="90.5" width="7.5" height="7.5" fill="#D7D7D7"/>
<rect x="37" y="90.5" width="7.5" height="7.5" fill="#D7D7D7"/>
<rect x="44.5" y="90.5" width="7.5" height="7.5" fill="#D7D7D7"/>
<rect x="52" y="90.5" width="7.5" height="7.5" fill="#D7D7D7"/>
<rect x="59.5" y="90.5" width="7.5" height="7.5" fill="#D7D7D7"/>
<rect x="67" y="90.5" width="7.5" height="7.5" fill="#D7D7D7"/>
<rect x="74.5" y="90.5" width="7.5" height="7.5" fill="#D7D7D7"/>
<rect x="82" y="90.5" width="7.5" height="7.5" fill="#D7D7D7"/>
<rect x="89.5" y="90.5" width="7.5" height="7.5" fill="#D7D7D7"/>
<rect x="97" y="90.5" width="7.5" height="7.5" fill="#D7D7D7"/>
<rect x="104.5" y="90.5" width="7.5" height="7.5" fill="#D7D7D7"/>
<rect x="112" y="90.5" width="7.5" height="7.5" fill="#D7D7D7"/>
<rect x="119.5" y="90.5" width="7.5" height="7.5" fill="#D7D7D7"/>
<rect x="14.5" y="98" width="7.5" height="7.5" fill="#D7D7D7"/>
<rect x="22" y="98" width="7.5" height="7.5" fill="#D7D7D7"/>
<rect x="29.5" y="98" width="7.5" height="7.5" fill="#D7D7D7"/>
<rect x="37" y="98" width="7.5" height="7.5" fill="#D7D7D7"/>
<rect x="44.5" y="98" width="7.5" height="7.5" fill="#D7D7D7"/>
<rect x="52" y="98" width="7.5" height="7.5" fill="#D7D7D7"/>
<rect x="59.5" y="98" width="7.5" height="7.5" fill="#D7D7D7"/>
<rect x="67" y="98" width="7.5" height="7.5" fill="#D7D7D7"/>
<rect x="74.5" y="98" width="7.5" height="7.5" fill="#D7D7D7"/>
<rect x="82" y="98" width="7.5" height="7.5" fill="#D7D7D7"/>
<rect x="89.5" y="98" width="7.5" height="7.5" fill="#D7D7D7"/>
<rect x="97" y="98" width="7.5" height="7.5" fill="#D7D7D7"/>
<rect x="104.5" y="98" width="7.5" height="7.5" fill="#D7D7D7"/>
<rect x="112" y="98" width="7.5" height="7.5" fill="#D7D7D7"/>
<rect x="119.5" y="98" width="7.5" height="7.5" fill="#D7D7D7"/>
<rect x="14.5" y="105.5" width="7.5" height="7.5" fill="#D7D7D7"/>
<rect x="22" y="105.5" width="7.5" height="7.5" fill="#D7D7D7"/>
<rect x="29.5" y="105.5" width="7.5" height="7.5" fill="#D7D7D7"/>
<rect x="37" y="105.5" width="7.5" height="7.5" fill="#D7D7D7"/>
<rect x="44.5" y="105.5" width="7.5" height="7.5" fill="#D7D7D7"/>
<rect x="52" y="105.5" width="7.5" height="7.5" fill="#D7D7D7"/>
<rect x="59.5" y="105.5" width="7.5" height="7.5" fill="#D7D7D7"/>
<rect x="67" y="105.5" width="7.5" height="7.5" fill="#D7D7D7"/>
<rect x="74.5" y="105.5" width="7.5" height="7.5" fill="#D7D7D7"/>
<rect x="82" y="105.5" width="7.5" height="7.5" fill="#D7D7D7"/>
<rect x="89.5" y="105.5" width="7.5" height="7.5" fill="#D7D7D7"/>
<rect x="97" y="105.5" width="7.5" height="7.5" fill="#D7D7D7"/>
<rect x="104.5" y="105.5" width="7.5" height="7.5" fill="#D7D7D7"/>
<rect x="112" y="105.5" width="7.5" height="7.5" fill="#D7D7D7"/>
<rect x="119.5" y="105.5" width="7.5" height="7.5" fill="#D7D7D7"/>
<rect x="14.5" y="113" width="7.5" height="7.5" fill="#D7D7D7"/>
<rect x="22" y="113" width="7.5" height="7.5" fill="#D7D7D7"/>
<rect x="29.5" y="113" width="7.5" height="7.5" fill="#D7D7D7"/>
<rect x="37" y="113" width="7.5" height="7.5" fill="#D7D7D7"/>
<rect x="44.5" y="113" width="7.5" height="7.5" fill="#D7D7D7"/>
<rect x="52" y="113" width="7.5" height="7.5" fill="#D7D7D7"/>
<rect x="59.5" y="113" width="7.5" height="7.5" fill="#D7D7D7"/>
<rect x="67" y="113" width="7.5" height="7.5" fill="#D7D7D7"/>
<rect x="74.5" y="113" width="7.5" height="7.5" fill="#D7D7D7"/>
<rect x="82" y="113" width="7.5" height="7.5" fill="#D7D7D7"/>
<rect x="89.5" y="113" width="7.5" height="7.5" fill="#D7D7D7"/>
<rect x="97" y="113" width="7.5" height="7.5" fill="#D7D7D7"/>
<rect x="104.5" y="113" width="7.5" height="7.5" fill="#D7D7D7"/>
<rect x="112" y="113" width="7.5" height="7.5" fill="#D7D7D7"/>
<rect x="119.5" y="113" width="7.5" height="7.5" fill="#D7D7D7"/>
<rect x="14.5" y="83" width="7.5" height="7.5" fill="#D7D7D7"/>
<rect x="22" y="83" width="7.5" height="7.5" fill="#D7D7D7"/>
<rect x="29.5" y="83" width="7.5" height="7.5" fill="#D7D7D7"/>
<rect x="37" y="83" width="7.5" height="7.5" fill="#D7D7D7"/>
<rect x="44.5" y="83" width="7.5" height="7.5" fill="#000001"/>
<rect x="52" y="83" width="7.5" height="7.5" fill="#D7D7D7"/>
<rect x="59.5" y="83" width="7.5" height="7.5" fill="#D7D7D7"/>
<rect x="67" y="83" width="7.5" height="7.5" fill="#D7D7D7"/>
<rect x="74.5" y="83" width="7.5" height="7.5" fill="#D7D7D7"/>
<rect x="82" y="83" width="7.5" height="7.5" fill="#D7D7D7"/>
<rect x="89.5" y="83" width="7.5" height="7.5" fill="#D7D7D7"/>
<rect x="97" y="83" width="7.5" height="7.5" fill="#D7D7D7"/>
<rect x="104.5" y="83" width="7.5" height="7.5" fill="#D7D7D7"/>
<rect x="112" y="83" width="7.5" height="7.5" fill="#D7D7D7"/>
<rect x="119.5" y="83" width="7.5" height="7.5" fill="#404343"/>
<rect x="14.5" y="90.5" width="7.5" height="7.5" fill="#D7D7D7"/>
<rect x="22" y="90.5" width="7.5" height="7.5" fill="#D7D7D7"/>
<rect x="29.5" y="90.5" width="7.5" height="7.5" fill="#D7D7D7"/>
<rect x="37" y="90.5" width="7.5" height="7.5" fill="#000001"/>
<rect x="44.5" y="90.5" width="7.5" height="7.5" fill="#D7D7D7"/>
<rect x="52" y="90.5" width="7.5" height="7.5" fill="#D7D7D7"/>
<rect x="59.5" y="90.5" width="7.5" height="7.5" fill="#D7D7D7"/>
<rect x="67" y="90.5" width="7.5" height="7.5" fill="#D7D7D7"/>
<rect x="74.5" y="90.5" width="7.5" height="7.5" fill="#D7D7D7"/>
<rect x="82" y="90.5" width="7.5" height="7.5" fill="#D7D7D7"/>
<rect x="89.5" y="90.5" width="7.5" height="7.5" fill="#D7D7D7"/>
<rect x="97" y="90.5" width="7.5" height="7.5" fill="#D7D7D7"/>
<rect x="104.5" y="90.5" width="7.5" height="7.5" fill="#D7D7D7"/>
<rect x="112" y="90.5" width="7.5" height="7.5" fill="#D7D7D7"/>
<rect x="119.5" y="90.5" width="7.5" height="7.5" fill="#404343"/>
<rect x="14.5" y="98" width="7.5" height="7.5" fill="#D7D7D7"/>
<rect x="22" y="98" width="7.5" height="7.5" fill="#D7D7D7"/>
<rect x="29.5" y="98" width="7.5" height="7.5" fill="#000001"/>
<rect x="37" y="98" width="7.5" height="7.5" fill="#D7D7D7"/>
<rect x="44.5" y="98" width="7.5" height="7.5" fill="#D7D7D7"/>
<rect x="52" y="98" width="7.5" height="7.5" fill="#D7D7D7"/>
<rect x="59.5" y="98" width="7.5" height="7.5" fill="#D7D7D7"/>
<rect x="67" y="98" width="7.5" height="7.5" fill="#D7D7D7"/>
<rect x="74.5" y="98" width="7.5" height="7.5" fill="#D7D7D7"/>
<rect x="82" y="98" width="7.5" height="7.5" fill="#D7D7D7"/>
<rect x="89.5" y="98" width="7.5" height="7.5" fill="#D7D7D7"/>
<rect x="97" y="98" width="7.5" height="7.5" fill="#D7D7D7"/>
<rect x="104.5" y="98" width="7.5" height="7.5" fill="white"/>
<rect x="112" y="98" width="7.5" height="7.5" fill="#D7D7D7"/>
<rect x="119.5" y="98" width="7.5" height="7.5" fill="#404343"/>
<rect x="14.5" y="105.5" width="7.5" height="7.5" fill="#D7D7D7"/>
<rect x="22" y="105.5" width="7.5" height="7.5" fill="#999999"/>
<rect x="29.5" y="105.5" width="7.5" height="7.5" fill="#D7D7D7"/>
<rect x="37" y="105.5" width="7.5" height="7.5" fill="#D7D7D7"/>
<rect x="44.5" y="105.5" width="7.5" height="7.5" fill="#D7D7D7"/>
<rect x="52" y="105.5" width="7.5" height="7.5" fill="#D7D7D7"/>
<rect x="59.5" y="105.5" width="7.5" height="7.5" fill="#D7D7D7"/>
<rect x="67" y="105.5" width="7.5" height="7.5" fill="#D7D7D7"/>
<rect x="74.5" y="105.5" width="7.5" height="7.5" fill="#D7D7D7"/>
<rect x="82" y="105.5" width="7.5" height="7.5" fill="#D7D7D7"/>
<rect x="89.5" y="105.5" width="7.5" height="7.5" fill="#D7D7D7"/>
<rect x="97" y="105.5" width="7.5" height="7.5" fill="white"/>
<rect x="104.5" y="105.5" width="7.5" height="7.5" fill="#999999"/>
<rect x="112" y="105.5" width="7.5" height="7.5" fill="#D7D7D7"/>
<rect x="119.5" y="105.5" width="7.5" height="7.5" fill="#404343"/>
<rect x="14.5" y="113" width="7.5" height="7.5" fill="#404343"/>
<rect x="22" y="113" width="7.5" height="7.5" fill="#999999"/>
<rect x="29.5" y="113" width="7.5" height="7.5" fill="#999999"/>
<rect x="37" y="113" width="7.5" height="7.5" fill="#999999"/>
<rect x="44.5" y="113" width="7.5" height="7.5" fill="#999999"/>
<rect x="52" y="113" width="7.5" height="7.5" fill="#999999"/>
<rect x="59.5" y="113" width="7.5" height="7.5" fill="#999999"/>
<rect x="67" y="113" width="7.5" height="7.5" fill="#999999"/>
<rect x="74.5" y="113" width="7.5" height="7.5" fill="#999999"/>
<rect x="82" y="113" width="7.5" height="7.5" fill="#999999"/>
<rect x="89.5" y="113" width="7.5" height="7.5" fill="#999999"/>
<rect x="97" y="113" width="7.5" height="7.5" fill="#999999"/>
<rect x="104.5" y="113" width="7.5" height="7.5" fill="#999999"/>
<rect x="22" y="15.5" width="7.5" height="7.5" transform="rotate(90 22 15.5)" fill="#999999"/>
<rect x="22" y="23" width="7.5" height="7.5" transform="rotate(90 22 23)" fill="#999999"/>
<rect x="22" y="30.5" width="7.5" height="7.5" transform="rotate(90 22 30.5)" fill="#999999"/>
<rect x="22" y="38" width="7.5" height="7.5" transform="rotate(90 22 38)" fill="#999999"/>
<rect x="22" y="45.5" width="7.5" height="7.5" transform="rotate(90 22 45.5)" fill="#999999"/>
<rect x="22" y="53" width="7.5" height="7.5" transform="rotate(90 22 53)" fill="#999999"/>
<rect x="22" y="60.5" width="7.5" height="7.5" transform="rotate(90 22 60.5)" fill="#999999"/>
<rect x="22" y="68" width="7.5" height="7.5" transform="rotate(90 22 68)" fill="#999999"/>
<rect x="22" y="75.5" width="7.5" height="7.5" transform="rotate(90 22 75.5)" fill="#999999"/>
<rect x="22" y="83" width="7.5" height="7.5" transform="rotate(90 22 83)" fill="#999999"/>
<rect x="22" y="90.5" width="7.5" height="7.5" transform="rotate(90 22 90.5)" fill="#999999"/>
<rect x="22" y="98" width="7.5" height="7.5" transform="rotate(90 22 98)" fill="#999999"/>
<rect x="22" y="105.5" width="7.5" height="7.5" transform="rotate(90 22 105.5)" fill="#999999"/>
<rect x="119.5" y="15.5" width="7.5" height="7.5" transform="rotate(90 119.5 15.5)" fill="#404343"/>
<rect x="119.5" y="23" width="7.5" height="7.5" transform="rotate(90 119.5 23)" fill="#999999"/>
<rect x="119.5" y="30.5" width="7.5" height="7.5" transform="rotate(90 119.5 30.5)" fill="#999999"/>
<rect x="119.5" y="38" width="7.5" height="7.5" transform="rotate(90 119.5 38)" fill="#999999"/>
<rect x="119.5" y="45.5" width="7.5" height="7.5" transform="rotate(90 119.5 45.5)" fill="#999999"/>
<rect x="119.5" y="53" width="7.5" height="7.5" transform="rotate(90 119.5 53)" fill="#999999"/>
<rect x="119.5" y="60.5" width="7.5" height="7.5" transform="rotate(90 119.5 60.5)" fill="#999999"/>
<rect x="119.5" y="68" width="7.5" height="7.5" transform="rotate(90 119.5 68)" fill="#999999"/>
<rect x="119.5" y="75.5" width="7.5" height="7.5" transform="rotate(90 119.5 75.5)" fill="#999999"/>
<rect x="119.5" y="83" width="7.5" height="7.5" transform="rotate(90 119.5 83)" fill="#999999"/>
<rect x="119.5" y="90.5" width="7.5" height="7.5" transform="rotate(90 119.5 90.5)" fill="#999999"/>
<rect x="119.5" y="98" width="7.5" height="7.5" transform="rotate(90 119.5 98)" fill="#999999"/>
<rect x="119.5" y="105.5" width="7.5" height="7.5" transform="rotate(90 119.5 105.5)" fill="#999999"/>
<rect x="112" y="23" width="7.5" height="7.5" transform="rotate(180 112 23)" fill="#999999"/>
<rect x="104.5" y="23" width="7.5" height="7.5" transform="rotate(180 104.5 23)" fill="#999999"/>
<rect x="97" y="23" width="7.5" height="7.5" transform="rotate(180 97 23)" fill="#999999"/>
<rect x="89.5" y="23" width="7.5" height="7.5" transform="rotate(180 89.5 23)" fill="#999999"/>
<rect x="82" y="23" width="7.5" height="7.5" transform="rotate(180 82 23)" fill="#999999"/>
<rect x="74.5" y="23" width="7.5" height="7.5" transform="rotate(180 74.5 23)" fill="#999999"/>
<rect x="67" y="23" width="7.5" height="7.5" transform="rotate(180 67 23)" fill="#999999"/>
<rect x="59.5" y="23" width="7.5" height="7.5" transform="rotate(180 59.5 23)" fill="#999999"/>
<rect x="52" y="23" width="7.5" height="7.5" transform="rotate(180 52 23)" fill="#999999"/>
<rect x="44.5" y="23" width="7.5" height="7.5" transform="rotate(180 44.5 23)" fill="#999999"/>
<rect x="37" y="23" width="7.5" height="7.5" transform="rotate(180 37 23)" fill="#999999"/>
<rect x="29.5" y="23" width="7.5" height="7.5" transform="rotate(180 29.5 23)" fill="#999999"/>
<rect x="22" y="23" width="7.5" height="7.5" transform="rotate(180 22 23)" fill="#404343"/>
<rect x="112" y="113" width="7.5" height="7.5" fill="#404343"/>
<rect x="119.5" y="113" width="7.5" height="7.5" fill="#404343"/>
<rect x="119.5" y="8" width="7.5" height="7.5" transform="rotate(90 119.5 8)" fill="#404343"/>
<rect x="112" y="8" width="7.5" height="7.5" transform="rotate(90 112 8)" fill="#404343"/>
<rect x="104.5" y="8" width="7.5" height="7.5" transform="rotate(90 104.5 8)" fill="#404343"/>
<rect x="97" y="8" width="7.5" height="7.5" transform="rotate(90 97 8)" fill="#404343"/>
<rect x="89.5" y="8" width="7.5" height="7.5" transform="rotate(90 89.5 8)" fill="#404343"/>
<rect x="82" y="8" width="7.5" height="7.5" transform="rotate(90 82 8)" fill="#404343"/>
<rect x="74.5" y="8" width="7.5" height="7.5" transform="rotate(90 74.5 8)" fill="#404343"/>
<rect x="67" y="8" width="7.5" height="7.5" transform="rotate(90 67 8)" fill="#404343"/>
<rect x="59.5" y="8" width="7.5" height="7.5" transform="rotate(90 59.5 8)" fill="#404343"/>
<rect x="52" y="8" width="7.5" height="7.5" transform="rotate(90 52 8)" fill="#404343"/>
<rect x="44.5" y="8" width="7.5" height="7.5" transform="rotate(90 44.5 8)" fill="#404343"/>
<rect x="37" y="8" width="7.5" height="7.5" transform="rotate(90 37 8)" fill="#404343"/>
<rect x="29.5" y="8" width="7.5" height="7.5" transform="rotate(90 29.5 8)" fill="#404343"/>
<rect x="22" y="8" width="7.5" height="7.5" transform="rotate(90 22 8)" fill="#404343"/>
<rect x="7" y="15.5" width="7.5" height="7.5" fill="#404343"/>
<rect x="7" y="23" width="7.5" height="7.5" fill="#404343"/>
<rect x="7" y="30.5" width="7.5" height="7.5" fill="#404343"/>
<rect x="7" y="38" width="7.5" height="7.5" fill="#404343"/>
<rect x="7" y="45.5" width="7.5" height="7.5" fill="#404343"/>
<rect x="7" y="53" width="7.5" height="7.5" fill="#404343"/>
<rect x="7" y="60.5" width="7.5" height="7.5" fill="#404343"/>
<rect x="7" y="68" width="7.5" height="7.5" fill="#404343"/>
<rect x="7" y="75.5" width="7.5" height="7.5" fill="#404343"/>
<rect x="7" y="83" width="7.5" height="7.5" fill="#404343"/>
<rect x="7" y="90.5" width="7.5" height="7.5" fill="#404343"/>
<rect x="7" y="98" width="7.5" height="7.5" fill="#404343"/>
<rect x="7" y="105.5" width="7.5" height="7.5" fill="#404343"/>
<rect x="7" y="113" width="7.5" height="7.5" fill="#404343"/>
<rect x="119.5" y="120.5" width="7.5" height="7.5" transform="rotate(90 119.5 120.5)" fill="#404343"/>
<rect x="112" y="120.5" width="7.5" height="7.5" transform="rotate(90 112 120.5)" fill="#404343"/>
<rect x="104.5" y="120.5" width="7.5" height="7.5" transform="rotate(90 104.5 120.5)" fill="#404343"/>
<rect x="97" y="120.5" width="7.5" height="7.5" transform="rotate(90 97 120.5)" fill="#404343"/>
<rect x="89.5" y="120.5" width="7.5" height="7.5" transform="rotate(90 89.5 120.5)" fill="#404343"/>
<rect x="82" y="120.5" width="7.5" height="7.5" transform="rotate(90 82 120.5)" fill="#404343"/>
<rect x="74.5" y="120.5" width="7.5" height="7.5" transform="rotate(90 74.5 120.5)" fill="#404343"/>
<rect x="67" y="120.5" width="7.5" height="7.5" transform="rotate(90 67 120.5)" fill="#404343"/>
<rect x="59.5" y="120.5" width="7.5" height="7.5" transform="rotate(90 59.5 120.5)" fill="#404343"/>
<rect x="52" y="120.5" width="7.5" height="7.5" transform="rotate(90 52 120.5)" fill="#404343"/>
<rect x="44.5" y="120.5" width="7.5" height="7.5" transform="rotate(90 44.5 120.5)" fill="#404343"/>
<rect x="37" y="120.5" width="7.5" height="7.5" transform="rotate(90 37 120.5)" fill="#404343"/>
<rect x="29.5" y="120.5" width="7.5" height="7.5" transform="rotate(90 29.5 120.5)" fill="#404343"/>
<rect x="22" y="120.5" width="7.5" height="7.5" transform="rotate(90 22 120.5)" fill="#404343"/>
<path d="M107 52.8119H103.223V82.906H107V52.8119Z" fill="#000001"/>
<path d="M103.223 82.9059H99.4707V86.6584H103.223V82.9059Z" fill="#000001"/>
<path d="M103.223 49.0347H99.4707V52.8119H103.223V49.0347Z" fill="#000001"/>
<path d="M99.4703 86.6584H95.7178V90.4109H99.4703V86.6584Z" fill="#000001"/>
<path d="M99.4703 60.3169H95.7178V75.3763H99.4703V60.3169Z" fill="#000001"/>
<path d="M99.4703 45.2822H95.7178V49.0347H99.4703V45.2822Z" fill="#000001"/>
<path d="M95.7176 75.3762H91.9404V79.1287H95.7176V75.3762Z" fill="#000001"/>
<path d="M95.7176 56.5643H91.9404V60.3168H95.7176V56.5643Z" fill="#000001"/>
<path d="M91.941 64.0941H88.1885V71.6238H91.941V64.0941Z" fill="#000001"/>
<path d="M84.4107 41.5297H80.6582V94.1881H84.4107V41.5297Z" fill="#000001"/>
<path d="M80.6588 94.1881H76.9062V97.9406H80.6588V94.1881Z" fill="#000001"/>
<path d="M80.6588 37.7524H76.9062V41.5296H80.6588V37.7524Z" fill="#000001"/>
<path d="M76.9062 97.9407H65.624V101.718H76.9062V97.9407Z" fill="#000001"/>
<path d="M73.1285 82.9059H69.376V86.6584H73.1285V82.9059Z" fill="#000001"/>
<path d="M73.1285 49.0347H69.376V52.8119H73.1285V49.0347Z" fill="#000001"/>
<path d="M76.9062 34H65.624V37.7525H76.9062V34Z" fill="#000001"/>
<path d="M69.3765 52.8119H65.624V82.906H69.3765V52.8119Z" fill="#000001"/>
<path d="M65.6239 94.1881H61.8467V97.9406H65.6239V94.1881Z" fill="#000001"/>
<path d="M65.6239 37.7524H61.8467V41.5296H65.6239V37.7524Z" fill="#000001"/>
<path d="M61.8463 90.4109H58.0938V94.1881H61.8463V90.4109Z" fill="#000001"/>
<path d="M61.8463 41.5297H58.0938V45.2822H61.8463V41.5297Z" fill="#000001"/>
<path d="M58.0936 86.6584H54.3164V90.4109H58.0936V86.6584Z" fill="#000001"/>
<path d="M58.0936 45.2822H54.3164V49.0347H58.0936V45.2822Z" fill="#000001"/>
<path d="M54.317 82.9059H50.5645V86.6584H54.317V82.9059Z" fill="#000001"/>
<path d="M54.317 49.0347H50.5645V52.8119H54.317V49.0347Z" fill="#000001"/>
<path d="M50.564 79.1288H46.8115V82.906H50.564V79.1288Z" fill="#000001"/>
<path d="M50.564 52.8119H46.8115V56.5644H50.564V52.8119Z" fill="#000001"/>
<path d="M46.8119 56.5643H31.7525V60.3168H28V75.3762H31.7525V79.1287H46.8119V56.5643ZM39.2822 64.094H35.5297V71.6237H31.7525V64.094H35.5297V60.3168H39.2822V64.094Z" fill="#000001"/>
</svg>
