<svg width="80" height="80" viewBox="0 0 80 80" fill="none" xmlns="http://www.w3.org/2000/svg">
<rect x="8" y="8" width="8" height="8" fill="#8E8F7B"/>
<rect x="16" y="8" width="8" height="8" fill="#8E8F7B"/>
<rect x="24" y="8" width="8" height="8" fill="#8E8F7B"/>
<rect x="32" y="8" width="8" height="8" fill="#8E8F7B"/>
<rect x="40" y="8" width="8" height="8" fill="#8E8F7B"/>
<rect x="48" y="8" width="8" height="8" fill="#8E8F7B"/>
<rect x="56" y="8" width="8" height="8" fill="#8E8F7B"/>
<rect x="64" y="8" width="8" height="8" fill="#8E8F7B"/>
<rect x="8" y="8" width="8" height="8" fill="#6C6E54"/>
<rect x="16" y="8" width="8" height="8" fill="#6C6E54"/>
<rect x="24" y="8" width="8" height="8" fill="#6C6E54"/>
<rect x="32" y="8" width="8" height="8" fill="#8E8F7B"/>
<rect x="40" y="8" width="8" height="8" fill="#6C6E54"/>
<rect x="48" y="8" width="8" height="8" fill="#8E8F7B"/>
<rect x="56" y="8" width="8" height="8" fill="#E9EBCF"/>
<rect x="64" y="8" width="8" height="8" fill="#E9EBCF"/>
<rect x="8" y="16" width="8" height="8" fill="#8E8F7B"/>
<rect x="16" y="16" width="8" height="8" fill="#8E8F7B"/>
<rect x="24" y="16" width="8" height="8" fill="#8E8F7B"/>
<rect x="32" y="16" width="8" height="8" fill="#8E8F7B"/>
<rect x="40" y="16" width="8" height="8" fill="#8E8F7B"/>
<rect x="48" y="16" width="8" height="8" fill="#8E8F7B"/>
<rect x="56" y="16" width="8" height="8" fill="#8E8F7B"/>
<rect x="64" y="16" width="8" height="8" fill="#8E8F7B"/>
<rect x="8" y="24" width="8" height="8" fill="#8E8F7B"/>
<rect x="16" y="24" width="8" height="8" fill="#8E8F7B"/>
<rect x="24" y="24" width="8" height="8" fill="#8E8F7B"/>
<rect x="32" y="24" width="8" height="8" fill="#8E8F7B"/>
<rect x="40" y="24" width="8" height="8" fill="#8E8F7B"/>
<rect x="48" y="24" width="8" height="8" fill="#8E8F7B"/>
<rect x="56" y="24" width="8" height="8" fill="#8E8F7B"/>
<rect x="64" y="24" width="8" height="8" fill="#8E8F7B"/>
<rect x="8" y="16" width="8" height="8" fill="#6C6E54"/>
<rect x="16" y="16" width="8" height="8" fill="#8E8F7B"/>
<rect x="24" y="16" width="8" height="8" fill="#8E8F7B"/>
<rect x="32" y="16" width="8" height="8" fill="#8E8F7B"/>
<rect x="40" y="16" width="8" height="8" fill="#8E8F7B"/>
<rect x="48" y="16" width="8" height="8" fill="#8E8F7B"/>
<rect x="56" y="16" width="8" height="8" fill="#8E8F7B"/>
<rect x="64" y="16" width="8" height="8" fill="#E9EBCF"/>
<rect x="8" y="24" width="8" height="8" fill="#6C6E54"/>
<rect x="16" y="24" width="8" height="8" fill="#8E8F7B"/>
<rect x="24" y="24" width="8" height="8" fill="#8E8F7B"/>
<rect x="32" y="24" width="8" height="8" fill="#8E8F7B"/>
<rect x="40" y="24" width="8" height="8" fill="#8E8F7B"/>
<rect x="48" y="24" width="8" height="8" fill="#8E8F7B"/>
<rect x="56" y="24" width="8" height="8" fill="#8E8F7B"/>
<rect x="64" y="24" width="8" height="8" fill="#6C6E54"/>
<rect x="8" y="32" width="8" height="8" fill="#8E8F7B"/>
<rect x="16" y="32" width="8" height="8" fill="#8E8F7B"/>
<rect x="24" y="32" width="8" height="8" fill="#8E8F7B"/>
<rect x="32" y="32" width="8" height="8" fill="#8E8F7B"/>
<rect x="40" y="32" width="8" height="8" fill="#8E8F7B"/>
<rect x="48" y="32" width="8" height="8" fill="#8E8F7B"/>
<rect x="56" y="32" width="8" height="8" fill="#8E8F7B"/>
<rect x="64" y="32" width="8" height="8" fill="#8E8F7B"/>
<rect x="8" y="40" width="8" height="8" fill="#8E8F7B"/>
<rect x="16" y="40" width="8" height="8" fill="#8E8F7B"/>
<rect x="24" y="40" width="8" height="8" fill="#8E8F7B"/>
<rect x="32" y="40" width="8" height="8" fill="#8E8F7B"/>
<rect x="40" y="40" width="8" height="8" fill="#8E8F7B"/>
<rect x="48" y="40" width="8" height="8" fill="#8E8F7B"/>
<rect x="56" y="40" width="8" height="8" fill="#8E8F7B"/>
<rect x="64" y="40" width="8" height="8" fill="#8E8F7B"/>
<rect x="8" y="32" width="8" height="8" fill="#6C6E54"/>
<rect x="16" y="32" width="8" height="8" fill="#8E8F7B"/>
<rect x="24" y="32" width="8" height="8" fill="#8E8F7B"/>
<rect x="32" y="32" width="8" height="8" fill="#8E8F7B"/>
<rect x="40" y="32" width="8" height="8" fill="#8E8F7B"/>
<rect x="48" y="32" width="8" height="8" fill="#8E8F7B"/>
<rect x="56" y="32" width="8" height="8" fill="#8E8F7B"/>
<rect x="64" y="32" width="8" height="8" fill="#6C6E54"/>
<rect x="8" y="40" width="8" height="8" fill="#8E8F7B"/>
<rect x="16" y="40" width="8" height="8" fill="#8E8F7B"/>
<rect x="24" y="40" width="8" height="8" fill="#8E8F7B"/>
<rect x="32" y="40" width="8" height="8" fill="#8E8F7B"/>
<rect x="40" y="40" width="8" height="8" fill="#8E8F7B"/>
<rect x="48" y="40" width="8" height="8" fill="#8E8F7B"/>
<rect x="56" y="40" width="8" height="8" fill="#8E8F7B"/>
<rect x="64" y="40" width="8" height="8" fill="#6C6E54"/>
<rect x="8" y="48" width="8" height="8" fill="#8E8F7B"/>
<rect x="16" y="48" width="8" height="8" fill="#8E8F7B"/>
<rect x="24" y="48" width="8" height="8" fill="#8E8F7B"/>
<rect x="32" y="48" width="8" height="8" fill="#8E8F7B"/>
<rect x="40" y="48" width="8" height="8" fill="#8E8F7B"/>
<rect x="48" y="48" width="8" height="8" fill="#8E8F7B"/>
<rect x="56" y="48" width="8" height="8" fill="#8E8F7B"/>
<rect x="64" y="48" width="8" height="8" fill="#8E8F7B"/>
<rect x="8" y="56" width="8" height="8" fill="#8E8F7B"/>
<rect x="16" y="56" width="8" height="8" fill="#8E8F7B"/>
<rect x="24" y="56" width="8" height="8" fill="#8E8F7B"/>
<rect x="32" y="56" width="8" height="8" fill="#8E8F7B"/>
<rect x="40" y="56" width="8" height="8" fill="#8E8F7B"/>
<rect x="48" y="56" width="8" height="8" fill="#8E8F7B"/>
<rect x="56" y="56" width="8" height="8" fill="#8E8F7B"/>
<rect x="64" y="56" width="8" height="8" fill="#8E8F7B"/>
<rect x="8" y="48" width="8" height="8" fill="#8E8F7B"/>
<rect x="16" y="48" width="8" height="8" fill="#8E8F7B"/>
<rect x="24" y="48" width="8" height="8" fill="#8E8F7B"/>
<rect x="32" y="48" width="8" height="8" fill="#8E8F7B"/>
<rect x="40" y="48" width="8" height="8" fill="#8E8F7B"/>
<rect x="48" y="48" width="8" height="8" fill="#8E8F7B"/>
<rect x="56" y="48" width="8" height="8" fill="#6C6E54"/>
<rect x="64" y="48" width="8" height="8" fill="#E9EBCF"/>
<rect x="8" y="56" width="8" height="8" fill="#8E8F7B"/>
<rect x="16" y="56" width="8" height="8" fill="#8E8F7B"/>
<rect x="24" y="56" width="8" height="8" fill="#8E8F7B"/>
<rect x="32" y="56" width="8" height="8" fill="#8E8F7B"/>
<rect x="40" y="56" width="8" height="8" fill="#8E8F7B"/>
<rect x="48" y="56" width="8" height="8" fill="#6C6E54"/>
<rect x="56" y="56" width="8" height="8" fill="#6C6E54"/>
<rect x="64" y="56" width="8" height="8" fill="#6C6E54"/>
<rect x="8" y="64" width="8" height="8" fill="#8E8F7B"/>
<rect x="16" y="64" width="8" height="8" fill="#8E8F7B"/>
<rect x="24" y="64" width="8" height="8" fill="#8E8F7B"/>
<rect x="32" y="64" width="8" height="8" fill="#8E8F7B"/>
<rect x="40" y="64" width="8" height="8" fill="#8E8F7B"/>
<rect x="48" y="64" width="8" height="8" fill="#8E8F7B"/>
<rect x="56" y="64" width="8" height="8" fill="#8E8F7B"/>
<rect x="64" y="64" width="8" height="8" fill="#8E8F7B"/>
<rect x="8" y="72" width="8" height="8" fill="#8E8F7B"/>
<rect x="16" y="72" width="8" height="8" fill="#8E8F7B"/>
<rect x="24" y="72" width="8" height="8" fill="#8E8F7B"/>
<rect x="32" y="72" width="8" height="8" fill="#8E8F7B"/>
<rect x="40" y="72" width="8" height="8" fill="#8E8F7B"/>
<rect x="48" y="72" width="8" height="8" fill="#8E8F7B"/>
<rect x="56" y="72" width="8" height="8" fill="#8E8F7B"/>
<rect x="64" y="72" width="8" height="8" fill="#8E8F7B"/>
<rect x="8" y="64" width="8" height="8" fill="#6C6E54"/>
<rect x="16" y="64" width="8" height="8" fill="#6C6E54"/>
<rect x="24" y="64" width="8" height="8" fill="#6C6E54"/>
<rect x="32" y="64" width="8" height="8" fill="#6C6E54"/>
<rect x="40" y="64" width="8" height="8" fill="#6C6E54"/>
<rect x="48" y="64" width="8" height="8" fill="#6C6E54"/>
<rect x="56" y="64" width="8" height="8" fill="#6C6E54"/>
<rect x="64" y="64" width="8" height="8" fill="#6C6E54"/>
<rect x="8" y="72" width="8" height="8" fill="black"/>
<rect x="16" y="72" width="8" height="8" fill="black"/>
<rect x="24" y="72" width="8" height="8" fill="black"/>
<rect x="32" y="72" width="8" height="8" fill="black"/>
<rect x="40" y="72" width="8" height="8" fill="black"/>
<rect x="48" y="72" width="8" height="8" fill="black"/>
<rect x="56" y="72" width="8" height="8" fill="black"/>
<rect x="64" y="72" width="8" height="8" fill="black"/>
<rect x="8" y="8" width="8" height="8" transform="rotate(90 8 8)" fill="#8E8F7B"/>
<rect x="8" y="16" width="8" height="8" transform="rotate(90 8 16)" fill="#8E8F7B"/>
<rect x="8" y="24" width="8" height="8" transform="rotate(90 8 24)" fill="#8E8F7B"/>
<rect x="8" y="32" width="8" height="8" transform="rotate(90 8 32)" fill="#8E8F7B"/>
<rect x="8" y="40" width="8" height="8" transform="rotate(90 8 40)" fill="#8E8F7B"/>
<rect x="8" y="48" width="8" height="8" transform="rotate(90 8 48)" fill="#8E8F7B"/>
<rect x="8" y="56" width="8" height="8" transform="rotate(90 8 56)" fill="#8E8F7B"/>
<rect x="8" y="64" width="8" height="8" transform="rotate(90 8 64)" fill="#8E8F7B"/>
<rect x="8" y="8" width="8" height="8" transform="rotate(90 8 8)" fill="black"/>
<rect x="8" y="16" width="8" height="8" transform="rotate(90 8 16)" fill="black"/>
<rect x="8" y="24" width="8" height="8" transform="rotate(90 8 24)" fill="black"/>
<rect x="8" y="32" width="8" height="8" transform="rotate(90 8 32)" fill="black"/>
<rect x="8" y="40" width="8" height="8" transform="rotate(90 8 40)" fill="black"/>
<rect x="8" y="48" width="8" height="8" transform="rotate(90 8 48)" fill="black"/>
<rect x="8" y="56" width="8" height="8" transform="rotate(90 8 56)" fill="black"/>
<rect x="8" y="64" width="8" height="8" transform="rotate(90 8 64)" fill="black"/>
<rect x="80" y="8" width="8" height="8" transform="rotate(90 80 8)" fill="#8E8F7B"/>
<rect x="80" y="16" width="8" height="8" transform="rotate(90 80 16)" fill="#8E8F7B"/>
<rect x="80" y="24" width="8" height="8" transform="rotate(90 80 24)" fill="#8E8F7B"/>
<rect x="80" y="32" width="8" height="8" transform="rotate(90 80 32)" fill="#8E8F7B"/>
<rect x="80" y="40" width="8" height="8" transform="rotate(90 80 40)" fill="#8E8F7B"/>
<rect x="80" y="48" width="8" height="8" transform="rotate(90 80 48)" fill="#8E8F7B"/>
<rect x="80" y="56" width="8" height="8" transform="rotate(90 80 56)" fill="#8E8F7B"/>
<rect x="80" y="64" width="8" height="8" transform="rotate(90 80 64)" fill="#8E8F7B"/>
<rect x="80" y="8" width="8" height="8" transform="rotate(90 80 8)" fill="black"/>
<rect x="80" y="16" width="8" height="8" transform="rotate(90 80 16)" fill="black"/>
<rect x="80" y="24" width="8" height="8" transform="rotate(90 80 24)" fill="black"/>
<rect x="80" y="32" width="8" height="8" transform="rotate(90 80 32)" fill="black"/>
<rect x="80" y="40" width="8" height="8" transform="rotate(90 80 40)" fill="black"/>
<rect x="80" y="48" width="8" height="8" transform="rotate(90 80 48)" fill="black"/>
<rect x="80" y="56" width="8" height="8" transform="rotate(90 80 56)" fill="black"/>
<rect x="80" y="64" width="8" height="8" transform="rotate(90 80 64)" fill="black"/>
<rect x="8" width="8" height="8" fill="#8E8F7B"/>
<rect x="16" width="8" height="8" fill="#8E8F7B"/>
<rect x="24" width="8" height="8" fill="#8E8F7B"/>
<rect x="32" width="8" height="8" fill="#8E8F7B"/>
<rect x="40" width="8" height="8" fill="#8E8F7B"/>
<rect x="48" width="8" height="8" fill="#8E8F7B"/>
<rect x="56" width="8" height="8" fill="#8E8F7B"/>
<rect x="64" width="8" height="8" fill="#8E8F7B"/>
<rect x="8" width="8" height="8" fill="black"/>
<rect x="16" width="8" height="8" fill="black"/>
<rect x="24" width="8" height="8" fill="black"/>
<rect x="32" width="8" height="8" fill="black"/>
<rect x="40" width="8" height="8" fill="black"/>
<rect x="48" width="8" height="8" fill="black"/>
<rect x="56" width="8" height="8" fill="black"/>
<rect x="64" width="8" height="8" fill="black"/>
</svg>
