<svg width="135" height="135" viewBox="0 0 135 135" fill="none" xmlns="http://www.w3.org/2000/svg">
<rect x="135" y="135" width="135" height="135" transform="rotate(180 135 135)" fill="black"/>
<rect x="14.5" y="15.5" width="7.5" height="7.5" fill="#D7D7D7"/>
<rect x="22" y="15.5" width="7.5" height="7.5" fill="#D7D7D7"/>
<rect x="29.5" y="15.5" width="7.5" height="7.5" fill="#D7D7D7"/>
<rect x="37" y="15.5" width="7.5" height="7.5" fill="#D7D7D7"/>
<rect x="44.5" y="15.5" width="7.5" height="7.5" fill="#D7D7D7"/>
<rect x="52" y="15.5" width="7.5" height="7.5" fill="#D7D7D7"/>
<rect x="59.5" y="15.5" width="7.5" height="7.5" fill="#D7D7D7"/>
<rect x="67" y="15.5" width="7.5" height="7.5" fill="#D7D7D7"/>
<rect x="74.5" y="15.5" width="7.5" height="7.5" fill="#D7D7D7"/>
<rect x="82" y="15.5" width="7.5" height="7.5" fill="#D7D7D7"/>
<rect x="89.5" y="15.5" width="7.5" height="7.5" fill="#D7D7D7"/>
<rect x="97" y="15.5" width="7.5" height="7.5" fill="#D7D7D7"/>
<rect x="104.5" y="15.5" width="7.5" height="7.5" fill="#D7D7D7"/>
<rect x="112" y="15.5" width="7.5" height="7.5" fill="#D7D7D7"/>
<rect x="119.5" y="15.5" width="7.5" height="7.5" fill="#D7D7D7"/>
<rect x="14.5" y="23" width="7.5" height="7.5" fill="#D7D7D7"/>
<rect x="22" y="23" width="7.5" height="7.5" fill="#D7D7D7"/>
<rect x="29.5" y="23" width="7.5" height="7.5" fill="#D7D7D7"/>
<rect x="37" y="23" width="7.5" height="7.5" fill="#D7D7D7"/>
<rect x="44.5" y="23" width="7.5" height="7.5" fill="#D7D7D7"/>
<rect x="52" y="23" width="7.5" height="7.5" fill="#D7D7D7"/>
<rect x="59.5" y="23" width="7.5" height="7.5" fill="#D7D7D7"/>
<rect x="67" y="23" width="7.5" height="7.5" fill="#D7D7D7"/>
<rect x="74.5" y="23" width="7.5" height="7.5" fill="#D7D7D7"/>
<rect x="82" y="23" width="7.5" height="7.5" fill="#D7D7D7"/>
<rect x="89.5" y="23" width="7.5" height="7.5" fill="#D7D7D7"/>
<rect x="97" y="23" width="7.5" height="7.5" fill="#D7D7D7"/>
<rect x="104.5" y="23" width="7.5" height="7.5" fill="#D7D7D7"/>
<rect x="112" y="23" width="7.5" height="7.5" fill="#D7D7D7"/>
<rect x="119.5" y="23" width="7.5" height="7.5" fill="#D7D7D7"/>
<rect x="14.5" y="30.5" width="7.5" height="7.5" fill="#D7D7D7"/>
<rect x="22" y="30.5" width="7.5" height="7.5" fill="#D7D7D7"/>
<rect x="29.5" y="30.5" width="7.5" height="7.5" fill="#D7D7D7"/>
<rect x="37" y="30.5" width="7.5" height="7.5" fill="#D7D7D7"/>
<rect x="44.5" y="30.5" width="7.5" height="7.5" fill="#D7D7D7"/>
<rect x="52" y="30.5" width="7.5" height="7.5" fill="#D7D7D7"/>
<rect x="59.5" y="30.5" width="7.5" height="7.5" fill="#D7D7D7"/>
<rect x="67" y="30.5" width="7.5" height="7.5" fill="#D7D7D7"/>
<rect x="74.5" y="30.5" width="7.5" height="7.5" fill="#D7D7D7"/>
<rect x="82" y="30.5" width="7.5" height="7.5" fill="#D7D7D7"/>
<rect x="89.5" y="30.5" width="7.5" height="7.5" fill="#D7D7D7"/>
<rect x="97" y="30.5" width="7.5" height="7.5" fill="#D7D7D7"/>
<rect x="104.5" y="30.5" width="7.5" height="7.5" fill="#D7D7D7"/>
<rect x="112" y="30.5" width="7.5" height="7.5" fill="#D7D7D7"/>
<rect x="119.5" y="30.5" width="7.5" height="7.5" fill="#D7D7D7"/>
<rect x="14.5" y="38" width="7.5" height="7.5" fill="#D7D7D7"/>
<rect x="22" y="38" width="7.5" height="7.5" fill="#D7D7D7"/>
<rect x="29.5" y="38" width="7.5" height="7.5" fill="#D7D7D7"/>
<rect x="37" y="38" width="7.5" height="7.5" fill="#D7D7D7"/>
<rect x="44.5" y="38" width="7.5" height="7.5" fill="#D7D7D7"/>
<rect x="52" y="38" width="7.5" height="7.5" fill="#D7D7D7"/>
<rect x="59.5" y="38" width="7.5" height="7.5" fill="#D7D7D7"/>
<rect x="67" y="38" width="7.5" height="7.5" fill="#D7D7D7"/>
<rect x="74.5" y="38" width="7.5" height="7.5" fill="#D7D7D7"/>
<rect x="82" y="38" width="7.5" height="7.5" fill="#D7D7D7"/>
<rect x="89.5" y="38" width="7.5" height="7.5" fill="#D7D7D7"/>
<rect x="97" y="38" width="7.5" height="7.5" fill="#D7D7D7"/>
<rect x="104.5" y="38" width="7.5" height="7.5" fill="#D7D7D7"/>
<rect x="112" y="38" width="7.5" height="7.5" fill="#D7D7D7"/>
<rect x="119.5" y="38" width="7.5" height="7.5" fill="#D7D7D7"/>
<rect x="14.5" y="15.5" width="7.5" height="7.5" fill="#D7D7D7"/>
<rect x="22" y="15.5" width="7.5" height="7.5" fill="#D7D7D7"/>
<rect x="29.5" y="15.5" width="7.5" height="7.5" fill="#D7D7D7"/>
<rect x="37" y="15.5" width="7.5" height="7.5" fill="#D7D7D7"/>
<rect x="44.5" y="15.5" width="7.5" height="7.5" fill="#D7D7D7"/>
<rect x="52" y="15.5" width="7.5" height="7.5" fill="#D7D7D7"/>
<rect x="59.5" y="15.5" width="7.5" height="7.5" fill="#D7D7D7"/>
<rect x="67" y="15.5" width="7.5" height="7.5" fill="#D7D7D7"/>
<rect x="74.5" y="15.5" width="7.5" height="7.5" fill="#D7D7D7"/>
<rect x="82" y="15.5" width="7.5" height="7.5" fill="#D7D7D7"/>
<rect x="89.5" y="15.5" width="7.5" height="7.5" fill="#D7D7D7"/>
<rect x="97" y="15.5" width="7.5" height="7.5" fill="#D7D7D7"/>
<rect x="104.5" y="15.5" width="7.5" height="7.5" fill="#D7D7D7"/>
<rect x="112" y="15.5" width="7.5" height="7.5" fill="#D7D7D7"/>
<rect x="119.5" y="15.5" width="7.5" height="7.5" fill="#404343"/>
<rect x="14.5" y="23" width="7.5" height="7.5" fill="#D7D7D7"/>
<rect x="22" y="23" width="7.5" height="7.5" fill="#999999"/>
<rect x="29.5" y="23" width="7.5" height="7.5" fill="#FAFAFA"/>
<rect x="37" y="23" width="7.5" height="7.5" fill="#D7D7D7"/>
<rect x="44.5" y="23" width="7.5" height="7.5" fill="#D7D7D7"/>
<rect x="52" y="23" width="7.5" height="7.5" fill="#D7D7D7"/>
<rect x="59.5" y="23" width="7.5" height="7.5" fill="#D7D7D7"/>
<rect x="67" y="23" width="7.5" height="7.5" fill="#D7D7D7"/>
<rect x="74.5" y="23" width="7.5" height="7.5" fill="#D7D7D7"/>
<rect x="82" y="23" width="7.5" height="7.5" fill="#D7D7D7"/>
<rect x="89.5" y="23" width="7.5" height="7.5" fill="#D7D7D7"/>
<rect x="97" y="23" width="7.5" height="7.5" fill="#D7D7D7"/>
<rect x="104.5" y="23" width="7.5" height="7.5" fill="#999999"/>
<rect x="112" y="23" width="7.5" height="7.5" fill="#D7D7D7"/>
<rect x="119.5" y="23" width="7.5" height="7.5" fill="#404343"/>
<rect x="14.5" y="30.5" width="7.5" height="7.5" fill="#D7D7D7"/>
<rect x="22" y="30.5" width="7.5" height="7.5" fill="white"/>
<rect x="29.5" y="30.5" width="7.5" height="7.5" fill="#D7D7D7"/>
<rect x="37" y="30.5" width="7.5" height="7.5" fill="#D7D7D7"/>
<rect x="44.5" y="30.5" width="7.5" height="7.5" fill="#D7D7D7"/>
<rect x="52" y="30.5" width="7.5" height="7.5" fill="#D7D7D7"/>
<rect x="59.5" y="30.5" width="7.5" height="7.5" fill="#D7D7D7"/>
<rect x="67" y="30.5" width="7.5" height="7.5" fill="#D7D7D7"/>
<rect x="74.5" y="30.5" width="7.5" height="7.5" fill="#D7D7D7"/>
<rect x="82" y="30.5" width="7.5" height="7.5" fill="#D7D7D7"/>
<rect x="89.5" y="30.5" width="7.5" height="7.5" fill="#D7D7D7"/>
<rect x="97" y="30.5" width="7.5" height="7.5" fill="#D7D7D7"/>
<rect x="104.5" y="30.5" width="7.5" height="7.5" fill="#D7D7D7"/>
<rect x="112" y="30.5" width="7.5" height="7.5" fill="#D7D7D7"/>
<rect x="119.5" y="30.5" width="7.5" height="7.5" fill="#404343"/>
<rect x="14.5" y="38" width="7.5" height="7.5" fill="#D7D7D7"/>
<rect x="22" y="38" width="7.5" height="7.5" fill="white"/>
<rect x="29.5" y="38" width="7.5" height="7.5" fill="#D7D7D7"/>
<rect x="37" y="38" width="7.5" height="7.5" fill="#D7D7D7"/>
<rect x="44.5" y="38" width="7.5" height="7.5" fill="#D7D7D7"/>
<rect x="52" y="38" width="7.5" height="7.5" fill="#D7D7D7"/>
<rect x="59.5" y="38" width="7.5" height="7.5" fill="#D7D7D7"/>
<rect x="67" y="38" width="7.5" height="7.5" fill="#D7D7D7"/>
<rect x="74.5" y="38" width="7.5" height="7.5" fill="#D7D7D7"/>
<rect x="82" y="38" width="7.5" height="7.5" fill="#D7D7D7"/>
<rect x="89.5" y="38" width="7.5" height="7.5" fill="#D7D7D7"/>
<rect x="97" y="38" width="7.5" height="7.5" fill="#D7D7D7"/>
<rect x="104.5" y="38" width="7.5" height="7.5" fill="#D7D7D7"/>
<rect x="112" y="38" width="7.5" height="7.5" fill="#D7D7D7"/>
<rect x="119.5" y="38" width="7.5" height="7.5" fill="#404343"/>
<rect x="14.5" y="45.5" width="7.5" height="7.5" fill="#D7D7D7"/>
<rect x="22" y="45.5" width="7.5" height="7.5" fill="#D7D7D7"/>
<rect x="29.5" y="45.5" width="7.5" height="7.5" fill="#D7D7D7"/>
<rect x="37" y="45.5" width="7.5" height="7.5" fill="#D7D7D7"/>
<rect x="44.5" y="45.5" width="7.5" height="7.5" fill="#D7D7D7"/>
<rect x="52" y="45.5" width="7.5" height="7.5" fill="#D7D7D7"/>
<rect x="59.5" y="45.5" width="7.5" height="7.5" fill="#D7D7D7"/>
<rect x="67" y="45.5" width="7.5" height="7.5" fill="#D7D7D7"/>
<rect x="74.5" y="45.5" width="7.5" height="7.5" fill="#D7D7D7"/>
<rect x="82" y="45.5" width="7.5" height="7.5" fill="#D7D7D7"/>
<rect x="89.5" y="45.5" width="7.5" height="7.5" fill="#D7D7D7"/>
<rect x="97" y="45.5" width="7.5" height="7.5" fill="#D7D7D7"/>
<rect x="104.5" y="45.5" width="7.5" height="7.5" fill="#D7D7D7"/>
<rect x="112" y="45.5" width="7.5" height="7.5" fill="#D7D7D7"/>
<rect x="119.5" y="45.5" width="7.5" height="7.5" fill="#D7D7D7"/>
<rect x="14.5" y="53" width="7.5" height="7.5" fill="#D7D7D7"/>
<rect x="22" y="53" width="7.5" height="7.5" fill="#D7D7D7"/>
<rect x="29.5" y="53" width="7.5" height="7.5" fill="#D7D7D7"/>
<rect x="37" y="53" width="7.5" height="7.5" fill="#D7D7D7"/>
<rect x="44.5" y="53" width="7.5" height="7.5" fill="#D7D7D7"/>
<rect x="52" y="53" width="7.5" height="7.5" fill="#D7D7D7"/>
<rect x="59.5" y="53" width="7.5" height="7.5" fill="#D7D7D7"/>
<rect x="67" y="53" width="7.5" height="7.5" fill="#D7D7D7"/>
<rect x="74.5" y="53" width="7.5" height="7.5" fill="#D7D7D7"/>
<rect x="82" y="53" width="7.5" height="7.5" fill="#D7D7D7"/>
<rect x="89.5" y="53" width="7.5" height="7.5" fill="#D7D7D7"/>
<rect x="97" y="53" width="7.5" height="7.5" fill="#D7D7D7"/>
<rect x="104.5" y="53" width="7.5" height="7.5" fill="#D7D7D7"/>
<rect x="112" y="53" width="7.5" height="7.5" fill="#D7D7D7"/>
<rect x="119.5" y="53" width="7.5" height="7.5" fill="#D7D7D7"/>
<rect x="14.5" y="60.5" width="7.5" height="7.5" fill="#D7D7D7"/>
<rect x="22" y="60.5" width="7.5" height="7.5" fill="#D7D7D7"/>
<rect x="29.5" y="60.5" width="7.5" height="7.5" fill="#D7D7D7"/>
<rect x="37" y="60.5" width="7.5" height="7.5" fill="#D7D7D7"/>
<rect x="44.5" y="60.5" width="7.5" height="7.5" fill="#D7D7D7"/>
<rect x="52" y="60.5" width="7.5" height="7.5" fill="#D7D7D7"/>
<rect x="59.5" y="60.5" width="7.5" height="7.5" fill="#D7D7D7"/>
<rect x="67" y="60.5" width="7.5" height="7.5" fill="#D7D7D7"/>
<rect x="74.5" y="60.5" width="7.5" height="7.5" fill="#D7D7D7"/>
<rect x="82" y="60.5" width="7.5" height="7.5" fill="#D7D7D7"/>
<rect x="89.5" y="60.5" width="7.5" height="7.5" fill="#D7D7D7"/>
<rect x="97" y="60.5" width="7.5" height="7.5" fill="#D7D7D7"/>
<rect x="104.5" y="60.5" width="7.5" height="7.5" fill="#D7D7D7"/>
<rect x="112" y="60.5" width="7.5" height="7.5" fill="#D7D7D7"/>
<rect x="119.5" y="60.5" width="7.5" height="7.5" fill="#D7D7D7"/>
<rect x="14.5" y="68" width="7.5" height="7.5" fill="#D7D7D7"/>
<rect x="22" y="68" width="7.5" height="7.5" fill="#D7D7D7"/>
<rect x="29.5" y="68" width="7.5" height="7.5" fill="#D7D7D7"/>
<rect x="37" y="68" width="7.5" height="7.5" fill="#D7D7D7"/>
<rect x="44.5" y="68" width="7.5" height="7.5" fill="#D7D7D7"/>
<rect x="52" y="68" width="7.5" height="7.5" fill="#D7D7D7"/>
<rect x="59.5" y="68" width="7.5" height="7.5" fill="#D7D7D7"/>
<rect x="67" y="68" width="7.5" height="7.5" fill="#D7D7D7"/>
<rect x="74.5" y="68" width="7.5" height="7.5" fill="#D7D7D7"/>
<rect x="82" y="68" width="7.5" height="7.5" fill="#D7D7D7"/>
<rect x="89.5" y="68" width="7.5" height="7.5" fill="#D7D7D7"/>
<rect x="97" y="68" width="7.5" height="7.5" fill="#D7D7D7"/>
<rect x="104.5" y="68" width="7.5" height="7.5" fill="#D7D7D7"/>
<rect x="112" y="68" width="7.5" height="7.5" fill="#D7D7D7"/>
<rect x="119.5" y="68" width="7.5" height="7.5" fill="#D7D7D7"/>
<rect x="14.5" y="75.5" width="7.5" height="7.5" fill="#D7D7D7"/>
<rect x="22" y="75.5" width="7.5" height="7.5" fill="#D7D7D7"/>
<rect x="29.5" y="75.5" width="7.5" height="7.5" fill="#D7D7D7"/>
<rect x="37" y="75.5" width="7.5" height="7.5" fill="#D7D7D7"/>
<rect x="44.5" y="75.5" width="7.5" height="7.5" fill="#D7D7D7"/>
<rect x="52" y="75.5" width="7.5" height="7.5" fill="#D7D7D7"/>
<rect x="59.5" y="75.5" width="7.5" height="7.5" fill="#D7D7D7"/>
<rect x="67" y="75.5" width="7.5" height="7.5" fill="#D7D7D7"/>
<rect x="74.5" y="75.5" width="7.5" height="7.5" fill="#D7D7D7"/>
<rect x="82" y="75.5" width="7.5" height="7.5" fill="#D7D7D7"/>
<rect x="89.5" y="75.5" width="7.5" height="7.5" fill="#D7D7D7"/>
<rect x="97" y="75.5" width="7.5" height="7.5" fill="#D7D7D7"/>
<rect x="104.5" y="75.5" width="7.5" height="7.5" fill="#D7D7D7"/>
<rect x="112" y="75.5" width="7.5" height="7.5" fill="#D7D7D7"/>
<rect x="119.5" y="75.5" width="7.5" height="7.5" fill="#D7D7D7"/>
<rect x="14.5" y="45.5" width="7.5" height="7.5" fill="#D7D7D7"/>
<rect x="22" y="45.5" width="7.5" height="7.5" fill="#D7D7D7"/>
<rect x="29.5" y="45.5" width="7.5" height="7.5" fill="#D7D7D7"/>
<rect x="37" y="45.5" width="7.5" height="7.5" fill="#D7D7D7"/>
<rect x="44.5" y="45.5" width="7.5" height="7.5" fill="#D7D7D7"/>
<rect x="52" y="45.5" width="7.5" height="7.5" fill="#D7D7D7"/>
<rect x="59.5" y="45.5" width="7.5" height="7.5" fill="#D7D7D7"/>
<rect x="67" y="45.5" width="7.5" height="7.5" fill="#D7D7D7"/>
<rect x="74.5" y="45.5" width="7.5" height="7.5" fill="#D7D7D7"/>
<rect x="82" y="45.5" width="7.5" height="7.5" fill="#D7D7D7"/>
<rect x="89.5" y="45.5" width="7.5" height="7.5" fill="#D7D7D7"/>
<rect x="97" y="45.5" width="7.5" height="7.5" fill="#D7D7D7"/>
<rect x="104.5" y="45.5" width="7.5" height="7.5" fill="#D7D7D7"/>
<rect x="112" y="45.5" width="7.5" height="7.5" fill="#D7D7D7"/>
<rect x="119.5" y="45.5" width="7.5" height="7.5" fill="#404343"/>
<rect x="14.5" y="53" width="7.5" height="7.5" fill="#D7D7D7"/>
<rect x="22" y="53" width="7.5" height="7.5" fill="#D7D7D7"/>
<rect x="29.5" y="53" width="7.5" height="7.5" fill="#D7D7D7"/>
<rect x="37" y="53" width="7.5" height="7.5" fill="#D7D7D7"/>
<rect x="44.5" y="53" width="7.5" height="7.5" fill="#D7D7D7"/>
<rect x="52" y="53" width="7.5" height="7.5" fill="#D7D7D7"/>
<rect x="59.5" y="53" width="7.5" height="7.5" fill="#D7D7D7"/>
<rect x="67" y="53" width="7.5" height="7.5" fill="#D7D7D7"/>
<rect x="74.5" y="53" width="7.5" height="7.5" fill="#D7D7D7"/>
<rect x="82" y="53" width="7.5" height="7.5" fill="#D7D7D7"/>
<rect x="89.5" y="53" width="7.5" height="7.5" fill="#D7D7D7"/>
<rect x="97" y="53" width="7.5" height="7.5" fill="#D7D7D7"/>
<rect x="104.5" y="53" width="7.5" height="7.5" fill="#D7D7D7"/>
<rect x="112" y="53" width="7.5" height="7.5" fill="#D7D7D7"/>
<rect x="119.5" y="53" width="7.5" height="7.5" fill="#404343"/>
<rect x="14.5" y="60.5" width="7.5" height="7.5" fill="#D7D7D7"/>
<rect x="22" y="60.5" width="7.5" height="7.5" fill="#D7D7D7"/>
<rect x="29.5" y="60.5" width="7.5" height="7.5" fill="#D7D7D7"/>
<rect x="37" y="60.5" width="7.5" height="7.5" fill="#D7D7D7"/>
<rect x="44.5" y="60.5" width="7.5" height="7.5" fill="#D7D7D7"/>
<rect x="52" y="60.5" width="7.5" height="7.5" fill="#D7D7D7"/>
<rect x="59.5" y="60.5" width="7.5" height="7.5" fill="#D7D7D7"/>
<rect x="67" y="60.5" width="7.5" height="7.5" fill="#D7D7D7"/>
<rect x="74.5" y="60.5" width="7.5" height="7.5" fill="#D7D7D7"/>
<rect x="82" y="60.5" width="7.5" height="7.5" fill="#D7D7D7"/>
<rect x="89.5" y="60.5" width="7.5" height="7.5" fill="#D7D7D7"/>
<rect x="97" y="60.5" width="7.5" height="7.5" fill="#D7D7D7"/>
<rect x="104.5" y="60.5" width="7.5" height="7.5" fill="#D7D7D7"/>
<rect x="112" y="60.5" width="7.5" height="7.5" fill="#D7D7D7"/>
<rect x="119.5" y="60.5" width="7.5" height="7.5" fill="#404343"/>
<rect x="14.5" y="68" width="7.5" height="7.5" fill="#D7D7D7"/>
<rect x="22" y="68" width="7.5" height="7.5" fill="#D7D7D7"/>
<rect x="29.5" y="68" width="7.5" height="7.5" fill="#D7D7D7"/>
<rect x="37" y="68" width="7.5" height="7.5" fill="#D7D7D7"/>
<rect x="44.5" y="68" width="7.5" height="7.5" fill="#D7D7D7"/>
<rect x="52" y="68" width="7.5" height="7.5" fill="#D7D7D7"/>
<rect x="59.5" y="68" width="7.5" height="7.5" fill="#D7D7D7"/>
<rect x="67" y="68" width="7.5" height="7.5" fill="#D7D7D7"/>
<rect x="74.5" y="68" width="7.5" height="7.5" fill="#D7D7D7"/>
<rect x="82" y="68" width="7.5" height="7.5" fill="#D7D7D7"/>
<rect x="89.5" y="68" width="7.5" height="7.5" fill="#D7D7D7"/>
<rect x="97" y="68" width="7.5" height="7.5" fill="#D7D7D7"/>
<rect x="104.5" y="68" width="7.5" height="7.5" fill="#D7D7D7"/>
<rect x="112" y="68" width="7.5" height="7.5" fill="#D7D7D7"/>
<rect x="119.5" y="68" width="7.5" height="7.5" fill="#404343"/>
<rect x="14.5" y="75.5" width="7.5" height="7.5" fill="#D7D7D7"/>
<rect x="22" y="75.5" width="7.5" height="7.5" fill="#D7D7D7"/>
<rect x="29.5" y="75.5" width="7.5" height="7.5" fill="#D7D7D7"/>
<rect x="37" y="75.5" width="7.5" height="7.5" fill="#D7D7D7"/>
<rect x="44.5" y="75.5" width="7.5" height="7.5" fill="#D7D7D7"/>
<rect x="52" y="75.5" width="7.5" height="7.5" fill="#D7D7D7"/>
<rect x="59.5" y="75.5" width="7.5" height="7.5" fill="#D7D7D7"/>
<rect x="67" y="75.5" width="7.5" height="7.5" fill="#D7D7D7"/>
<rect x="74.5" y="75.5" width="7.5" height="7.5" fill="#D7D7D7"/>
<rect x="82" y="75.5" width="7.5" height="7.5" fill="#D7D7D7"/>
<rect x="89.5" y="75.5" width="7.5" height="7.5" fill="#D7D7D7"/>
<rect x="97" y="75.5" width="7.5" height="7.5" fill="#D7D7D7"/>
<rect x="104.5" y="75.5" width="7.5" height="7.5" fill="#D7D7D7"/>
<rect x="112" y="75.5" width="7.5" height="7.5" fill="#D7D7D7"/>
<rect x="119.5" y="75.5" width="7.5" height="7.5" fill="#404343"/>
<rect x="14.5" y="83" width="7.5" height="7.5" fill="#D7D7D7"/>
<rect x="22" y="83" width="7.5" height="7.5" fill="#D7D7D7"/>
<rect x="29.5" y="83" width="7.5" height="7.5" fill="#D7D7D7"/>
<rect x="37" y="83" width="7.5" height="7.5" fill="#D7D7D7"/>
<rect x="44.5" y="83" width="7.5" height="7.5" fill="#D7D7D7"/>
<rect x="52" y="83" width="7.5" height="7.5" fill="#D7D7D7"/>
<rect x="59.5" y="83" width="7.5" height="7.5" fill="#D7D7D7"/>
<rect x="67" y="83" width="7.5" height="7.5" fill="#D7D7D7"/>
<rect x="74.5" y="83" width="7.5" height="7.5" fill="#D7D7D7"/>
<rect x="82" y="83" width="7.5" height="7.5" fill="#D7D7D7"/>
<rect x="89.5" y="83" width="7.5" height="7.5" fill="#D7D7D7"/>
<rect x="97" y="83" width="7.5" height="7.5" fill="#D7D7D7"/>
<rect x="104.5" y="83" width="7.5" height="7.5" fill="#D7D7D7"/>
<rect x="112" y="83" width="7.5" height="7.5" fill="#D7D7D7"/>
<rect x="119.5" y="83" width="7.5" height="7.5" fill="#D7D7D7"/>
<rect x="14.5" y="90.5" width="7.5" height="7.5" fill="#D7D7D7"/>
<rect x="22" y="90.5" width="7.5" height="7.5" fill="#D7D7D7"/>
<rect x="29.5" y="90.5" width="7.5" height="7.5" fill="#D7D7D7"/>
<rect x="37" y="90.5" width="7.5" height="7.5" fill="#D7D7D7"/>
<rect x="44.5" y="90.5" width="7.5" height="7.5" fill="#D7D7D7"/>
<rect x="52" y="90.5" width="7.5" height="7.5" fill="#D7D7D7"/>
<rect x="59.5" y="90.5" width="7.5" height="7.5" fill="#D7D7D7"/>
<rect x="67" y="90.5" width="7.5" height="7.5" fill="#D7D7D7"/>
<rect x="74.5" y="90.5" width="7.5" height="7.5" fill="#D7D7D7"/>
<rect x="82" y="90.5" width="7.5" height="7.5" fill="#D7D7D7"/>
<rect x="89.5" y="90.5" width="7.5" height="7.5" fill="#D7D7D7"/>
<rect x="97" y="90.5" width="7.5" height="7.5" fill="#D7D7D7"/>
<rect x="104.5" y="90.5" width="7.5" height="7.5" fill="#D7D7D7"/>
<rect x="112" y="90.5" width="7.5" height="7.5" fill="#D7D7D7"/>
<rect x="119.5" y="90.5" width="7.5" height="7.5" fill="#D7D7D7"/>
<rect x="14.5" y="98" width="7.5" height="7.5" fill="#D7D7D7"/>
<rect x="22" y="98" width="7.5" height="7.5" fill="#D7D7D7"/>
<rect x="29.5" y="98" width="7.5" height="7.5" fill="#D7D7D7"/>
<rect x="37" y="98" width="7.5" height="7.5" fill="#D7D7D7"/>
<rect x="44.5" y="98" width="7.5" height="7.5" fill="#D7D7D7"/>
<rect x="52" y="98" width="7.5" height="7.5" fill="#D7D7D7"/>
<rect x="59.5" y="98" width="7.5" height="7.5" fill="#D7D7D7"/>
<rect x="67" y="98" width="7.5" height="7.5" fill="#D7D7D7"/>
<rect x="74.5" y="98" width="7.5" height="7.5" fill="#D7D7D7"/>
<rect x="82" y="98" width="7.5" height="7.5" fill="#D7D7D7"/>
<rect x="89.5" y="98" width="7.5" height="7.5" fill="#D7D7D7"/>
<rect x="97" y="98" width="7.5" height="7.5" fill="#D7D7D7"/>
<rect x="104.5" y="98" width="7.5" height="7.5" fill="#D7D7D7"/>
<rect x="112" y="98" width="7.5" height="7.5" fill="#D7D7D7"/>
<rect x="119.5" y="98" width="7.5" height="7.5" fill="#D7D7D7"/>
<rect x="14.5" y="105.5" width="7.5" height="7.5" fill="#D7D7D7"/>
<rect x="22" y="105.5" width="7.5" height="7.5" fill="#D7D7D7"/>
<rect x="29.5" y="105.5" width="7.5" height="7.5" fill="#D7D7D7"/>
<rect x="37" y="105.5" width="7.5" height="7.5" fill="#D7D7D7"/>
<rect x="44.5" y="105.5" width="7.5" height="7.5" fill="#D7D7D7"/>
<rect x="52" y="105.5" width="7.5" height="7.5" fill="#D7D7D7"/>
<rect x="59.5" y="105.5" width="7.5" height="7.5" fill="#D7D7D7"/>
<rect x="67" y="105.5" width="7.5" height="7.5" fill="#D7D7D7"/>
<rect x="74.5" y="105.5" width="7.5" height="7.5" fill="#D7D7D7"/>
<rect x="82" y="105.5" width="7.5" height="7.5" fill="#D7D7D7"/>
<rect x="89.5" y="105.5" width="7.5" height="7.5" fill="#D7D7D7"/>
<rect x="97" y="105.5" width="7.5" height="7.5" fill="#D7D7D7"/>
<rect x="104.5" y="105.5" width="7.5" height="7.5" fill="#D7D7D7"/>
<rect x="112" y="105.5" width="7.5" height="7.5" fill="#D7D7D7"/>
<rect x="119.5" y="105.5" width="7.5" height="7.5" fill="#D7D7D7"/>
<rect x="14.5" y="113" width="7.5" height="7.5" fill="#D7D7D7"/>
<rect x="22" y="113" width="7.5" height="7.5" fill="#D7D7D7"/>
<rect x="29.5" y="113" width="7.5" height="7.5" fill="#D7D7D7"/>
<rect x="37" y="113" width="7.5" height="7.5" fill="#D7D7D7"/>
<rect x="44.5" y="113" width="7.5" height="7.5" fill="#D7D7D7"/>
<rect x="52" y="113" width="7.5" height="7.5" fill="#D7D7D7"/>
<rect x="59.5" y="113" width="7.5" height="7.5" fill="#D7D7D7"/>
<rect x="67" y="113" width="7.5" height="7.5" fill="#D7D7D7"/>
<rect x="74.5" y="113" width="7.5" height="7.5" fill="#D7D7D7"/>
<rect x="82" y="113" width="7.5" height="7.5" fill="#D7D7D7"/>
<rect x="89.5" y="113" width="7.5" height="7.5" fill="#D7D7D7"/>
<rect x="97" y="113" width="7.5" height="7.5" fill="#D7D7D7"/>
<rect x="104.5" y="113" width="7.5" height="7.5" fill="#D7D7D7"/>
<rect x="112" y="113" width="7.5" height="7.5" fill="#D7D7D7"/>
<rect x="119.5" y="113" width="7.5" height="7.5" fill="#D7D7D7"/>
<rect x="14.5" y="83" width="7.5" height="7.5" fill="#D7D7D7"/>
<rect x="22" y="83" width="7.5" height="7.5" fill="#D7D7D7"/>
<rect x="29.5" y="83" width="7.5" height="7.5" fill="#D7D7D7"/>
<rect x="37" y="83" width="7.5" height="7.5" fill="#D7D7D7"/>
<rect x="44.5" y="83" width="7.5" height="7.5" fill="#D7D7D7"/>
<rect x="52" y="83" width="7.5" height="7.5" fill="#D7D7D7"/>
<rect x="59.5" y="83" width="7.5" height="7.5" fill="#D7D7D7"/>
<rect x="67" y="83" width="7.5" height="7.5" fill="#D7D7D7"/>
<rect x="74.5" y="83" width="7.5" height="7.5" fill="#D7D7D7"/>
<rect x="82" y="83" width="7.5" height="7.5" fill="#D7D7D7"/>
<rect x="89.5" y="83" width="7.5" height="7.5" fill="#D7D7D7"/>
<rect x="97" y="83" width="7.5" height="7.5" fill="#D7D7D7"/>
<rect x="104.5" y="83" width="7.5" height="7.5" fill="#D7D7D7"/>
<rect x="112" y="83" width="7.5" height="7.5" fill="#D7D7D7"/>
<rect x="119.5" y="83" width="7.5" height="7.5" fill="#404343"/>
<rect x="14.5" y="90.5" width="7.5" height="7.5" fill="#D7D7D7"/>
<rect x="22" y="90.5" width="7.5" height="7.5" fill="#D7D7D7"/>
<rect x="29.5" y="90.5" width="7.5" height="7.5" fill="#D7D7D7"/>
<rect x="37" y="90.5" width="7.5" height="7.5" fill="#D7D7D7"/>
<rect x="44.5" y="90.5" width="7.5" height="7.5" fill="#D7D7D7"/>
<rect x="52" y="90.5" width="7.5" height="7.5" fill="#D7D7D7"/>
<rect x="59.5" y="90.5" width="7.5" height="7.5" fill="#D7D7D7"/>
<rect x="67" y="90.5" width="7.5" height="7.5" fill="#D7D7D7"/>
<rect x="74.5" y="90.5" width="7.5" height="7.5" fill="#D7D7D7"/>
<rect x="82" y="90.5" width="7.5" height="7.5" fill="#D7D7D7"/>
<rect x="89.5" y="90.5" width="7.5" height="7.5" fill="#D7D7D7"/>
<rect x="97" y="90.5" width="7.5" height="7.5" fill="#D7D7D7"/>
<rect x="104.5" y="90.5" width="7.5" height="7.5" fill="#D7D7D7"/>
<rect x="112" y="90.5" width="7.5" height="7.5" fill="#D7D7D7"/>
<rect x="119.5" y="90.5" width="7.5" height="7.5" fill="#404343"/>
<rect x="14.5" y="98" width="7.5" height="7.5" fill="#D7D7D7"/>
<rect x="22" y="98" width="7.5" height="7.5" fill="#D7D7D7"/>
<rect x="29.5" y="98" width="7.5" height="7.5" fill="#D7D7D7"/>
<rect x="37" y="98" width="7.5" height="7.5" fill="#D7D7D7"/>
<rect x="44.5" y="98" width="7.5" height="7.5" fill="#D7D7D7"/>
<rect x="52" y="98" width="7.5" height="7.5" fill="#D7D7D7"/>
<rect x="59.5" y="98" width="7.5" height="7.5" fill="#D7D7D7"/>
<rect x="67" y="98" width="7.5" height="7.5" fill="#D7D7D7"/>
<rect x="74.5" y="98" width="7.5" height="7.5" fill="#D7D7D7"/>
<rect x="82" y="98" width="7.5" height="7.5" fill="#D7D7D7"/>
<rect x="89.5" y="98" width="7.5" height="7.5" fill="#D7D7D7"/>
<rect x="97" y="98" width="7.5" height="7.5" fill="#D7D7D7"/>
<rect x="104.5" y="98" width="7.5" height="7.5" fill="white"/>
<rect x="112" y="98" width="7.5" height="7.5" fill="#D7D7D7"/>
<rect x="119.5" y="98" width="7.5" height="7.5" fill="#404343"/>
<rect x="14.5" y="105.5" width="7.5" height="7.5" fill="#D7D7D7"/>
<rect x="22" y="105.5" width="7.5" height="7.5" fill="#999999"/>
<rect x="29.5" y="105.5" width="7.5" height="7.5" fill="#D7D7D7"/>
<rect x="37" y="105.5" width="7.5" height="7.5" fill="#D7D7D7"/>
<rect x="44.5" y="105.5" width="7.5" height="7.5" fill="#D7D7D7"/>
<rect x="52" y="105.5" width="7.5" height="7.5" fill="#D7D7D7"/>
<rect x="59.5" y="105.5" width="7.5" height="7.5" fill="#D7D7D7"/>
<rect x="67" y="105.5" width="7.5" height="7.5" fill="#D7D7D7"/>
<rect x="74.5" y="105.5" width="7.5" height="7.5" fill="#D7D7D7"/>
<rect x="82" y="105.5" width="7.5" height="7.5" fill="#D7D7D7"/>
<rect x="89.5" y="105.5" width="7.5" height="7.5" fill="#D7D7D7"/>
<rect x="97" y="105.5" width="7.5" height="7.5" fill="white"/>
<rect x="104.5" y="105.5" width="7.5" height="7.5" fill="#999999"/>
<rect x="112" y="105.5" width="7.5" height="7.5" fill="#D7D7D7"/>
<rect x="119.5" y="105.5" width="7.5" height="7.5" fill="#404343"/>
<rect x="14.5" y="113" width="7.5" height="7.5" fill="#404343"/>
<rect x="22" y="113" width="7.5" height="7.5" fill="#999999"/>
<rect x="29.5" y="113" width="7.5" height="7.5" fill="#999999"/>
<rect x="37" y="113" width="7.5" height="7.5" fill="#999999"/>
<rect x="44.5" y="113" width="7.5" height="7.5" fill="#999999"/>
<rect x="52" y="113" width="7.5" height="7.5" fill="#999999"/>
<rect x="59.5" y="113" width="7.5" height="7.5" fill="#999999"/>
<rect x="67" y="113" width="7.5" height="7.5" fill="#999999"/>
<rect x="74.5" y="113" width="7.5" height="7.5" fill="#999999"/>
<rect x="82" y="113" width="7.5" height="7.5" fill="#999999"/>
<rect x="89.5" y="113" width="7.5" height="7.5" fill="#999999"/>
<rect x="97" y="113" width="7.5" height="7.5" fill="#999999"/>
<rect x="104.5" y="113" width="7.5" height="7.5" fill="#999999"/>
<rect x="22" y="15.5" width="7.5" height="7.5" transform="rotate(90 22 15.5)" fill="#999999"/>
<rect x="22" y="23" width="7.5" height="7.5" transform="rotate(90 22 23)" fill="#999999"/>
<rect x="22" y="30.5" width="7.5" height="7.5" transform="rotate(90 22 30.5)" fill="#999999"/>
<rect x="22" y="38" width="7.5" height="7.5" transform="rotate(90 22 38)" fill="#999999"/>
<rect x="22" y="45.5" width="7.5" height="7.5" transform="rotate(90 22 45.5)" fill="#999999"/>
<rect x="22" y="53" width="7.5" height="7.5" transform="rotate(90 22 53)" fill="#999999"/>
<rect x="22" y="60.5" width="7.5" height="7.5" transform="rotate(90 22 60.5)" fill="#999999"/>
<rect x="22" y="68" width="7.5" height="7.5" transform="rotate(90 22 68)" fill="#999999"/>
<rect x="22" y="75.5" width="7.5" height="7.5" transform="rotate(90 22 75.5)" fill="#999999"/>
<rect x="22" y="83" width="7.5" height="7.5" transform="rotate(90 22 83)" fill="#999999"/>
<rect x="22" y="90.5" width="7.5" height="7.5" transform="rotate(90 22 90.5)" fill="#999999"/>
<rect x="22" y="98" width="7.5" height="7.5" transform="rotate(90 22 98)" fill="#999999"/>
<rect x="22" y="105.5" width="7.5" height="7.5" transform="rotate(90 22 105.5)" fill="#999999"/>
<rect x="119.5" y="15.5" width="7.5" height="7.5" transform="rotate(90 119.5 15.5)" fill="#404343"/>
<rect x="119.5" y="23" width="7.5" height="7.5" transform="rotate(90 119.5 23)" fill="#999999"/>
<rect x="119.5" y="30.5" width="7.5" height="7.5" transform="rotate(90 119.5 30.5)" fill="#999999"/>
<rect x="119.5" y="38" width="7.5" height="7.5" transform="rotate(90 119.5 38)" fill="#999999"/>
<rect x="119.5" y="45.5" width="7.5" height="7.5" transform="rotate(90 119.5 45.5)" fill="#999999"/>
<rect x="119.5" y="53" width="7.5" height="7.5" transform="rotate(90 119.5 53)" fill="#999999"/>
<rect x="119.5" y="60.5" width="7.5" height="7.5" transform="rotate(90 119.5 60.5)" fill="#999999"/>
<rect x="119.5" y="68" width="7.5" height="7.5" transform="rotate(90 119.5 68)" fill="#999999"/>
<rect x="119.5" y="75.5" width="7.5" height="7.5" transform="rotate(90 119.5 75.5)" fill="#999999"/>
<rect x="119.5" y="83" width="7.5" height="7.5" transform="rotate(90 119.5 83)" fill="#999999"/>
<rect x="119.5" y="90.5" width="7.5" height="7.5" transform="rotate(90 119.5 90.5)" fill="#999999"/>
<rect x="119.5" y="98" width="7.5" height="7.5" transform="rotate(90 119.5 98)" fill="#999999"/>
<rect x="119.5" y="105.5" width="7.5" height="7.5" transform="rotate(90 119.5 105.5)" fill="#999999"/>
<rect x="112" y="23" width="7.5" height="7.5" transform="rotate(180 112 23)" fill="#999999"/>
<rect x="104.5" y="23" width="7.5" height="7.5" transform="rotate(180 104.5 23)" fill="#999999"/>
<rect x="97" y="23" width="7.5" height="7.5" transform="rotate(180 97 23)" fill="#999999"/>
<rect x="89.5" y="23" width="7.5" height="7.5" transform="rotate(180 89.5 23)" fill="#999999"/>
<rect x="82" y="23" width="7.5" height="7.5" transform="rotate(180 82 23)" fill="#999999"/>
<rect x="74.5" y="23" width="7.5" height="7.5" transform="rotate(180 74.5 23)" fill="#999999"/>
<rect x="67" y="23" width="7.5" height="7.5" transform="rotate(180 67 23)" fill="#999999"/>
<rect x="59.5" y="23" width="7.5" height="7.5" transform="rotate(180 59.5 23)" fill="#999999"/>
<rect x="52" y="23" width="7.5" height="7.5" transform="rotate(180 52 23)" fill="#999999"/>
<rect x="44.5" y="23" width="7.5" height="7.5" transform="rotate(180 44.5 23)" fill="#999999"/>
<rect x="37" y="23" width="7.5" height="7.5" transform="rotate(180 37 23)" fill="#999999"/>
<rect x="29.5" y="23" width="7.5" height="7.5" transform="rotate(180 29.5 23)" fill="#999999"/>
<rect x="22" y="23" width="7.5" height="7.5" transform="rotate(180 22 23)" fill="#404343"/>
<rect x="112" y="113" width="7.5" height="7.5" fill="#404343"/>
<rect x="119.5" y="113" width="7.5" height="7.5" fill="#404343"/>
<rect x="119.5" y="8" width="7.5" height="7.5" transform="rotate(90 119.5 8)" fill="#404343"/>
<rect x="112" y="8" width="7.5" height="7.5" transform="rotate(90 112 8)" fill="#404343"/>
<rect x="104.5" y="8" width="7.5" height="7.5" transform="rotate(90 104.5 8)" fill="#404343"/>
<rect x="97" y="8" width="7.5" height="7.5" transform="rotate(90 97 8)" fill="#404343"/>
<rect x="89.5" y="8" width="7.5" height="7.5" transform="rotate(90 89.5 8)" fill="#404343"/>
<rect x="82" y="8" width="7.5" height="7.5" transform="rotate(90 82 8)" fill="#404343"/>
<rect x="74.5" y="8" width="7.5" height="7.5" transform="rotate(90 74.5 8)" fill="#404343"/>
<rect x="67" y="8" width="7.5" height="7.5" transform="rotate(90 67 8)" fill="#404343"/>
<rect x="59.5" y="8" width="7.5" height="7.5" transform="rotate(90 59.5 8)" fill="#404343"/>
<rect x="52" y="8" width="7.5" height="7.5" transform="rotate(90 52 8)" fill="#404343"/>
<rect x="44.5" y="8" width="7.5" height="7.5" transform="rotate(90 44.5 8)" fill="#404343"/>
<rect x="37" y="8" width="7.5" height="7.5" transform="rotate(90 37 8)" fill="#404343"/>
<rect x="29.5" y="8" width="7.5" height="7.5" transform="rotate(90 29.5 8)" fill="#404343"/>
<rect x="22" y="8" width="7.5" height="7.5" transform="rotate(90 22 8)" fill="#404343"/>
<rect x="7" y="15.5" width="7.5" height="7.5" fill="#404343"/>
<rect x="7" y="23" width="7.5" height="7.5" fill="#404343"/>
<rect x="7" y="30.5" width="7.5" height="7.5" fill="#404343"/>
<rect x="7" y="38" width="7.5" height="7.5" fill="#404343"/>
<rect x="7" y="45.5" width="7.5" height="7.5" fill="#404343"/>
<rect x="7" y="53" width="7.5" height="7.5" fill="#404343"/>
<rect x="7" y="60.5" width="7.5" height="7.5" fill="#404343"/>
<rect x="7" y="68" width="7.5" height="7.5" fill="#404343"/>
<rect x="7" y="75.5" width="7.5" height="7.5" fill="#404343"/>
<rect x="7" y="83" width="7.5" height="7.5" fill="#404343"/>
<rect x="7" y="90.5" width="7.5" height="7.5" fill="#404343"/>
<rect x="7" y="98" width="7.5" height="7.5" fill="#404343"/>
<rect x="7" y="105.5" width="7.5" height="7.5" fill="#404343"/>
<rect x="7" y="113" width="7.5" height="7.5" fill="#404343"/>
<rect x="119.5" y="120.5" width="7.5" height="7.5" transform="rotate(90 119.5 120.5)" fill="#404343"/>
<rect x="112" y="120.5" width="7.5" height="7.5" transform="rotate(90 112 120.5)" fill="#404343"/>
<rect x="104.5" y="120.5" width="7.5" height="7.5" transform="rotate(90 104.5 120.5)" fill="#404343"/>
<rect x="97" y="120.5" width="7.5" height="7.5" transform="rotate(90 97 120.5)" fill="#404343"/>
<rect x="89.5" y="120.5" width="7.5" height="7.5" transform="rotate(90 89.5 120.5)" fill="#404343"/>
<rect x="82" y="120.5" width="7.5" height="7.5" transform="rotate(90 82 120.5)" fill="#404343"/>
<rect x="74.5" y="120.5" width="7.5" height="7.5" transform="rotate(90 74.5 120.5)" fill="#404343"/>
<rect x="67" y="120.5" width="7.5" height="7.5" transform="rotate(90 67 120.5)" fill="#404343"/>
<rect x="59.5" y="120.5" width="7.5" height="7.5" transform="rotate(90 59.5 120.5)" fill="#404343"/>
<rect x="52" y="120.5" width="7.5" height="7.5" transform="rotate(90 52 120.5)" fill="#404343"/>
<rect x="44.5" y="120.5" width="7.5" height="7.5" transform="rotate(90 44.5 120.5)" fill="#404343"/>
<rect x="37" y="120.5" width="7.5" height="7.5" transform="rotate(90 37 120.5)" fill="#404343"/>
<rect x="29.5" y="120.5" width="7.5" height="7.5" transform="rotate(90 29.5 120.5)" fill="#404343"/>
<rect x="22" y="120.5" width="7.5" height="7.5" transform="rotate(90 22 120.5)" fill="#404343"/>
<path d="M107 52.453H103.223V82.5471H107V52.453Z" fill="#000001"/>
<path d="M103.223 82.547H99.4707V86.2995H103.223V82.547Z" fill="#000001"/>
<path d="M103.223 48.6758H99.4707V52.453H103.223V48.6758Z" fill="#000001"/>
<path d="M99.4703 86.2996H95.7178V90.0521H99.4703V86.2996Z" fill="#000001"/>
<path d="M99.4703 59.958H95.7178V75.0174H99.4703V59.958Z" fill="#000001"/>
<path d="M99.4703 44.9233H95.7178V48.6758H99.4703V44.9233Z" fill="#000001"/>
<path d="M95.7176 75.0173H91.9404V78.7698H95.7176V75.0173Z" fill="#000001"/>
<path d="M95.7176 56.2054H91.9404V59.9579H95.7176V56.2054Z" fill="#000001"/>
<path d="M91.941 63.7352H88.1885V71.2649H91.941V63.7352Z" fill="#000001"/>
<path d="M84.4107 41.1708H80.6582V93.8292H84.4107V41.1708Z" fill="#000001"/>
<path d="M80.6588 93.8292H76.9062V97.5817H80.6588V93.8292Z" fill="#000001"/>
<path d="M80.6588 37.3936H76.9062V41.1707H80.6588V37.3936Z" fill="#000001"/>
<path d="M76.9062 97.5818H65.624V101.359H76.9062V97.5818Z" fill="#000001"/>
<path d="M73.1285 82.547H69.376V86.2995H73.1285V82.547Z" fill="#000001"/>
<path d="M73.1285 48.6758H69.376V52.453H73.1285V48.6758Z" fill="#000001"/>
<path d="M76.9062 33.6411H65.624V37.3936H76.9062V33.6411Z" fill="#000001"/>
<path d="M69.3765 52.453H65.624V82.5471H69.3765V52.453Z" fill="#000001"/>
<path d="M65.6239 93.8292H61.8467V97.5817H65.6239V93.8292Z" fill="#000001"/>
<path d="M65.6239 37.3936H61.8467V41.1707H65.6239V37.3936Z" fill="#000001"/>
<path d="M61.8463 90.052H58.0938V93.8292H61.8463V90.052Z" fill="#000001"/>
<path d="M61.8463 41.1708H58.0938V44.9233H61.8463V41.1708Z" fill="#000001"/>
<path d="M58.0936 86.2996H54.3164V90.0521H58.0936V86.2996Z" fill="#000001"/>
<path d="M58.0936 44.9233H54.3164V48.6758H58.0936V44.9233Z" fill="#000001"/>
<path d="M54.317 82.547H50.5645V86.2995H54.317V82.547Z" fill="#000001"/>
<path d="M54.317 48.6758H50.5645V52.453H54.317V48.6758Z" fill="#000001"/>
<path d="M50.564 78.7699H46.8115V82.5471H50.564V78.7699Z" fill="#000001"/>
<path d="M50.564 52.453H46.8115V56.2055H50.564V52.453Z" fill="#000001"/>
<path d="M46.8119 56.2054H31.7525V59.9579H28V75.0173H31.7525V78.7698H46.8119V56.2054ZM39.2822 63.7351H35.5297V71.2648H31.7525V63.7351H35.5297V59.9579H39.2822V63.7351Z" fill="#000001"/>
</svg>
