<svg width="2091" height="80" viewBox="0 0 2091 80" fill="none" xmlns="http://www.w3.org/2000/svg">
<line x1="1054.5" y1="7" x2="1054.5" y2="73" stroke="#E82E2E" stroke-width="5"/>
<line x1="1070.5" y1="7" x2="1070.5" y2="73" stroke="#E82E2E" stroke-width="5"/>
<line x1="1116.5" y1="7" x2="1116.5" y2="73" stroke="#E82E2E" stroke-width="5"/>
<line x1="1131.5" y1="14" x2="1131.5" y2="65" stroke="#E82E2E" stroke-width="5"/>
<line x1="1145.5" y1="14" x2="1145.5" y2="65" stroke="#E82E2E" stroke-width="5"/>
<line x1="1264.5" y1="14" x2="1264.5" y2="65" stroke="#E82E2E" stroke-width="5"/>
<line x1="1277.5" y1="14" x2="1277.5" y2="65" stroke="#E82E2E" stroke-width="5"/>
<line x1="1158.5" y1="14" x2="1158.5" y2="65" stroke="#E82E2E" stroke-width="5"/>
<line x1="1172.5" y1="25" x2="1172.5" y2="55" stroke="#E82E2E" stroke-width="5"/>
<line x1="1228.5" y1="25" x2="1228.5" y2="55" stroke="#E82E2E" stroke-width="5"/>
<line x1="1241.5" y1="29" x2="1241.5" y2="51" stroke="#E82E2E" stroke-width="5"/>
<line x1="1252.5" y1="29" x2="1252.5" y2="51" stroke="#E82E2E" stroke-width="5"/>
<line x1="1086.5" y1="2" x2="1086.5" y2="78" stroke="#E82E2E" stroke-width="5"/>
<line x1="1101.5" y1="2" x2="1101.5" y2="78" stroke="#E82E2E" stroke-width="5"/>
<line x1="1187.5" y1="2" x2="1187.5" y2="78" stroke="#E82E2E" stroke-width="5"/>
<line x1="1201.5" y1="1.09278e-07" x2="1201.5" y2="80" stroke="#E82E2E" stroke-width="5"/>
<line x1="1214.5" y1="1.09278e-07" x2="1214.5" y2="80" stroke="#E82E2E" stroke-width="5"/>
<line y1="-2.5" x2="66" y2="-2.5" transform="matrix(4.37114e-08 1 1 -4.37114e-08 1466 7)" stroke="#E82E2E" stroke-width="5"/>
<line y1="-2.5" x2="66" y2="-2.5" transform="matrix(4.37114e-08 1 1 -4.37114e-08 1450 7)" stroke="#E82E2E" stroke-width="5"/>
<line y1="-2.5" x2="66" y2="-2.5" transform="matrix(4.37114e-08 1 1 -4.37114e-08 1404 7)" stroke="#E82E2E" stroke-width="5"/>
<line y1="-2.5" x2="51" y2="-2.5" transform="matrix(4.37114e-08 1 1 -4.37114e-08 1389 14)" stroke="#E82E2E" stroke-width="5"/>
<line y1="-2.5" x2="51" y2="-2.5" transform="matrix(4.37114e-08 1 1 -4.37114e-08 1292 14)" stroke="#E82E2E" stroke-width="5"/>
<line y1="-2.5" x2="51" y2="-2.5" transform="matrix(4.37114e-08 1 1 -4.37114e-08 1374 14)" stroke="#E82E2E" stroke-width="5"/>
<line y1="-2.5" x2="30" y2="-2.5" transform="matrix(4.37114e-08 1 1 -4.37114e-08 1360 25)" stroke="#E82E2E" stroke-width="5"/>
<line y1="-2.5" x2="30" y2="-2.5" transform="matrix(4.37114e-08 1 1 -4.37114e-08 1317 25)" stroke="#E82E2E" stroke-width="5"/>
<line y1="-2.5" x2="22" y2="-2.5" transform="matrix(4.37114e-08 1 1 -4.37114e-08 1304 29)" stroke="#E82E2E" stroke-width="5"/>
<line y1="-2.5" x2="76" y2="-2.5" transform="matrix(4.37114e-08 1 1 -4.37114e-08 1434 2)" stroke="#E82E2E" stroke-width="5"/>
<line y1="-2.5" x2="76" y2="-2.5" transform="matrix(4.37114e-08 1 1 -4.37114e-08 1419 2)" stroke="#E82E2E" stroke-width="5"/>
<line y1="-2.5" x2="76" y2="-2.5" transform="matrix(4.37114e-08 1 1 -4.37114e-08 1346 2)" stroke="#E82E2E" stroke-width="5"/>
<line y1="-2.5" x2="80" y2="-2.5" transform="matrix(4.37114e-08 1 1 -4.37114e-08 1331 0)" stroke="#E82E2E" stroke-width="5"/>
<line x1="1995.5" y1="14" x2="1995.5" y2="65" stroke="#E82E2E" stroke-width="5"/>
<line x1="2008.5" y1="14" x2="2008.5" y2="65" stroke="#E82E2E" stroke-width="5"/>
<line x1="1903.5" y1="25" x2="1903.5" y2="55" stroke="#E82E2E" stroke-width="5"/>
<line x1="1959.5" y1="25" x2="1959.5" y2="55" stroke="#E82E2E" stroke-width="5"/>
<line x1="1972.5" y1="29" x2="1972.5" y2="51" stroke="#E82E2E" stroke-width="5"/>
<line x1="1983.5" y1="29" x2="1983.5" y2="51" stroke="#E82E2E" stroke-width="5"/>
<line x1="1918.5" y1="2" x2="1918.5" y2="78" stroke="#E82E2E" stroke-width="5"/>
<line x1="1932.5" y1="1.09278e-07" x2="1932.5" y2="80" stroke="#E82E2E" stroke-width="5"/>
<line x1="1945.5" y1="1.09278e-07" x2="1945.5" y2="80" stroke="#E82E2E" stroke-width="5"/>
<line y1="-2.5" x2="51" y2="-2.5" transform="matrix(4.37114e-08 1 1 -4.37114e-08 2023 14)" stroke="#E82E2E" stroke-width="5"/>
<line y1="-2.5" x2="30" y2="-2.5" transform="matrix(4.37114e-08 1 1 -4.37114e-08 2091 25)" stroke="#E82E2E" stroke-width="5"/>
<line y1="-2.5" x2="30" y2="-2.5" transform="matrix(4.37114e-08 1 1 -4.37114e-08 2048 25)" stroke="#E82E2E" stroke-width="5"/>
<line y1="-2.5" x2="22" y2="-2.5" transform="matrix(4.37114e-08 1 1 -4.37114e-08 2035 29)" stroke="#E82E2E" stroke-width="5"/>
<line y1="-2.5" x2="76" y2="-2.5" transform="matrix(4.37114e-08 1 1 -4.37114e-08 2077 2)" stroke="#E82E2E" stroke-width="5"/>
<line y1="-2.5" x2="80" y2="-2.5" transform="matrix(4.37114e-08 1 1 -4.37114e-08 2062 0)" stroke="#E82E2E" stroke-width="5"/>
<line x1="1475.5" y1="7" x2="1475.5" y2="73" stroke="#E82E2E" stroke-width="5"/>
<line x1="1491.5" y1="7" x2="1491.5" y2="73" stroke="#E82E2E" stroke-width="5"/>
<line x1="1537.5" y1="7" x2="1537.5" y2="73" stroke="#E82E2E" stroke-width="5"/>
<line x1="1552.5" y1="14" x2="1552.5" y2="65" stroke="#E82E2E" stroke-width="5"/>
<line x1="1566.5" y1="14" x2="1566.5" y2="65" stroke="#E82E2E" stroke-width="5"/>
<line x1="1685.5" y1="14" x2="1685.5" y2="65" stroke="#E82E2E" stroke-width="5"/>
<line x1="1698.5" y1="14" x2="1698.5" y2="65" stroke="#E82E2E" stroke-width="5"/>
<line x1="1579.5" y1="14" x2="1579.5" y2="65" stroke="#E82E2E" stroke-width="5"/>
<line x1="1593.5" y1="25" x2="1593.5" y2="55" stroke="#E82E2E" stroke-width="5"/>
<line x1="1649.5" y1="25" x2="1649.5" y2="55" stroke="#E82E2E" stroke-width="5"/>
<line x1="1662.5" y1="29" x2="1662.5" y2="51" stroke="#E82E2E" stroke-width="5"/>
<line x1="1673.5" y1="29" x2="1673.5" y2="51" stroke="#E82E2E" stroke-width="5"/>
<line x1="1507.5" y1="2" x2="1507.5" y2="78" stroke="#E82E2E" stroke-width="5"/>
<line x1="1522.5" y1="2" x2="1522.5" y2="78" stroke="#E82E2E" stroke-width="5"/>
<line x1="1608.5" y1="2" x2="1608.5" y2="78" stroke="#E82E2E" stroke-width="5"/>
<line x1="1622.5" y1="1.09278e-07" x2="1622.5" y2="80" stroke="#E82E2E" stroke-width="5"/>
<line x1="1635.5" y1="1.09278e-07" x2="1635.5" y2="80" stroke="#E82E2E" stroke-width="5"/>
<line y1="-2.5" x2="66" y2="-2.5" transform="matrix(4.37114e-08 1 1 -4.37114e-08 1887 7)" stroke="#E82E2E" stroke-width="5"/>
<line y1="-2.5" x2="66" y2="-2.5" transform="matrix(4.37114e-08 1 1 -4.37114e-08 1871 7)" stroke="#E82E2E" stroke-width="5"/>
<line y1="-2.5" x2="66" y2="-2.5" transform="matrix(4.37114e-08 1 1 -4.37114e-08 1825 7)" stroke="#E82E2E" stroke-width="5"/>
<line y1="-2.5" x2="51" y2="-2.5" transform="matrix(4.37114e-08 1 1 -4.37114e-08 1810 14)" stroke="#E82E2E" stroke-width="5"/>
<line y1="-2.5" x2="51" y2="-2.5" transform="matrix(4.37114e-08 1 1 -4.37114e-08 1713 14)" stroke="#E82E2E" stroke-width="5"/>
<line y1="-2.5" x2="51" y2="-2.5" transform="matrix(4.37114e-08 1 1 -4.37114e-08 1795 14)" stroke="#E82E2E" stroke-width="5"/>
<line y1="-2.5" x2="30" y2="-2.5" transform="matrix(4.37114e-08 1 1 -4.37114e-08 1781 25)" stroke="#E82E2E" stroke-width="5"/>
<line y1="-2.5" x2="30" y2="-2.5" transform="matrix(4.37114e-08 1 1 -4.37114e-08 1738 25)" stroke="#E82E2E" stroke-width="5"/>
<line y1="-2.5" x2="22" y2="-2.5" transform="matrix(4.37114e-08 1 1 -4.37114e-08 1725 29)" stroke="#E82E2E" stroke-width="5"/>
<line y1="-2.5" x2="76" y2="-2.5" transform="matrix(4.37114e-08 1 1 -4.37114e-08 1855 2)" stroke="#E82E2E" stroke-width="5"/>
<line y1="-2.5" x2="76" y2="-2.5" transform="matrix(4.37114e-08 1 1 -4.37114e-08 1840 2)" stroke="#E82E2E" stroke-width="5"/>
<line y1="-2.5" x2="76" y2="-2.5" transform="matrix(4.37114e-08 1 1 -4.37114e-08 1767 2)" stroke="#E82E2E" stroke-width="5"/>
<line y1="-2.5" x2="80" y2="-2.5" transform="matrix(4.37114e-08 1 1 -4.37114e-08 1752 0)" stroke="#E82E2E" stroke-width="5"/>
<line x1="2.5" y1="7" x2="2.5" y2="73" stroke="#E82E2E" stroke-width="5"/>
<line x1="18.5" y1="7" x2="18.5" y2="73" stroke="#E82E2E" stroke-width="5"/>
<line x1="64.5" y1="7" x2="64.5" y2="73" stroke="#E82E2E" stroke-width="5"/>
<line x1="79.5" y1="14" x2="79.5" y2="65" stroke="#E82E2E" stroke-width="5"/>
<line x1="93.5" y1="14" x2="93.5" y2="65" stroke="#E82E2E" stroke-width="5"/>
<line x1="212.5" y1="14" x2="212.5" y2="65" stroke="#E82E2E" stroke-width="5"/>
<line x1="225.5" y1="14" x2="225.5" y2="65" stroke="#E82E2E" stroke-width="5"/>
<line x1="106.5" y1="14" x2="106.5" y2="65" stroke="#E82E2E" stroke-width="5"/>
<line x1="120.5" y1="25" x2="120.5" y2="55" stroke="#E82E2E" stroke-width="5"/>
<line x1="176.5" y1="25" x2="176.5" y2="55" stroke="#E82E2E" stroke-width="5"/>
<line x1="189.5" y1="29" x2="189.5" y2="51" stroke="#E82E2E" stroke-width="5"/>
<line x1="200.5" y1="29" x2="200.5" y2="51" stroke="#E82E2E" stroke-width="5"/>
<line x1="34.5" y1="2" x2="34.5" y2="78" stroke="#E82E2E" stroke-width="5"/>
<line x1="49.5" y1="2" x2="49.5" y2="78" stroke="#E82E2E" stroke-width="5"/>
<line x1="135.5" y1="2" x2="135.5" y2="78" stroke="#E82E2E" stroke-width="5"/>
<line x1="149.5" y1="1.09278e-07" x2="149.5" y2="80" stroke="#E82E2E" stroke-width="5"/>
<line x1="162.5" y1="1.09278e-07" x2="162.5" y2="80" stroke="#E82E2E" stroke-width="5"/>
<line y1="-2.5" x2="66" y2="-2.5" transform="matrix(4.37114e-08 1 1 -4.37114e-08 414 7)" stroke="#E82E2E" stroke-width="5"/>
<line y1="-2.5" x2="66" y2="-2.5" transform="matrix(4.37114e-08 1 1 -4.37114e-08 398 7)" stroke="#E82E2E" stroke-width="5"/>
<line y1="-2.5" x2="66" y2="-2.5" transform="matrix(4.37114e-08 1 1 -4.37114e-08 352 7)" stroke="#E82E2E" stroke-width="5"/>
<line y1="-2.5" x2="51" y2="-2.5" transform="matrix(4.37114e-08 1 1 -4.37114e-08 337 14)" stroke="#E82E2E" stroke-width="5"/>
<line y1="-2.5" x2="51" y2="-2.5" transform="matrix(4.37114e-08 1 1 -4.37114e-08 240 14)" stroke="#E82E2E" stroke-width="5"/>
<line y1="-2.5" x2="51" y2="-2.5" transform="matrix(4.37114e-08 1 1 -4.37114e-08 322 14)" stroke="#E82E2E" stroke-width="5"/>
<line y1="-2.5" x2="30" y2="-2.5" transform="matrix(4.37114e-08 1 1 -4.37114e-08 308 25)" stroke="#E82E2E" stroke-width="5"/>
<line y1="-2.5" x2="30" y2="-2.5" transform="matrix(4.37114e-08 1 1 -4.37114e-08 265 25)" stroke="#E82E2E" stroke-width="5"/>
<line y1="-2.5" x2="22" y2="-2.5" transform="matrix(4.37114e-08 1 1 -4.37114e-08 252 29)" stroke="#E82E2E" stroke-width="5"/>
<line y1="-2.5" x2="76" y2="-2.5" transform="matrix(4.37114e-08 1 1 -4.37114e-08 382 2)" stroke="#E82E2E" stroke-width="5"/>
<line y1="-2.5" x2="76" y2="-2.5" transform="matrix(4.37114e-08 1 1 -4.37114e-08 367 2)" stroke="#E82E2E" stroke-width="5"/>
<line y1="-2.5" x2="76" y2="-2.5" transform="matrix(4.37114e-08 1 1 -4.37114e-08 294 2)" stroke="#E82E2E" stroke-width="5"/>
<line y1="-2.5" x2="80" y2="-2.5" transform="matrix(4.37114e-08 1 1 -4.37114e-08 279 0)" stroke="#E82E2E" stroke-width="5"/>
<line x1="943.5" y1="14" x2="943.5" y2="65" stroke="#E82E2E" stroke-width="5"/>
<line x1="956.5" y1="14" x2="956.5" y2="65" stroke="#E82E2E" stroke-width="5"/>
<line x1="851.5" y1="25" x2="851.5" y2="55" stroke="#E82E2E" stroke-width="5"/>
<line x1="907.5" y1="25" x2="907.5" y2="55" stroke="#E82E2E" stroke-width="5"/>
<line x1="920.5" y1="29" x2="920.5" y2="51" stroke="#E82E2E" stroke-width="5"/>
<line x1="931.5" y1="29" x2="931.5" y2="51" stroke="#E82E2E" stroke-width="5"/>
<line x1="866.5" y1="2" x2="866.5" y2="78" stroke="#E82E2E" stroke-width="5"/>
<line x1="880.5" y1="1.09278e-07" x2="880.5" y2="80" stroke="#E82E2E" stroke-width="5"/>
<line x1="893.5" y1="1.09278e-07" x2="893.5" y2="80" stroke="#E82E2E" stroke-width="5"/>
<line y1="-2.5" x2="51" y2="-2.5" transform="matrix(4.37114e-08 1 1 -4.37114e-08 971 14)" stroke="#E82E2E" stroke-width="5"/>
<line y1="-2.5" x2="30" y2="-2.5" transform="matrix(4.37114e-08 1 1 -4.37114e-08 1039 25)" stroke="#E82E2E" stroke-width="5"/>
<line y1="-2.5" x2="30" y2="-2.5" transform="matrix(4.37114e-08 1 1 -4.37114e-08 996 25)" stroke="#E82E2E" stroke-width="5"/>
<line y1="-2.5" x2="22" y2="-2.5" transform="matrix(4.37114e-08 1 1 -4.37114e-08 983 29)" stroke="#E82E2E" stroke-width="5"/>
<line y1="-2.5" x2="76" y2="-2.5" transform="matrix(4.37114e-08 1 1 -4.37114e-08 1025 2)" stroke="#E82E2E" stroke-width="5"/>
<line y1="-2.5" x2="80" y2="-2.5" transform="matrix(4.37114e-08 1 1 -4.37114e-08 1010 0)" stroke="#E82E2E" stroke-width="5"/>
<line x1="423.5" y1="7" x2="423.5" y2="73" stroke="#E82E2E" stroke-width="5"/>
<line x1="439.5" y1="7" x2="439.5" y2="73" stroke="#E82E2E" stroke-width="5"/>
<line x1="485.5" y1="7" x2="485.5" y2="73" stroke="#E82E2E" stroke-width="5"/>
<line x1="500.5" y1="14" x2="500.5" y2="65" stroke="#E82E2E" stroke-width="5"/>
<line x1="514.5" y1="14" x2="514.5" y2="65" stroke="#E82E2E" stroke-width="5"/>
<line x1="633.5" y1="14" x2="633.5" y2="65" stroke="#E82E2E" stroke-width="5"/>
<line x1="646.5" y1="14" x2="646.5" y2="65" stroke="#E82E2E" stroke-width="5"/>
<line x1="527.5" y1="14" x2="527.5" y2="65" stroke="#E82E2E" stroke-width="5"/>
<line x1="541.5" y1="25" x2="541.5" y2="55" stroke="#E82E2E" stroke-width="5"/>
<line x1="597.5" y1="25" x2="597.5" y2="55" stroke="#E82E2E" stroke-width="5"/>
<line x1="610.5" y1="29" x2="610.5" y2="51" stroke="#E82E2E" stroke-width="5"/>
<line x1="621.5" y1="29" x2="621.5" y2="51" stroke="#E82E2E" stroke-width="5"/>
<line x1="455.5" y1="2" x2="455.5" y2="78" stroke="#E82E2E" stroke-width="5"/>
<line x1="470.5" y1="2" x2="470.5" y2="78" stroke="#E82E2E" stroke-width="5"/>
<line x1="556.5" y1="2" x2="556.5" y2="78" stroke="#E82E2E" stroke-width="5"/>
<line x1="570.5" y1="1.09278e-07" x2="570.5" y2="80" stroke="#E82E2E" stroke-width="5"/>
<line x1="583.5" y1="1.09278e-07" x2="583.5" y2="80" stroke="#E82E2E" stroke-width="5"/>
<line y1="-2.5" x2="66" y2="-2.5" transform="matrix(4.37114e-08 1 1 -4.37114e-08 835 7)" stroke="#E82E2E" stroke-width="5"/>
<line y1="-2.5" x2="66" y2="-2.5" transform="matrix(4.37114e-08 1 1 -4.37114e-08 819 7)" stroke="#E82E2E" stroke-width="5"/>
<line y1="-2.5" x2="66" y2="-2.5" transform="matrix(4.37114e-08 1 1 -4.37114e-08 773 7)" stroke="#E82E2E" stroke-width="5"/>
<line y1="-2.5" x2="51" y2="-2.5" transform="matrix(4.37114e-08 1 1 -4.37114e-08 758 14)" stroke="#E82E2E" stroke-width="5"/>
<line y1="-2.5" x2="51" y2="-2.5" transform="matrix(4.37114e-08 1 1 -4.37114e-08 661 14)" stroke="#E82E2E" stroke-width="5"/>
<line y1="-2.5" x2="51" y2="-2.5" transform="matrix(4.37114e-08 1 1 -4.37114e-08 743 14)" stroke="#E82E2E" stroke-width="5"/>
<line y1="-2.5" x2="30" y2="-2.5" transform="matrix(4.37114e-08 1 1 -4.37114e-08 729 25)" stroke="#E82E2E" stroke-width="5"/>
<line y1="-2.5" x2="30" y2="-2.5" transform="matrix(4.37114e-08 1 1 -4.37114e-08 686 25)" stroke="#E82E2E" stroke-width="5"/>
<line y1="-2.5" x2="22" y2="-2.5" transform="matrix(4.37114e-08 1 1 -4.37114e-08 673 29)" stroke="#E82E2E" stroke-width="5"/>
<line y1="-2.5" x2="76" y2="-2.5" transform="matrix(4.37114e-08 1 1 -4.37114e-08 803 2)" stroke="#E82E2E" stroke-width="5"/>
<line y1="-2.5" x2="76" y2="-2.5" transform="matrix(4.37114e-08 1 1 -4.37114e-08 788 2)" stroke="#E82E2E" stroke-width="5"/>
<line y1="-2.5" x2="76" y2="-2.5" transform="matrix(4.37114e-08 1 1 -4.37114e-08 715 2)" stroke="#E82E2E" stroke-width="5"/>
<line y1="-2.5" x2="80" y2="-2.5" transform="matrix(4.37114e-08 1 1 -4.37114e-08 700 0)" stroke="#E82E2E" stroke-width="5"/>
</svg>
